<?xml version="1.0" standalone="no"?>
<!DOCTYPE svg PUBLIC "-//W3C//DTD SVG 20010904//EN"
 "http://www.w3.org/TR/2001/REC-SVG-20010904/DTD/svg10.dtd">
<svg version="1.0" xmlns="http://www.w3.org/2000/svg"
 width="813.000000pt" height="355.000000pt" viewBox="0 0 813.000000 355.000000"
 preserveAspectRatio="xMidYMid meet">
<metadata>
Created by potrace 1.16, written by Peter Selinger 2001-2019
</metadata>
<g transform="translate(0.000000,355.000000) scale(0.100000,-0.100000)"
fill="#b2b2b2" stroke="none">
<path d="M2885 3304 c-11 -3 -47 -9 -80 -15 -179 -32 -354 -119 -477 -237
-223 -213 -343 -548 -309 -867 44 -424 260 -719 621 -850 105 -37 195 -54 340
-61 284 -15 539 61 738 219 40 32 72 62 70 67 -2 5 -56 63 -122 129 l-118 121
-32 -28 c-195 -171 -515 -217 -777 -110 -163 66 -291 225 -346 429 -11 43 -17
102 -17 179 0 198 56 356 171 480 177 192 468 256 742 164 83 -28 124 -50 189
-101 23 -19 46 -33 51 -31 5 2 59 51 121 110 71 68 110 113 107 122 -8 21
-152 128 -227 168 -151 82 -306 119 -499 117 -69 -1 -135 -3 -146 -5z"/>
<path d="M170 2292 l0 -984 533 5 c322 3 562 10 607 17 95 14 228 60 290 100
69 44 145 129 176 196 28 62 53 180 54 254 0 64 -26 165 -57 223 -37 67 -126
157 -190 192 -29 15 -53 31 -53 34 0 3 20 19 44 34 162 102 224 266 182 474
-19 97 -38 141 -88 210 -49 65 -125 123 -213 161 -135 58 -169 61 -752 65
l-533 4 0 -985z m875 645 c168 -2 183 -4 220 -26 134 -78 181 -215 111 -322
-20 -29 -44 -48 -84 -67 -57 -26 -59 -27 -401 -36 -300 -8 -346 -7 -355 6 -7
10 -10 86 -8 231 l3 216 37 3 c20 2 96 2 167 1 72 -2 211 -4 310 -6z m57 -776
c114 -7 134 -11 190 -39 143 -71 206 -185 164 -297 -32 -82 -118 -136 -255
-161 -93 -16 -656 -20 -666 -4 -8 12 -7 489 1 501 6 11 395 11 566 0z"/>
<path d="M3972 3271 c-9 -6 -12 -211 -10 -982 l3 -974 440 2 c485 1 555 8 707
63 261 96 451 297 542 575 80 248 53 603 -64 835 -90 178 -270 340 -461 415
-141 56 -215 63 -699 69 -245 3 -451 2 -458 -3z m941 -364 c277 -80 427 -297
427 -618 0 -292 -147 -513 -395 -593 -27 -9 -104 -20 -170 -26 -133 -11 -414
-13 -439 -4 -14 6 -16 70 -16 628 0 343 3 626 7 630 4 4 125 6 268 4 205 -4
272 -8 318 -21z"/>
<path d="M6615 3219 c-15 -30 -60 -117 -100 -194 -40 -77 -116 -225 -170 -330
-54 -104 -130 -253 -170 -330 -155 -300 -226 -438 -330 -640 -59 -115 -127
-246 -150 -290 -23 -44 -46 -90 -49 -103 l-8 -23 190 1 c146 1 194 5 210 16
11 7 38 49 60 91 22 43 129 254 238 468 263 518 301 590 310 588 8 -1 403
-781 404 -795 0 -5 -144 -8 -320 -8 l-319 0 -24 -42 c-72 -127 -157 -300 -152
-309 7 -10 1398 -13 1409 -2 5 5 -166 347 -299 598 -24 44 -96 184 -160 310
-65 127 -146 284 -180 350 -34 66 -122 237 -195 380 -74 143 -142 273 -151
289 l-17 29 -27 -54z"/>
<path d="M4125 1130 c-116 -30 -171 -114 -146 -225 26 -115 147 -173 260 -125
55 24 62 37 32 64 -18 17 -22 17 -43 2 -36 -26 -111 -21 -147 10 -57 48 -51
156 12 195 32 20 63 21 143 4 32 -7 59 11 46 31 -20 32 -109 57 -157 44z"/>
<path d="M2427 1123 c-4 -3 -7 -84 -7 -180 l0 -173 104 0 c112 0 143 7 176 40
29 29 27 90 -5 122 -25 25 -25 25 -5 43 43 39 14 127 -48 144 -41 12 -205 15
-215 4z"/>
<path d="M7597 1123 c-4 -3 -7 -32 -7 -63 l0 -58 -41 15 c-104 35 -189 -47
-160 -154 21 -78 102 -115 176 -81 21 9 28 9 34 -1 5 -7 18 -11 31 -9 22 3 22
4 21 168 0 91 -1 171 -1 178 0 12 -42 17 -53 5z m-32 -178 c14 -13 25 -31 25
-39 0 -56 -57 -99 -102 -75 -31 16 -38 28 -38 67 0 66 69 94 115 47z"/>
<path d="M2823 1015 c-38 -16 -59 -47 -68 -97 -19 -104 79 -186 170 -142 29
13 39 14 45 5 4 -7 18 -11 31 -9 24 3 24 4 24 123 0 119 0 120 -24 123 -13 2
-28 -1 -33 -6 -7 -7 -22 -5 -44 4 -41 17 -60 17 -101 -1z m117 -65 c30 -30 27
-83 -6 -109 -61 -48 -123 -8 -114 74 5 53 80 75 120 35z"/>
<path d="M3123 1015 c-32 -14 -53 -41 -53 -70 0 -29 45 -63 93 -70 54 -8 75
-26 52 -45 -14 -12 -45 -10 -106 5 -20 5 -28 2 -33 -12 -17 -44 90 -77 157
-49 35 14 57 46 57 82 0 30 -45 61 -99 69 -46 6 -52 10 -49 29 4 25 45 34 78
16 16 -9 25 -8 36 1 23 19 16 36 -17 48 -42 14 -77 13 -116 -4z"/>
<path d="M3381 1011 c-42 -23 -60 -54 -61 -109 0 -54 22 -97 60 -117 64 -33
201 -7 168 32 -9 11 -24 13 -60 9 -47 -7 -85 4 -100 28 -14 21 5 26 98 26 l94
0 0 28 c0 40 -36 91 -75 108 -45 19 -82 17 -124 -5z"/>
<path d="M3680 1023 c-28 -10 -60 -47 -60 -69 0 -37 32 -65 90 -78 43 -10 55
-17 55 -32 0 -16 -7 -19 -40 -18 -22 0 -52 4 -67 8 -21 6 -29 4 -34 -8 -9 -23
12 -44 56 -57 77 -23 150 13 150 74 0 51 -21 69 -97 82 -48 8 -60 19 -43 40
15 18 53 19 82 4 18 -9 24 -8 35 7 19 26 17 30 -26 42 -40 13 -76 14 -101 5z"/>
<path d="M4405 1022 c-58 -19 -85 -60 -85 -127 0 -41 5 -57 28 -84 49 -59 147
-59 196 0 35 41 37 123 4 164 -34 44 -93 63 -143 47z m85 -74 c29 -32 24 -85
-11 -111 -64 -47 -132 42 -83 111 20 29 67 29 94 0z"/>
<path d="M4712 1013 c-27 -13 -35 -14 -42 -4 -8 13 -51 12 -50 -1 0 -5 0 -60
0 -124 l0 -115 28 3 c27 3 27 4 32 86 5 89 19 112 65 112 38 0 53 -29 57 -108
3 -86 7 -95 39 -90 23 3 24 5 23 89 -2 97 -11 122 -57 149 -39 24 -52 24 -95
3z"/>
<path d="M5251 1012 c-87 -44 -91 -172 -6 -228 48 -31 180 -13 173 25 -3 13
-17 16 -69 16 -66 0 -104 16 -96 39 2 6 42 13 98 16 l94 5 -3 33 c-7 91 -104
139 -191 94z"/>
<path d="M5597 1024 c-4 -4 -28 -8 -54 -8 l-48 -1 0 -120 0 -120 28 -3 27 -3
0 74 c0 61 4 79 21 101 19 24 26 27 60 21 35 -6 39 -5 45 20 3 14 5 28 3 30
-9 8 -75 16 -82 9z"/>
<path d="M5754 1016 c-33 -14 -44 -33 -44 -70 0 -33 32 -57 92 -71 42 -9 53
-16 53 -31 0 -24 -53 -31 -97 -13 -25 10 -32 9 -46 -5 -16 -16 -15 -18 7 -36
52 -39 148 -35 181 8 45 57 11 114 -75 127 -48 7 -69 30 -44 46 14 9 44 7 84
-5 14 -5 24 -1 33 14 12 19 10 22 -22 35 -43 18 -81 18 -122 1z"/>
<path d="M6154 1016 c-50 -22 -74 -61 -74 -122 0 -46 4 -57 34 -88 31 -33 38
-36 91 -36 52 0 60 3 91 34 30 30 34 40 34 89 0 63 -23 101 -76 123 -41 17
-60 17 -100 0z m96 -66 c20 -20 27 -74 12 -96 -13 -20 -52 -35 -72 -29 -75 24
-62 145 15 145 14 0 34 -9 45 -20z"/>
<path d="M6476 1013 c-29 -12 -41 -13 -44 -5 -2 7 -15 12 -28 12 l-24 0 0
-125 0 -125 30 0 30 0 0 80 c0 88 17 120 63 120 46 0 63 -46 66 -173 1 -25 4
-28 29 -25 l27 3 -1 87 c-1 99 -15 131 -69 154 -19 8 -36 14 -37 13 -2 0 -21
-7 -42 -16z"/>
<path d="M6833 1010 c-95 -57 -80 -203 24 -240 38 -13 46 -12 79 3 26 13 40
15 47 8 6 -6 21 -11 34 -11 23 0 23 1 23 125 l0 125 -30 0 c-16 0 -30 -4 -30
-9 0 -5 -17 -3 -37 5 -52 18 -73 17 -110 -6z m126 -66 c12 -15 21 -38 21 -51
0 -32 -42 -73 -75 -73 -31 0 -75 41 -75 70 0 24 18 61 34 72 26 18 75 8 95
-18z"/>
<path d="M4890 1011 c0 -5 22 -60 48 -123 48 -111 50 -113 83 -116 l35 -3 49
117 c28 64 52 121 53 125 6 14 -54 10 -65 -3 -5 -7 -22 -46 -38 -86 -16 -40
-31 -69 -35 -65 -4 4 -17 33 -29 63 -34 81 -48 100 -76 100 -14 0 -25 -4 -25
-9z"/>
<path d="M7092 898 l3 -123 26 -3 c27 -3 27 -3 31 78 3 71 6 84 27 101 30 24
56 24 81 -1 17 -17 20 -33 20 -100 l0 -80 30 0 30 0 0 80 c0 88 -16 142 -48
159 -27 14 -88 14 -114 0 -14 -8 -23 -8 -31 0 -6 6 -21 11 -34 11 -24 0 -24 0
-21 -122z"/>
<path d="M2100 430 l0 -183 94 6 c97 5 135 18 173 59 69 74 52 216 -33 269
-32 19 -55 24 -136 27 l-98 4 0 -182z m202 90 c39 -30 53 -73 39 -120 -16 -54
-52 -80 -110 -80 -26 0 -52 5 -59 12 -8 8 -12 47 -12 110 l0 98 59 0 c43 0 65
-5 83 -20z"/>
<path d="M3340 430 l0 -181 28 3 27 3 0 175 0 175 -27 3 -28 3 0 -181z"/>
<path d="M5500 548 c-86 -188 -127 -284 -123 -290 2 -5 15 -8 29 -8 18 0 31
10 45 35 l21 35 93 0 c85 0 94 -2 100 -20 3 -11 13 -27 21 -35 17 -17 64 -20
64 -5 0 6 -29 76 -65 155 -36 80 -65 149 -65 154 0 17 -38 41 -64 41 -23 0
-31 -8 -56 -62z"/>
<path d="M6277 603 c-7 -11 -8 -313 -1 -336 6 -20 53 -24 56 -4 1 12 3 40 6
114 2 50 35 79 77 69 28 -7 47 -62 45 -130 -3 -66 -2 -68 28 -64 l27 3 -1 90
c-1 101 -10 127 -56 151 -26 14 -37 14 -72 4 -23 -7 -43 -12 -46 -11 -3 1 -5
27 -5 59 0 54 -1 57 -27 60 -14 2 -28 -1 -31 -5z"/>
<path d="M5127 563 c-4 -3 -7 -17 -7 -30 0 -16 -8 -27 -26 -33 -31 -12 -29
-44 4 -48 20 -3 22 -9 22 -65 0 -83 6 -100 40 -120 33 -20 87 -22 93 -4 9 27
-5 47 -34 47 -33 0 -42 21 -37 91 3 40 6 44 33 49 21 4 31 12 33 27 3 18 -2
22 -30 25 -29 3 -33 7 -36 36 -3 26 -8 32 -26 32 -12 0 -26 -3 -29 -7z"/>
<path d="M6105 558 c-2 -7 -5 -22 -7 -33 -2 -12 -12 -21 -26 -23 -31 -5 -29
-40 3 -52 23 -9 25 -14 25 -80 0 -76 15 -103 64 -116 41 -10 61 -1 61 26 0 20
-6 26 -30 30 -30 5 -30 6 -30 70 0 64 0 65 30 70 21 4 30 11 30 25 0 14 -8 21
-30 25 -25 4 -30 10 -33 38 -3 27 -7 32 -28 32 -14 0 -26 -6 -29 -12z"/>
<path d="M7227 563 c-4 -3 -7 -19 -7 -35 0 -20 -5 -28 -18 -28 -25 0 -31 -7
-25 -31 3 -10 14 -19 24 -19 17 0 19 -8 19 -69 0 -83 22 -118 80 -127 44 -6
61 5 53 34 -4 16 -13 22 -34 22 -33 0 -42 21 -37 91 3 42 5 44 36 47 26 3 32
7 32 28 0 20 -5 24 -29 24 -29 0 -41 14 -41 51 0 13 -7 19 -23 19 -13 0 -27
-3 -30 -7z"/>
<path d="M2509 487 c-107 -72 -53 -237 78 -237 49 0 106 25 100 43 -2 8 -28
12 -70 12 -54 0 -69 4 -81 20 -9 11 -16 23 -16 28 0 4 43 7 95 7 l95 0 0 30
c0 100 -115 155 -201 97z"/>
<path d="M3093 490 c-59 -36 -79 -109 -47 -175 18 -39 66 -65 118 -65 42 0
106 24 106 40 0 18 -43 28 -74 17 -33 -12 -96 13 -96 38 0 12 17 15 95 15 106
0 105 -1 85 72 -20 70 -118 101 -187 58z"/>
<path d="M3510 493 c-66 -34 -89 -122 -47 -184 31 -46 62 -61 120 -56 57 5 92
33 109 89 32 109 -81 203 -182 151z m102 -60 c52 -60 14 -132 -63 -121 -48 7
-63 83 -23 122 21 21 67 20 86 -1z"/>
<path d="M3843 495 c-19 -8 -35 -10 -38 -4 -4 5 -19 9 -36 9 l-29 0 0 -176 0
-175 32 3 c31 3 31 4 32 58 1 44 4 54 16 51 117 -28 190 16 190 116 0 50 -18
82 -59 110 -39 26 -63 28 -108 8z m72 -57 c49 -22 44 -104 -8 -122 -58 -21
-109 26 -94 86 6 23 37 46 64 47 7 1 24 -4 38 -11z"/>
<path d="M4073 503 c-10 -3 -13 -39 -13 -129 l0 -125 28 3 c27 3 27 4 30 86 3
75 5 83 28 98 20 14 30 15 49 6 21 -10 25 -19 27 -59 6 -145 4 -139 43 -129
24 6 25 9 25 85 0 63 4 81 18 94 50 45 82 3 82 -106 l0 -78 28 3 27 3 -1 97
c0 88 -3 100 -24 123 -34 36 -81 42 -125 16 l-36 -21 -29 22 c-27 19 -33 20
-71 9 -30 -9 -45 -9 -52 -2 -12 12 -15 12 -34 4z"/>
<path d="M4563 490 c-63 -38 -81 -120 -40 -181 28 -42 60 -59 115 -59 43 0
102 23 102 40 0 19 -33 27 -70 18 -43 -11 -95 6 -95 32 0 12 19 16 93 18 l92
3 0 32 c0 37 -29 85 -62 103 -34 20 -98 17 -135 -6z"/>
<path d="M4896 492 c-22 -13 -30 -14 -33 -4 -3 6 -15 12 -28 12 -29 0 -31 -11
-27 -148 l3 -103 27 3 c26 3 27 5 32 84 6 90 18 114 60 114 42 0 54 -24 60
-114 5 -80 6 -81 33 -84 l27 -3 0 93 c0 103 -9 127 -60 153 -37 19 -58 19 -94
-3z"/>
<path d="M6635 496 c-46 -20 -67 -51 -73 -104 -5 -61 15 -104 62 -126 42 -20
76 -20 121 -2 47 20 69 57 67 117 -1 57 -22 90 -70 113 -39 19 -67 20 -107 2z
m93 -62 c16 -11 22 -25 22 -51 0 -45 -24 -73 -63 -73 -41 0 -67 26 -67 67 0
61 58 92 108 57z"/>
<path d="M6951 501 c-7 -5 -31 -6 -53 -4 l-39 6 3 -124 3 -124 25 0 c24 0 25
3 30 84 7 94 22 117 74 107 32 -7 56 8 56 34 0 26 -68 40 -99 21z"/>
<path d="M7085 498 c-3 -8 -4 -66 -3 -129 l3 -114 28 -3 28 -3 -3 128 c-3 124
-4 128 -26 131 -12 2 -24 -3 -27 -10z"/>
<path d="M2740 491 c0 -18 93 -226 104 -233 6 -4 21 -8 34 -8 24 0 34 17 103
183 l28 67 -34 0 c-32 0 -34 -2 -66 -84 -18 -47 -36 -83 -40 -80 -4 2 -17 30
-29 62 -33 92 -40 102 -72 102 -15 0 -28 -4 -28 -9z"/>
<path d="M5772 404 c3 -94 4 -96 36 -125 36 -32 72 -37 114 -15 23 12 29 12
39 0 7 -8 22 -14 33 -12 20 3 21 10 24 126 l3 122 -31 0 -30 0 0 -65 c0 -75
-14 -113 -46 -121 -60 -15 -84 18 -84 119 l0 67 -31 0 -31 0 4 -96z"/>
<path d="M7390 489 c0 -6 19 -52 41 -103 37 -81 41 -97 36 -145 -3 -30 -11
-59 -16 -64 -18 -18 -12 -27 19 -27 27 0 33 6 55 52 37 80 125 285 125 292 0
11 -58 6 -67 -6 -5 -7 -20 -41 -33 -76 -12 -34 -26 -65 -30 -67 -4 -3 -21 30
-37 73 -27 72 -31 77 -61 80 -20 2 -32 -1 -32 -9z"/>
</g>
</svg>
