<?xml version="1.0" encoding="UTF-8"?>
<svg version="1.1" xmlns="http://www.w3.org/2000/svg" width="463" height="139">
<path d="M0 0 C1.1187149 0.00726105 2.23742981 0.01452209 3.39004517 0.02200317 C4.58181366 0.04165131 5.77358215 0.06129944 7.00146484 0.08154297 C8.87141617 0.10485184 8.87141617 0.10485184 10.77914429 0.12863159 C13.41339231 0.16537016 16.047567 0.20774215 18.68164062 0.25537109 C22.67740172 0.32761864 26.67316855 0.35953716 30.66943359 0.39404297 C33.23847451 0.43378497 35.80748737 0.47539244 38.37646484 0.51904297 C39.55608795 0.52654572 40.73571106 0.53404846 41.95108032 0.54177856 C54.01543553 0.81934962 65.44107067 3.29144311 74.08740234 12.19873047 C81.50046142 21.47680864 82.17154782 30.61913408 81.08740234 42.19873047 C79.63011592 47.71107477 76.26275733 51.48730382 72.08740234 55.19873047 C73.1838462 57.89000176 74.29053948 59.39637741 76.39990234 61.44873047 C82.33003132 67.51676942 85.18558868 73.29020108 85.39990234 81.76123047 C85.28617196 91.09849488 82.51765706 98.73515847 75.98974609 105.48388672 C58.23379751 121.48976235 26.14960062 116.52588722 4.08740234 116.19873047 C3.20648926 116.18616211 2.32557617 116.17359375 1.41796875 116.16064453 C-0.73609507 116.11721761 -2.88527439 116.04366596 -5.03759766 115.94873047 C-6.15392578 115.90232422 -7.27025391 115.85591797 -8.42041016 115.80810547 C-10.91259766 115.19873047 -10.91259766 115.19873047 -12.05332756 113.44933701 C-12.99409451 110.98527331 -13.15916818 109.21033986 -13.15310669 106.57965088 C-13.15585602 105.65700943 -13.15860535 104.73436798 -13.16143799 103.7837677 C-13.15065216 102.27649361 -13.15065216 102.27649361 -13.13964844 100.73876953 C-13.14008652 99.14318459 -13.14008652 99.14318459 -13.14053345 97.5153656 C-13.13913976 93.99827934 -13.12357647 90.48140474 -13.10791016 86.96435547 C-13.10418017 84.52626664 -13.10133313 82.08817631 -13.09933472 79.65008545 C-13.09169714 73.23195256 -13.07204748 66.81391013 -13.04992676 60.39581299 C-13.02947108 53.84705835 -13.02033359 47.2982891 -13.01025391 40.74951172 C-12.98880179 27.8992127 -12.95504851 15.04897639 -12.91259766 2.19873047 C-8.48007387 0.80038478 -4.64629712 -0.04829751 0 0 Z M11.08740234 23.19873047 C11.05852723 26.84454734 11.04064649 30.4903351 11.02490234 34.13623047 C11.01652344 35.17714844 11.00814453 36.21806641 10.99951172 37.29052734 C10.99628906 38.27988281 10.99306641 39.26923828 10.98974609 40.28857422 C10.98450928 41.20501709 10.97927246 42.12145996 10.97387695 43.06567383 C10.84819023 45.1823607 10.84819023 45.1823607 12.08740234 46.19873047 C14.5875341 46.32464325 17.05848047 46.38739736 19.56005859 46.40185547 C20.69476845 46.41040558 20.69476845 46.41040558 21.85240173 46.41912842 C23.46058752 46.428598 25.06879288 46.43512014 26.67700195 46.43896484 C29.11559139 46.44859497 31.55331058 46.4795663 33.99169922 46.51123047 C35.55614735 46.5177681 37.12060151 46.52301558 38.68505859 46.52685547 C39.40621353 46.53920227 40.12736847 46.55154907 40.87037659 46.56427002 C46.20927571 46.54127864 50.20846253 45.39979576 55.08740234 43.19873047 C57.43224688 40.48750398 57.99966068 38.78785306 58.52490234 35.26123047 C57.95545837 31.27512265 56.67894185 29.26765883 54.08740234 26.19873047 C46.99010949 21.41218412 37.85501597 22.03326906 29.58740234 22.07373047 C28.79720703 22.06986328 28.00701172 22.06599609 27.19287109 22.06201172 C21.75399172 22.07091332 16.48374003 22.51879192 11.08740234 23.19873047 Z M11.08740234 67.19873047 C11.05853483 71.34454933 11.04064907 75.49034263 11.02490234 79.63623047 C11.01652344 80.82023437 11.00814453 82.00423828 10.99951172 83.22412109 C10.99628906 84.34882812 10.99306641 85.47353516 10.98974609 86.63232422 C10.98450928 87.67445068 10.97927246 88.71657715 10.97387695 89.7902832 C10.81434679 92.15001794 10.81434679 92.15001794 12.08740234 93.19873047 C14.73285971 93.3247319 17.35072147 93.38741684 19.99755859 93.40185547 C20.79842392 93.40755554 21.59928925 93.41325562 22.42442322 93.41912842 C24.12676669 93.42859823 25.82912867 93.43512022 27.53149414 93.43896484 C30.11491967 93.4486 32.69752555 93.47957377 35.28076172 93.51123047 C36.93635596 93.51776754 38.5919559 93.52301524 40.24755859 93.52685547 C41.39491234 93.54537567 41.39491234 93.54537567 42.56544495 93.56427002 C48.91657862 93.53840565 54.32020373 92.25639098 59.52490234 88.38623047 C61.53154261 85.57693409 61.94695106 83.63978682 62.08740234 80.19873047 C60.9874937 75.68910501 58.59446821 73.16025275 55.08740234 70.19873047 C49.63618891 67.35715407 45.40089605 66.78378869 39.31005859 66.90576172 C38.09303505 66.91212898 38.09303505 66.91212898 36.85142517 66.91862488 C34.28389978 66.93529179 31.7171867 66.97291998 29.14990234 67.01123047 C27.39926271 67.02629287 25.64861066 67.03997854 23.89794922 67.05224609 C19.62745842 67.08515579 15.35756766 67.13685321 11.08740234 67.19873047 Z " fill="#FBFBFB" transform="translate(24.91259765625,16.80126953125)"/>
<path d="M0 0 C7.75546897 -0.07655022 15.51083919 -0.12880865 23.26660156 -0.16479492 C25.90075319 -0.17980939 28.53488012 -0.20022713 31.16894531 -0.22631836 C34.97206751 -0.26302525 38.77485694 -0.27980049 42.578125 -0.29296875 C43.74112122 -0.30845261 44.90411743 -0.32393646 46.10235596 -0.33988953 C62.15641213 -0.34313676 75.04938193 4.48681227 86.71484375 15.59765625 C99.17993938 28.70198756 102.54824089 44.48926222 102.27734375 62.02734375 C101.73965704 75.95637222 96.30428143 90.3467516 86 100 C80.20933987 105.10058147 74.15900156 108.67310779 67 111.4375 C66.3723877 111.68443604 65.74477539 111.93137207 65.09814453 112.18579102 C56.04350151 115.43347604 46.18510538 115.15268652 36.6796875 115.1328125 C35.14177048 115.13424759 35.14177048 115.13424759 33.57278442 115.13571167 C31.43003273 115.13638649 29.28727891 115.13458145 27.14453125 115.13037109 C23.84891275 115.12495714 20.55342713 115.13036788 17.2578125 115.13671875 C15.16927053 115.13605893 13.08072865 115.13477975 10.9921875 115.1328125 C10.00378876 115.13483673 9.01539001 115.13686096 7.99703979 115.13894653 C6.63894699 115.13421829 6.63894699 115.13421829 5.25341797 115.12939453 C4.45386688 115.12859894 3.6543158 115.12780334 2.83053589 115.12698364 C1 115 1 115 0 114 C-0.09568576 112.51983606 -0.12188268 111.03511727 -0.12025452 109.55186462 C-0.12162918 108.5912764 -0.12300385 107.63068817 -0.12442017 106.64099121 C-0.12082489 105.57860229 -0.11722961 104.51621338 -0.11352539 103.42163086 C-0.11367142 102.30957779 -0.11381744 101.19752472 -0.1139679 100.05177307 C-0.11326821 96.35611049 -0.1054732 92.66049759 -0.09765625 88.96484375 C-0.09579227 86.41036507 -0.09436827 83.85588603 -0.09336853 81.30140686 C-0.08993344 75.2523829 -0.08204264 69.20338045 -0.07201904 63.15436512 C-0.06085683 56.26934846 -0.05534718 49.38433096 -0.05032361 42.49930751 C-0.03986 28.3328617 -0.02226123 14.16643183 0 0 Z M23 22 C22.97687434 30.97920777 22.95908377 39.95840537 22.94818783 48.93763638 C22.94295949 53.10662828 22.93586274 57.27559987 22.92456055 61.44458008 C22.91372992 65.46457686 22.90772279 69.48455405 22.90512276 73.50456429 C22.90326882 75.04162975 22.89964881 76.57869409 22.89426994 78.11575127 C22.88705716 80.26135487 22.88600916 82.40687655 22.88647461 84.55249023 C22.884254 85.77604721 22.88203339 86.99960419 22.87974548 88.26023865 C22.68714072 90.9122807 22.68714072 90.9122807 24 92 C28.1175453 92.28528027 32.24877934 92.23200122 36.375 92.25 C37.51839844 92.270625 38.66179687 92.29125 39.83984375 92.3125 C50.31392007 92.3601636 60.75168103 91.00021808 69 84 C76.77217526 75.60958353 79.34969495 66.5426996 79.2109375 55.26171875 C78.47976641 43.9556472 74.82364523 36.28032786 66.5625 28.6875 C59.9294757 23.29908291 52.79816411 21.86393532 44.38671875 21.90234375 C42.5159668 21.90717773 42.5159668 21.90717773 40.60742188 21.91210938 C39.31384766 21.92048828 38.02027344 21.92886719 36.6875 21.9375 C35.37458984 21.94201172 34.06167969 21.94652344 32.70898438 21.95117188 C29.4726099 21.96294051 26.23632822 21.9793824 23 22 Z " fill="#FAFAFA" transform="translate(228,18)"/>
<path d="M0 0 C1.77392578 0.07470703 1.77392578 0.07470703 4 1 C5.40475264 3.27109967 6.51910252 5.38944497 7.6171875 7.8046875 C7.9504454 8.50612885 8.28370331 9.20757019 8.62705994 9.93026733 C9.3455717 11.44579517 10.05775658 12.96433519 10.76431274 14.48547363 C12.64805472 18.53814561 14.57972342 22.56797924 16.50390625 26.6015625 C17.0819828 27.81845764 17.0819828 27.81845764 17.67173767 29.05993652 C20.9119867 35.86633122 24.30984088 42.57425134 27.8125 49.25 C28.93239032 51.38927127 30.05217807 53.52859625 31.171875 55.66796875 C31.76677734 56.80411621 32.36167969 57.94026367 32.97460938 59.11083984 C36.76119738 66.36576917 40.4840594 73.65383895 44.21664429 80.93664551 C45.53085831 83.50076495 46.84606771 86.06437193 48.16137695 88.62792969 C50.1142131 92.43544009 52.06240248 96.24529361 54.00714111 100.0569458 C54.9010743 101.80639949 55.79961714 103.55349591 56.69873047 105.30029297 C57.15779785 106.20021973 57.61686523 107.10014648 58.08984375 108.02734375 C58.65819946 109.13517212 58.65819946 109.13517212 59.23803711 110.26538086 C60 112 60 112 60 114 C51.00883332 115.12682011 42.09675034 115.12847635 33.0546875 115.09765625 C31.43230229 115.09578758 29.8099165 115.0943658 28.18753052 115.09336853 C23.94944661 115.08957866 19.71139782 115.07977916 15.47332764 115.06866455 C11.13586909 115.0583739 6.79840478 115.05385462 2.4609375 115.04882812 C-6.02605765 115.03815319 -14.51302444 115.02111998 -23 115 C-24 112 -24 112 -23.2590332 109.94702148 C-21.95520193 107.43710017 -20.64839476 104.93055602 -19.3125 102.4375 C-18.86455078 101.56158203 -18.41660156 100.68566406 -17.95507812 99.78320312 C-17.29088867 98.52733398 -17.29088867 98.52733398 -16.61328125 97.24609375 C-16.20891846 96.47966553 -15.80455566 95.7132373 -15.38793945 94.92358398 C-13.70641802 92.59311654 -12.73290396 91.89325283 -10 91 C-6.70019531 90.77294922 -6.70019531 90.77294922 -2.828125 90.8046875 C-1.8044986 90.80893234 -1.8044986 90.80893234 -0.76019287 90.81326294 C1.41005307 90.82441902 3.57987971 90.84951443 5.75 90.875 C7.22525444 90.88503574 8.70051537 90.89416056 10.17578125 90.90234375 C13.78398942 90.92434313 17.39195375 90.95884117 21 91 C17.71368422 82.73705389 13.99343852 74.84507376 9.8125 67 C8.75635048 65.00008446 7.7003545 63.00008781 6.64453125 61 C6.18409424 60.13375 5.72365723 59.2675 5.24926758 58.375 C4.44844508 56.85254519 3.68163453 55.31141606 2.9597168 53.75 C2.11832756 51.82199888 2.11832756 51.82199888 0 51 C-0.24878906 51.83402344 -0.49757813 52.66804688 -0.75390625 53.52734375 C-2.14901638 57.41528388 -3.97196 60.94405436 -5.9375 64.5625 C-9.21080794 70.62125189 -12.37511625 76.72197589 -15.41026306 82.9032135 C-17.06923156 86.27820306 -18.74648269 89.64398589 -20.42410278 93.00973511 C-21.26476434 94.70833889 -22.09707175 96.41110348 -22.92086792 98.11795044 C-24.09611969 100.5496923 -25.30058856 102.96487753 -26.51171875 105.37890625 C-26.85950378 106.1177002 -27.20728882 106.85649414 -27.56561279 107.61767578 C-29.52232468 111.44160714 -30.3774054 112.73791241 -34.47802734 114.46411133 C-37.33488003 114.89879812 -39.95896486 115.23504876 -42.83984375 115.1953125 C-43.67451172 115.18886719 -44.50917969 115.18242187 -45.36914062 115.17578125 C-46.64047852 115.15064453 -46.64047852 115.15064453 -47.9375 115.125 C-49.24944336 115.11146484 -49.24944336 115.11146484 -50.58789062 115.09765625 C-52.72538064 115.0742957 -54.86272786 115.03843247 -57 115 C-56.46929165 110.08160429 -54.84506888 106.36941699 -52.4375 102.125 C-51.70519695 100.7939763 -50.97478725 99.46190949 -50.24609375 98.12890625 C-49.87210449 97.44715332 -49.49811523 96.76540039 -49.11279297 96.06298828 C-47.33449078 92.76622359 -45.66362299 89.41824847 -44 86.0625 C-43.4225 84.89847656 -42.845 83.73445313 -42.25 82.53515625 C-41.91556885 81.86057373 -41.5811377 81.18599121 -41.23657227 80.4909668 C-34.92894292 67.78479854 -28.52132834 55.13157008 -22.06420898 42.50073242 C-20.56677862 39.57087151 -19.07142582 36.6399565 -17.57617188 33.70898438 C-11.81156272 22.42163528 -5.97020255 11.18001831 0 0 Z " fill="#F9F9F9" transform="translate(381,18)"/>
<path d="M0 0 C2.125 2.875 2.125 2.875 2.0859375 5.1875 C0.79320443 8.80294858 -1.44696499 11.10692628 -4.125 13.75 C-4.84236328 14.51570313 -4.84236328 14.51570313 -5.57421875 15.296875 C-7.015625 16.7421875 -7.015625 16.7421875 -9.875 18.875 C-13.47206129 18.83230491 -15.64446894 17.57560628 -18.5 15.5 C-27.47695068 9.70028468 -38.13010822 8.51226244 -48.5390625 10.34375 C-57.20795671 12.59819927 -64.54172771 17.15985137 -69.58984375 24.640625 C-75.61204099 35.11082811 -77.06376939 47.15808296 -73.921875 58.8671875 C-70.4361652 69.30225543 -66.64449269 74.55299569 -56.78125 79.6171875 C-45.93988178 84.30928504 -34.87196698 83.7246461 -23.875 79.875 C-21.17793711 78.43856151 -18.65454321 76.89763345 -16.12890625 75.1796875 C-13.49615739 73.65570463 -11.94125245 72.86568008 -8.875 72.875 C-6.69490436 74.57565552 -5.02500128 76.10999859 -3.1875 78.125 C-2.45950195 78.88103516 -2.45950195 78.88103516 -1.71679688 79.65234375 C0.47731023 81.95842598 2.35589541 84.22134311 4.125 86.875 C3.9198726 89.44159409 3.43517924 90.55834182 1.62890625 92.40234375 C-14.17845742 103.88415116 -31.42113433 107.95902753 -50.640625 105.3671875 C-61.86074534 103.21707633 -72.22894055 99.48953392 -80.875 91.875 C-81.47957031 91.35164063 -82.08414063 90.82828125 -82.70703125 90.2890625 C-94.32028505 79.51074851 -98.77777406 64.30368475 -99.875 48.875 C-100.05799886 30.6157806 -94.10025763 15.270029 -81.875 1.875 C-74.1197681 -5.5269567 -62.42251415 -11.33728574 -51.875 -13.125 C-51.21886719 -13.24488281 -50.56273437 -13.36476563 -49.88671875 -13.48828125 C-32.67517273 -16.09990523 -13.13882733 -11.77019949 0 0 Z " fill="#F8F8F8" transform="translate(216.875,29.125)"/>
<path d="M0 0 C4.87741444 3.96998849 8.36274852 8.94991279 9.3515625 15.234375 C9.55184391 20.51452124 8.80013202 25.45899643 6 30 C1.9102766 34.40497291 -1.69880744 37.68388033 -7.85546875 38.2734375 C-15.31308421 38.50075052 -20.34286773 38.08443493 -26 33 C-30.41134742 28.47256449 -32.0529966 23.8718659 -32.375 17.625 C-32.20066112 11.14177279 -29.45371517 6.32962991 -25.125 1.625 C-18.01449482 -4.90035138 -8.08063038 -4.5065054 0 0 Z " fill="#F8F8F8" transform="translate(449,11)"/>
<path d="M0 0 C4.69588905 -0.04613865 9.3909782 -0.08589464 14.08691406 -0.10986328 C15.68134235 -0.11986475 17.27575257 -0.13347031 18.87011719 -0.15087891 C21.17387376 -0.17538695 23.47738595 -0.18654176 25.78125 -0.1953125 C26.48366821 -0.20563507 27.18608643 -0.21595764 27.90979004 -0.22659302 C32.9020395 -0.22770188 37.19454554 0.63845457 42 2 C38.15290977 3.28236341 34.60987329 3.01501341 30.61328125 2.87890625 C29.79627243 2.85529526 28.97926361 2.83168427 28.13749695 2.80735779 C25.52898407 2.73080782 22.92077456 2.64674628 20.3125 2.5625 C18.54363462 2.50927063 16.77475445 2.45653028 15.00585938 2.40429688 C10.67032502 2.27612294 6.33528198 2.13779625 2 2 C2.33 10.25 2.66 18.5 3 27 C8.1233999 27.0691659 13.24515622 27.12880858 18.36865234 27.16479492 C20.10861728 27.17980854 21.84854484 27.20022577 23.58837891 27.22631836 C26.1006802 27.26303107 28.6124778 27.27980069 31.125 27.29296875 C32.27705933 27.31619453 32.27705933 27.31619453 33.45239258 27.33988953 C40.41687913 27.34202163 46.62290428 25.70495875 52 21 C50.59008837 24.40728644 49.2024372 26.14595741 46 28 C40.15816204 29.75207333 34.98084984 30.27469524 28.90625 30.1953125 C27.65805481 30.19106766 27.65805481 30.19106766 26.38464355 30.18673706 C23.75627569 30.17564286 21.1282629 30.15055925 18.5 30.125 C16.70573413 30.11495626 14.91146285 30.10583286 13.1171875 30.09765625 C8.74454857 30.07744997 4.37266643 30.0382821 0 30 C0 20.1 0 10.2 0 0 Z " fill="#CACBCF" transform="translate(34,82)"/>
<path d="M0 0 C5.47462761 2.15074656 8.3025785 6.99050293 11 12 C13.18680339 19.37657828 13.69561524 30.65637127 10.3125 37.75 C8.04876554 40.93146465 5.9044893 43.41823173 3 46 C4.09644386 48.69127129 5.20313713 50.19764694 7.3125 52.25 C14.31949327 59.4199466 16.37775355 65.88216782 16.28125 75.76171875 C15.58599968 83.76675371 12.56370148 90.28175126 7 96 C7 91.97968232 8.78982488 90.31526268 11 87 C14.0130095 79.5153863 14.60505496 70.57267456 11.9140625 62.90625 C10.70424647 60.52857687 9.38822852 58.27578446 8 56 C7.505 54.515 7.505 54.515 7 53 C5.25132517 51.91568906 5.25132517 51.91568906 3 51 C1 50 -1 49 -3 48 C-3 47.34 -3 46.68 -3 46 C-1.948125 45.7525 -1.948125 45.7525 -0.875 45.5 C4.16477938 42.87054989 6.92164701 38.20572202 9.375 33.1875 C11.26617841 23.54249012 10.07596287 15.09456351 5 6.6875 C4.34 5.800625 3.68 4.91375 3 4 C2.4225 3.21625 1.845 2.4325 1.25 1.625 C0.8375 1.08875 0.425 0.5525 0 0 Z " fill="#C7C6CB" transform="translate(94,26)"/>
<path d="M0 0 C5.2300934 -0.11548293 10.45567728 -0.21479785 15.68603516 -0.2746582 C17.46092809 -0.29963627 19.23571993 -0.33363126 21.01025391 -0.37719727 C41.20488752 -0.86018653 41.20488752 -0.86018653 48 5 C48.495 6.485 48.495 6.485 49 8 C46.72754966 6.86377483 44.51119248 5.71580958 42.3125 4.4375 C34.06252349 0.85732151 24.25838142 1.87884452 15.4375 1.9375 C14.14263672 1.94201172 12.84777344 1.94652344 11.51367188 1.95117188 C8.342399 1.96287399 5.17122454 1.97926887 2 2 C2.13847638 5.62532066 2.28702643 9.25015904 2.4375 12.875 C2.47681641 13.90753906 2.51613281 14.94007812 2.55664062 16.00390625 C2.59853516 16.99003906 2.64042969 17.97617187 2.68359375 18.9921875 C2.72025146 19.90339355 2.75690918 20.81459961 2.79467773 21.75341797 C2.86577065 24.03483481 2.86577065 24.03483481 4 26 C2.68 26 1.36 26 0 26 C0 17.42 0 8.84 0 0 Z " fill="#D9D2DF" transform="translate(34,38)"/>
<path d="M0 0 C1.85546875 0.03515625 1.85546875 0.03515625 4 1 C5.73828125 3.87109375 5.73828125 3.87109375 7.3125 7.4375 C8.11107422 9.19900391 8.11107422 9.19900391 8.92578125 10.99609375 C9.28027344 11.98738281 9.63476562 12.97867187 10 14 C9.67 14.66 9.34 15.32 9 16 C8.51080078 15.11248047 8.51080078 15.11248047 8.01171875 14.20703125 C7.57472656 13.41683594 7.13773437 12.62664063 6.6875 11.8125 C6.25824219 11.03519531 5.82898438 10.25789063 5.38671875 9.45703125 C3.96813038 6.94353242 2.49517348 4.46857087 1 2 C0.53851563 2.93457031 0.07703125 3.86914062 -0.3984375 4.83203125 C-5.76100599 15.64635856 -11.34077232 26.33829452 -17 37 C-17.33 36.34 -17.66 35.68 -18 35 C-16.88287655 32.39890516 -15.70203956 29.91798411 -14.4140625 27.40234375 C-14.03768646 26.65287979 -13.66131042 25.90341583 -13.27352905 25.13124084 C-12.47511589 23.54485447 -11.67288921 21.96038263 -10.8671875 20.37768555 C-9.6302003 17.9477156 -8.40392676 15.51258529 -7.1796875 13.07617188 C-6.40426388 11.53875062 -5.62824223 10.00163082 -4.8515625 8.46484375 C-4.48173248 7.73257065 -4.11190247 7.00029755 -3.73086548 6.24583435 C-1.11827588 1.11827588 -1.11827588 1.11827588 0 0 Z " fill="#C0BEC6" transform="translate(381,18)"/>
<path d="M0 0 C3.21746321 2.65790439 3.08233008 3.41165038 4 8 C-8.21 8 -20.42 8 -33 8 C-29.27459338 5.51639559 -27.36937027 5.7684133 -22.92578125 5.8046875 C-21.90003242 5.80893234 -21.90003242 5.80893234 -20.8535614 5.81326294 C-18.67302835 5.82444316 -16.49290855 5.84954309 -14.3125 5.875 C-12.83268823 5.88503262 -11.35287001 5.89415798 -9.87304688 5.90234375 C-6.248564 5.92437519 -2.62432234 5.95888998 1 6 C0.505 3.03 0.505 3.03 0 0 Z " fill="#D8D7D9" transform="translate(401,103)"/>
<path d="M0 0 C2.95353649 0 4.54789369 0.55744523 6.6640625 2.62890625 C8.16106692 4.38487115 9.60415514 6.1628571 11 8 C7.08597051 6.73058503 5.20927127 5.48832306 3 2 C0.22269525 3.33607533 -2.35396636 4.82198211 -4.9375 6.5 C-10.6551098 10.08008717 -15.32985935 11.32168061 -22 12 C-22 11.34 -22 10.68 -22 10 C-21.32195312 9.85304688 -20.64390625 9.70609375 -19.9453125 9.5546875 C-12.82764628 7.83934966 -5.32014187 5.32014187 0 0 Z " fill="#C3C6CC" transform="translate(204,102)"/>
<path d="M0 0 C4.57921772 1.52640591 5.8539065 4.83977344 8 9 C10.93934525 15.30855523 11.27079499 21.52307228 11.3125 28.375 C11.31805908 29.16052246 11.32361816 29.94604492 11.3293457 30.75537109 C11.28063996 34.62269059 11.19605062 37.72779709 9 41 C7.64901151 38.29802302 8.3784785 36.92703032 9 34 C9.75818318 23.95407288 9.10200145 13.61231395 2.8125 5.375 C2.28269531 4.76398437 1.75289063 4.15296875 1.20703125 3.5234375 C0 2 0 2 0 0 Z " fill="#C3C6C9" transform="translate(297,48)"/>
<path d="M0 0 C1.65 0 3.3 0 5 0 C4.34 0.66 3.68 1.32 3 2 C2.70590868 4.29456923 2.70590868 4.29456923 2.76953125 6.9375 C2.77146484 7.91460937 2.77339844 8.89171875 2.77539062 9.8984375 C2.78763672 10.92195313 2.79988281 11.94546875 2.8125 13 C2.8134668 14.53527344 2.8134668 14.53527344 2.81445312 16.1015625 C2.62719937 21.21554855 2.62719937 21.21554855 4 26 C2.68 26 1.36 26 0 26 C0 17.42 0 8.84 0 0 Z " fill="#C8C8CB" transform="translate(34,38)"/>
<path d="M0 0 C0.66 0 1.32 0 2 0 C0.92230285 3.42903639 -0.03782861 5.03606914 -2.6875 7.5625 C-3.8321875 8.7690625 -3.8321875 8.7690625 -5 10 C-4.95502158 12.27523089 -4.95502158 12.27523089 -4 14 C-6.31 13.34 -8.62 12.68 -11 12 C-11 11.34 -11 10.68 -11 10 C-10.29875 9.835 -9.5975 9.67 -8.875 9.5 C-5.18612574 7.57536995 -3.62605996 5.08138707 -1.33203125 1.6796875 C-0.89246094 1.12539063 -0.45289062 0.57109375 0 0 Z " fill="#BAB6B8" transform="translate(102,62)"/>
<path d="M0 0 C6.62599836 1.69897394 13.16976472 5.25464709 17 11 C13.02477041 9.67492347 10.04026876 7.7050626 6.71484375 5.23828125 C4.84084427 3.84680761 4.84084427 3.84680761 2.0625 2.25 C1.381875 1.8375 0.70125 1.425 0 1 C0 0.67 0 0.34 0 0 Z " fill="#DAD9DD" transform="translate(200,20)"/>
<path d="M0 0 C4.76338875 1.36566931 6.32230002 3.42583925 8.8125 7.625 C9.41707031 8.62789062 10.02164063 9.63078125 10.64453125 10.6640625 C11.09183594 11.43492188 11.53914063 12.20578125 12 13 C11.01 14.485 11.01 14.485 10 16 C9.18501438 14.3970947 8.37310073 12.79262722 7.5625 11.1875 C7.11003906 10.29417969 6.65757813 9.40085937 6.19140625 8.48046875 C5 6 5 6 4 3 C1.99983534 1.79117904 1.99983534 1.79117904 0 1 C0 0.67 0 0.34 0 0 Z " fill="#CAC9D8" transform="translate(97,76)"/>
<path d="M0 0 C0.33 0.66 0.66 1.32 1 2 C-0.98 4.64 -2.96 7.28 -5 10 C-5.33 9.01 -5.66 8.02 -6 7 C-4.78515625 5.17578125 -4.78515625 5.17578125 -3.0625 3.3125 C-2.49660156 2.68988281 -1.93070312 2.06726563 -1.34765625 1.42578125 C-0.90292969 0.95527344 -0.45820313 0.48476562 0 0 Z " fill="#E7E5E9" transform="translate(322,104)"/>
<path d="M0 0 C3.25543229 0.34879632 4.01873107 1.02133261 6.25 3.5625 C6.8275 4.366875 7.405 5.17125 8 6 C7.67 6.66 7.34 7.32 7 8 C5.62437146 6.71034824 4.29233607 5.37310707 3 4 C3 3.34 3 2.68 3 2 C2.01 1.67 1.02 1.34 0 1 C0 0.67 0 0.34 0 0 Z " fill="#E4E7E9" transform="translate(213,110)"/>
<path d="M0 0 C0.66 0 1.32 0 2 0 C0.82744291 3.33727786 -0.18868404 5.77437487 -3 8 C-3.66 8 -4.32 8 -5 8 C-5 6 -5 6 -3.0625 4 C-2.381875 3.34 -1.70125 2.68 -1 2 C-0.67 1.34 -0.34 0.68 0 0 Z " fill="#B9BCC9" transform="translate(102,62)"/>
</svg>
