<?xml version="1.0" encoding="UTF-8"?>
<svg version="1.1" xmlns="http://www.w3.org/2000/svg" width="1200" height="630">
<path d="M0 0 C33.845625 -0.061875 33.845625 -0.061875 68.375 -0.125 C79.01435791 -0.15231201 79.01435791 -0.15231201 89.86865234 -0.18017578 C98.6105957 -0.18920898 98.6105957 -0.18920898 102.71865845 -0.19088745 C105.5537334 -0.19273131 108.38873148 -0.20014732 111.2237854 -0.21115112 C150.40003196 -0.35648892 150.40003196 -0.35648892 166.5625 4.125 C167.337146 4.33600342 168.11179199 4.54700684 168.90991211 4.7644043 C181.6202714 8.42859384 193.24856757 13.9503752 203 23 C203.61875 23.52851562 204.2375 24.05703125 204.875 24.6015625 C214.28733692 33.13149283 219.50340718 45.02381568 223 57 C223.36931641 58.26457031 223.36931641 58.26457031 223.74609375 59.5546875 C227.50918644 75.80086697 226.43812099 94.58314095 218.3125 109.25 C211.20390625 120.07283398 202.62033694 127.36589724 191 133 C191.95519531 133.46148437 192.91039062 133.92296875 193.89453125 134.3984375 C211.7137238 143.26870292 222.64301668 155.71775476 230.02734375 174.0859375 C236.58720589 193.73917911 234.23658039 215.704617 225.4375 234.25 C215.90897526 252.87444679 199.07513163 263.64162279 179.5546875 270.1484375 C158.16477107 276.40087461 136.26463411 276.42691831 114.18687439 276.30384064 C110.55255444 276.28645604 106.9182976 276.28593535 103.28393555 276.28381348 C92.73091972 276.26821706 82.1779559 276.22633385 71.625 276.1875 C47.98875 276.125625 24.3525 276.06375 0 276 C0 184.92 0 93.84 0 0 Z M51 48 C51 68.79 51 89.58 51 111 C66.4765463 111.08740933 66.4765463 111.08740933 81.953125 111.14648438 C88.27514296 111.16434485 94.59702927 111.185362 100.91894531 111.22631836 C106.02181812 111.25916634 111.12454953 111.27690612 116.22751999 111.28463173 C118.16414995 111.29012994 120.10077311 111.30086511 122.03734207 111.31719017 C145.66008251 111.63104789 145.66008251 111.63104789 166.09765625 101.07421875 C172.19862773 94.42203014 174.07254803 87.98386415 174 79 C172.58107495 69.66569895 167.47764266 61.24966156 160.12890625 55.34765625 C151.60484686 49.95169205 143.11557592 47.84382658 133.19238281 47.88647461 C132.30422379 47.88632858 131.41606476 47.88618256 130.50099182 47.8860321 C127.56834462 47.8867282 124.6357611 47.89450643 121.703125 47.90234375 C119.6685998 47.90420901 117.63407415 47.9056324 115.59954834 47.90663147 C110.24675251 47.91044816 104.89398384 47.92027124 99.54119873 47.93133545 C93.11762554 47.94336707 86.69404327 47.94795585 80.27046204 47.95378876 C70.51362247 47.96348342 60.7568425 47.98264593 51 48 Z M51 157 C51 180.43 51 203.86 51 228 C65.3613204 228.05830914 65.3613204 228.05830914 79.72265625 228.09765625 C85.5923226 228.10954577 91.46192572 228.12350898 97.33154297 228.15087891 C102.07132148 228.17283849 106.81103203 228.18461659 111.55085754 228.18975449 C113.34626839 228.19340924 115.14167612 228.20054399 116.9370575 228.21146011 C147.13265069 228.57883215 147.13265069 228.57883215 173 215 C173.56203125 214.46503906 174.1240625 213.93007813 174.703125 213.37890625 C179.7808863 208.04232702 182.03198267 201.95047435 182.4375 194.625 C182.01317658 185.24092435 178.06933643 177.94587881 171.61328125 171.2890625 C160.32346751 161.3999282 146.07343171 156.82107669 131.26245117 156.88647461 C129.9592543 156.88625557 129.9592543 156.88625557 128.62973022 156.8860321 C125.76745071 156.88672694 122.90523685 156.89449927 120.04296875 156.90234375 C118.05471329 156.90420945 116.06645738 156.90563264 114.07820129 156.90663147 C108.85200729 156.91044466 103.6258412 156.92026472 98.3996582 156.93133545 C92.12540514 156.94337656 85.85114273 156.94795752 79.57688141 156.95378876 C70.05123488 156.9634771 60.52564955 156.98264206 51 157 Z " fill="#b2b2b2" transform="translate(51,103)"/>
<path d="M0 0 C130.90779207 0 130.90779207 0 147.5 4.125 C148.36181885 4.33600342 149.2236377 4.54700684 150.11157227 4.7644043 C170.44809257 10.03284628 188.58111137 19.81205182 204 34 C204.94746094 34.85335937 205.89492188 35.70671875 206.87109375 36.5859375 C232.889117 61.16466585 244.93867403 98.12894354 246.22265625 133.18359375 C247.02187445 167.74513411 238.26882134 202.89013055 216 230 C215.57783203 230.515625 215.15566406 231.03125 214.72070312 231.5625 C197.7288767 252.00379494 174.10135923 265.57133475 148.4375 271.8125 C147.63618652 272.0074707 146.83487305 272.20244141 146.00927734 272.40332031 C98.52177474 283.13271421 48.68452318 276 0 276 C0 184.92 0 93.84 0 0 Z M51 50 C51 108.08 51 166.16 51 226 C110.85716697 229.8546798 110.85716697 229.8546798 164 209 C165.08861328 208.18595703 165.08861328 208.18595703 166.19921875 207.35546875 C182.72772584 194.00926754 191.20876256 172.55005188 194 152 C196.04146607 123.53351091 191.07271714 97.42393642 172.8125 74.875 C159.66457655 60.58758985 141.80518972 53.13419829 123 50 C99.24 50 75.48 50 51 50 Z " fill="#b2b2b2" transform="translate(582,103)"/>
<path d="M0 0 C2.7331696 3.37007045 4.68141083 7.03431424 6.6328125 10.88671875 C7.15601578 11.90817741 7.15601578 11.90817741 7.68978882 12.95027161 C8.83828513 15.19428126 9.98158156 17.44089933 11.125 19.6875 C11.93383557 21.26974051 12.74308671 22.85176864 13.55273438 24.43359375 C15.22181053 27.6950708 16.88926889 30.95736725 18.55566406 34.22021484 C21.84181244 40.65075302 25.15117584 47.06927934 28.46185303 53.48721313 C30.21524893 56.88674358 31.96701629 60.28711282 33.71875 63.6875 C34.2434639 64.70599785 34.2434639 64.70599785 34.77877808 65.74507141 C38.85657559 73.66129433 42.92822802 81.58067666 47 89.5 C54.95577461 104.973165 62.92155375 120.44115789 70.89111328 135.90722656 C74.07341884 142.08304904 77.25492162 148.25928508 80.43649292 154.43548584 C82.20762982 157.87367378 83.97881745 161.31183558 85.75 164.75 C86.45833358 166.12499987 87.16666691 167.49999987 87.875 168.875 C88.225625 169.555625 88.57625 170.23625 88.9375 170.9375 C92.12499993 177.12499987 92.12499993 177.12499987 93.18751526 179.18753052 C93.89579676 180.56242929 94.60407923 181.93732757 95.31236267 183.31222534 C97.0839971 186.75126994 98.85561457 190.19032328 100.62719727 193.62939453 C104.50811543 201.16314792 108.38926738 208.69678066 112.27140808 216.22990417 C114.02090495 219.62491665 115.76978418 223.0202446 117.51733398 226.41625977 C120.93053237 233.04820392 124.34893211 239.67733779 127.78190613 246.29907227 C129.46912927 249.55470537 131.15323409 252.81194612 132.83694458 256.06939697 C133.64999414 257.64042762 134.46449458 259.21070829 135.28048706 260.7802124 C136.41072112 262.9544587 137.5359788 265.13121134 138.66015625 267.30859375 C138.99987457 267.95901138 139.3395929 268.60942902 139.68960571 269.27955627 C142 273.77218381 142 273.77218381 142 276 C75.67 276 9.34 276 -59 276 C-56.74981872 269.24945616 -56.74981872 269.24945616 -55.19995117 266.2487793 C-54.85586716 265.57755539 -54.51178314 264.90633148 -54.15727234 264.21476746 C-53.78955215 263.50838638 -53.42183197 262.80200531 -53.04296875 262.07421875 C-52.6581282 261.32719193 -52.27328766 260.5801651 -51.87678528 259.8105011 C-51.06431967 258.23533908 -50.2498011 256.66123448 -49.43334961 255.08813477 C-48.19788055 252.70750234 -46.96849525 250.32381116 -45.74023438 247.93945312 C-44.94566894 246.40085754 -44.15075797 244.86244034 -43.35546875 243.32421875 C-42.99382126 242.62391037 -42.63217377 241.92360199 -42.25956726 241.20207214 C-39.59716844 236.07608889 -36.80813858 231.05464945 -34 226 C-3.97 226 26.06 226 57 226 C46.58759259 205.14516624 46.58759259 205.14516624 36.17127132 184.29228878 C32.44678302 176.83776093 28.72289847 169.38293343 25.0012207 161.92700195 C22.0556181 156.02584796 19.10862291 150.12539193 16.15993398 144.22577947 C14.59782623 141.10025718 13.03643119 137.97438333 11.47670174 134.84767342 C9.73801862 131.36228948 7.99622762 127.87846422 6.25415039 124.39477539 C5.73410431 123.35108795 5.21405823 122.30740051 4.67825317 121.23208618 C3.96940224 119.8164463 3.96940224 119.8164463 3.24623108 118.37220764 C2.83418962 117.54720292 2.42214815 116.7221982 1.99762058 115.87219334 C1.13916749 114.04199657 1.13916749 114.04199657 0 113 C-0.648479 114.30481323 -0.648479 114.30481323 -1.31005859 115.63598633 C-15.73667928 144.64864205 -15.73667928 144.64864205 -21.0625 154.625 C-25.70813077 163.32733666 -30.09510413 172.15487205 -34.48803711 180.98632812 C-38.63196102 189.31329871 -42.84621576 197.59311339 -47.22265625 205.80078125 C-51.25821141 213.40727173 -55.07702823 221.12112931 -58.9102478 228.83074951 C-62.98882328 237.02971367 -67.12726611 245.18991683 -71.453125 253.26171875 C-75.46324034 260.76970841 -79.1864502 268.3729004 -83 276 C-102.47 276 -121.94 276 -142 276 C-131.65622049 254.16313215 -131.65622049 254.16313215 -128.0546875 247.1953125 C-127.64218246 246.3911792 -127.22967743 245.5870459 -126.80467224 244.75854492 C-125.4976733 242.21253118 -124.18646065 239.66871788 -122.875 237.125 C-121.94533213 235.31635887 -121.01589229 233.50760052 -120.08666992 231.69873047 C-113.65787474 219.19078406 -107.19976309 206.69797577 -100.73046875 194.2109375 C-96.51279144 186.06544205 -92.3182209 177.90810581 -88.125 169.75 C-86.59766527 166.77864119 -85.07032695 163.80728424 -83.54296875 160.8359375 C-83.16479004 160.10020508 -82.78661133 159.36447266 -82.39697266 158.60644531 C-78.41491818 150.86034448 -74.42678745 143.11737771 -70.4375 135.375 C-70.08882874 134.69828247 -69.74015747 134.02156494 -69.38092041 133.32434082 C-67.62364839 129.91378098 -65.86629128 126.50326499 -64.10888672 123.09277344 C-60.92658116 116.91695096 -57.74507838 110.74071492 -54.56350708 104.56451416 C-52.79237018 101.12632622 -51.02118255 97.68816442 -49.25 94.25 C-48.54166642 92.87500013 -47.83333309 91.50000013 -47.125 90.125 C-42.875 81.875 -42.875 81.875 -41.81259155 79.81269836 C-41.10393063 78.43704869 -40.39529214 77.06138747 -39.68667603 75.68571472 C-37.92103804 72.25805981 -36.1550167 68.8306035 -34.38818359 65.40356445 C-31.1382869 59.09894131 -27.8918347 52.79262861 -24.6587677 46.47935486 C-16.65954924 30.85972559 -8.60601449 15.29751605 0 0 Z " fill="#b2b2b2" transform="translate(959,103)"/>
<path d="M0 0 C0.69682892 0.00182281 1.39365784 0.00364563 2.11160278 0.00552368 C13.03809676 0.05347773 23.55625487 0.64484254 34.1875 3.3125 C34.87730957 3.47878906 35.56711914 3.64507812 36.27783203 3.81640625 C61.20323323 9.98069141 84.28243431 22.79841847 102.1875 41.3125 C100.80120756 44.43574544 99.19238429 46.55440707 96.7734375 48.95703125 C96.09410156 49.63443359 95.41476562 50.31183594 94.71484375 51.00976562 C93.64943359 52.05680664 93.64943359 52.05680664 92.5625 53.125 C91.87542969 53.81142578 91.18835938 54.49785156 90.48046875 55.20507812 C86.4239032 59.227395 82.25223693 63.0598901 77.92822266 66.79223633 C75.93229714 68.53538193 74.0416886 70.35718247 72.1875 72.25 C71.61 72.83652344 71.0325 73.42304688 70.4375 74.02734375 C70.025 74.45144531 69.6125 74.87554687 69.1875 75.3125 C65.62501436 73.7319606 62.85377379 71.54552065 59.8125 69.125 C38.41317193 52.75089626 11.49725056 48.13289813 -14.8125 51.3125 C-37.01957625 54.71264907 -58.05261714 64.56627465 -72.2890625 82.41796875 C-89.56987363 106.02120141 -95.36778388 134.95365894 -91.125 163.765625 C-87.13230741 185.96146637 -76.44643811 207.52491673 -58 221.125 C-40.11003569 232.73083128 -21.38626576 237.71704532 -0.1875 237.6875 C0.4729129 237.68695618 1.13332581 237.68641235 1.81375122 237.68585205 C12.51764838 237.64539464 22.0677223 236.77197672 32.1875 233.3125 C32.81575684 233.10351074 33.44401367 232.89452148 34.09130859 232.67919922 C47.35082362 228.1784485 60.20088411 221.23530365 70.1875 211.3125 C74.02584246 212.89434202 76.45416848 215.33538989 79.36328125 218.2578125 C79.85152878 218.74651825 80.33977631 219.235224 80.84281921 219.73873901 C81.87472198 220.77365667 82.90419944 221.81099751 83.93139648 222.85058594 C85.47924892 224.41650669 87.0347635 225.97446358 88.59179688 227.53125 C101.90987394 240.8960609 101.90987394 240.8960609 106.1875 247.3125 C87.09677657 266.01216578 64.18134858 278.05273498 38.1875 284.3125 C37.12837402 284.57716064 37.12837402 284.57716064 36.04785156 284.84716797 C13.16786374 290.28939044 -14.97230105 289.41314899 -37.8125 284.3125 C-38.6463623 284.12977539 -39.48022461 283.94705078 -40.33935547 283.75878906 C-60.44651361 279.14924293 -79.8278553 270.44274386 -95.8125 257.3125 C-96.328125 256.89033203 -96.84375 256.46816406 -97.375 256.03320312 C-124.56396581 233.43237529 -140.38502567 198.12448133 -143.8125 163.3125 C-143.93369552 160.60407277 -144.02136332 157.9195354 -144.05078125 155.2109375 C-144.06062042 154.46043121 -144.07045959 153.70992493 -144.08059692 152.93667603 C-144.2527854 136.39185983 -144.21952504 120.38986229 -139.8125 104.3125 C-139.58175781 103.45382324 -139.35101563 102.59514648 -139.11328125 101.71044922 C-132.69886041 78.67029078 -121.20856393 58.64234312 -104.8125 41.3125 C-103.67361328 40.07693359 -103.67361328 40.07693359 -102.51171875 38.81640625 C-76.26051361 11.27627123 -37.17613745 -0.20366664 0 0 Z " fill="#b2b2b2" transform="translate(453.8125,97.6875)"/>
<path d="M0 0 C10.00301571 7.81844906 17.69621286 18.04773932 19.94140625 30.84765625 C21.41148615 45.19843622 18.80464294 57.98035626 10.35546875 69.81640625 C3.17993324 78.53621286 -6.71834542 84.82388976 -17.8125 87.25 C-28.38328164 88.2646114 -39.29207143 88.39042309 -48.8125 83.25 C-49.74320313 82.75242187 -50.67390625 82.25484375 -51.6328125 81.7421875 C-63.55574561 74.75736293 -71.58994937 64.31584889 -75.1875 50.875 C-77.69970702 36.37747197 -75.17630873 22.99109337 -66.85546875 10.8203125 C-50.61348088 -9.6141579 -21.84794834 -15.1713584 0 0 Z " fill="#b2b2b2" transform="translate(1123.8125,87.75)"/>
<path d="M0 0 C7.239375 -0.0928125 7.239375 -0.0928125 14.625 -0.1875 C16.89238037 -0.22846802 16.89238037 -0.22846802 19.20556641 -0.27026367 C21.01033447 -0.28150269 21.01033447 -0.28150269 22.8515625 -0.29296875 C24.07697754 -0.3086792 25.30239258 -0.32438965 26.56494141 -0.34057617 C32.28562556 0.2266132 36.31900801 2.63734283 40 7 C41.52744622 11.58233867 41.77447996 15.41583644 39.625 19.8125 C38 22 38 22 36 24 C36.804375 24.78375 37.60875 25.5675 38.4375 26.375 C42.29694126 30.32857397 42.46854645 33.00586305 42.40625 38.38671875 C41.84366787 42.00563649 40.38414621 43.93277825 37.99609375 46.625 C33.19275756 49.93375605 27.64230444 50.24570937 21.97265625 50.1953125 C20.81258057 50.19031738 19.65250488 50.18532227 18.45727539 50.18017578 C17.00699951 50.16196777 15.55672363 50.14375977 14.0625 50.125 C9.421875 50.08375 4.78125 50.0425 0 50 C0 33.5 0 17 0 0 Z M9 9 C8.92773498 10.85287502 8.9161878 12.70833878 8.9375 14.5625 C8.94652344 15.57441406 8.95554687 16.58632813 8.96484375 17.62890625 C8.97644531 18.41136719 8.98804688 19.19382812 9 20 C11.91691525 20.05401695 14.83282724 20.09368066 17.75 20.125 C18.575 20.14175781 19.4 20.15851563 20.25 20.17578125 C21.04921875 20.18222656 21.8484375 20.18867188 22.671875 20.1953125 C23.77160645 20.21102295 23.77160645 20.21102295 24.89355469 20.22705078 C27.33664926 19.96371305 28.91762982 19.28965619 31 18 C32.12766375 15.58357767 32.12682882 14.43121798 31.375 11.875 C29.50231333 9.32133635 28.02851992 8.93467798 25 8 C22.37218973 7.83782343 19.87052446 7.76453279 17.25 7.8125 C16.22326172 7.8134668 16.22326172 7.8134668 15.17578125 7.81445312 C11.80182391 7.55936409 11.80182391 7.55936409 9 9 Z M9 28 C9 32.29 9 36.58 9 41 C12.08356805 41.05399244 15.16618888 41.09366955 18.25 41.125 C19.12269531 41.14175781 19.99539063 41.15851563 20.89453125 41.17578125 C22.16103516 41.18544922 22.16103516 41.18544922 23.453125 41.1953125 C24.61569824 41.21102295 24.61569824 41.21102295 25.80175781 41.22705078 C28.32153717 40.96678925 29.88486737 40.38860025 32 39 C33.17110449 36.1403994 33.17110449 36.1403994 33 33 C30.81567858 30.11357527 29.44696406 29.14898802 26 28 C24.66474283 27.92026524 23.32587917 27.89228662 21.98828125 27.90234375 C21.23095703 27.90556641 20.47363281 27.90878906 19.69335938 27.91210938 C18.90767578 27.92048828 18.12199219 27.92886719 17.3125 27.9375 C16.51521484 27.94201172 15.71792969 27.94652344 14.89648438 27.95117188 C12.93095743 27.9629415 10.96546915 27.98087652 9 28 Z " fill="#b2b2b2" transform="translate(367,405)"/>
<path d="M0 0 C4.269375 -0.0825 8.53875 -0.165 12.9375 -0.25 C14.26515381 -0.28641602 15.59280762 -0.32283203 16.96069336 -0.36035156 C24.92138667 -0.43441008 31.67036518 0.19626666 37.83911133 5.61572266 C42.89005878 10.78469415 45.04275971 17.24420767 45.4375 24.375 C45.15446966 30.85073407 43.39108448 37.20956947 39.12890625 42.18359375 C33.55789689 47.2491051 28.99726911 49.26481524 21.38671875 49.1953125 C20.26225342 49.19031738 19.13778809 49.18532227 17.97924805 49.18017578 C16.56297119 49.16196777 15.14669434 49.14375977 13.6875 49.125 C9.170625 49.08375 4.65375 49.0425 0 49 C0 32.83 0 16.66 0 0 Z M10 9 C10 19.23 10 29.46 10 40 C13.774375 40.12375 13.774375 40.12375 17.625 40.25 C18.40568848 40.28641602 19.18637695 40.32283203 19.99072266 40.36035156 C25.10508486 40.44085181 28.00483692 39.4445101 32 36 C36.0619603 30.76153112 35.75827647 25.36109708 35 19 C33.79072289 15.28764929 31.97732812 12.76892727 28.875 10.328125 C25.11337539 8.59041798 21.73373266 8.67257621 17.6875 8.8125 C15.150625 8.874375 12.61375 8.93625 10 9 Z " fill="#b2b2b2" transform="translate(321,478)"/>
<path d="M0 0 C3.63 0 7.26 0 11 0 C15.75497351 9.27744832 20.07396678 18.69898194 24.28857422 28.23120117 C25.3906137 30.722801 26.4977515 33.2120918 27.60546875 35.70117188 C28.30758812 37.28372268 29.00942209 38.86640013 29.7109375 40.44921875 C30.04209564 41.19386887 30.37325378 41.93851898 30.71444702 42.70573425 C33 47.88442179 33 47.88442179 33 49 C29.37 49 25.74 49 22 49 C21.01 46.03 20.02 43.06 19 40 C10.42 40.33 1.84 40.66 -7 41 C-8.32 43.64 -9.64 46.28 -11 49 C-14.3 49 -17.6 49 -21 49 C-18.96449828 42.57817508 -16.56577585 36.4959404 -13.76953125 30.37109375 C-13.37424728 29.49598648 -12.97896332 28.62087921 -12.57170105 27.71925354 C-11.32276427 24.95677696 -10.067747 22.1971141 -8.8125 19.4375 C-7.95857891 17.55161583 -7.10505944 15.66554976 -6.25195312 13.77929688 C-4.17260311 9.18408313 -2.08779966 4.5913805 0 0 Z M5 11 C3.66065284 13.95564708 2.32955753 16.9149378 1 19.875 C0.6184375 20.71675781 0.236875 21.55851562 -0.15625 22.42578125 C-0.5171875 23.23144531 -0.878125 24.03710938 -1.25 24.8671875 C-1.58515625 25.61081543 -1.9203125 26.35444336 -2.265625 27.12060547 C-3.12131741 28.97417611 -3.12131741 28.97417611 -3 31 C2.94 31 8.88 31 15 31 C13.71638192 27.85065798 12.4236022 24.70565654 11.125 21.5625 C10.57779297 20.21575195 10.57779297 20.21575195 10.01953125 18.84179688 C9.66503906 17.98779297 9.31054688 17.13378906 8.9453125 16.25390625 C8.62062988 15.46314697 8.29594727 14.6723877 7.96142578 13.85766602 C7.14051805 11.82492892 7.14051805 11.82492892 5 11 Z " fill="#b2b2b2" transform="translate(802,478)"/>
<path d="M0 0 C2.64 0 5.28 0 8 0 C8.33 0.99 8.66 1.98 9 3 C9.474375 2.505 9.94875 2.01 10.4375 1.5 C14.21479431 -0.71109911 17.72255891 -0.72305499 22 0 C25.0625 2 25.0625 2 27 4 C27.5775 3.71125 28.155 3.4225 28.75 3.125 C29.86375 2.568125 29.86375 2.568125 31 2 C31.90878906 1.48179687 31.90878906 1.48179687 32.8359375 0.953125 C36.76366368 -0.77677606 40.80009726 -0.53742831 45 0 C49.54308721 2.23024281 51.77445433 4.50770226 54 9 C54.34057617 11.9543457 54.34057617 11.9543457 54.29296875 15.17578125 C54.2784668 16.91118164 54.2784668 16.91118164 54.26367188 18.68164062 C54.23853516 19.87982422 54.21339844 21.07800781 54.1875 22.3125 C54.16719727 24.1387793 54.16719727 24.1387793 54.14648438 26.00195312 C54.11119261 29.00175345 54.06188481 32.00064975 54 35 C51.36 35 48.72 35 46 35 C45.98541748 34.39003174 45.97083496 33.78006348 45.95581055 33.15161133 C45.88105225 30.37128936 45.78448518 27.59213176 45.6875 24.8125 C45.65366211 23.37293945 45.65366211 23.37293945 45.61914062 21.90429688 C45.35930525 14.98046314 45.35930525 14.98046314 42 9 C36.98464948 9.32960216 36.98464948 9.32960216 33 12 C32.62904292 14.42246595 32.62904292 14.42246595 32.5859375 17.2265625 C32.54726563 18.2578125 32.50859375 19.2890625 32.46875 20.3515625 C32.4378125 21.43179688 32.406875 22.51203125 32.375 23.625 C32.33632813 24.71296875 32.29765625 25.8009375 32.2578125 26.921875 C32.16333753 29.61441165 32.07777569 32.30693757 32 35 C29.03 35 26.06 35 23 35 C22.96261719 33.54207031 22.92523437 32.08414063 22.88671875 30.58203125 C22.82104843 28.6588289 22.75460145 26.73565295 22.6875 24.8125 C22.66494141 23.85279297 22.64238281 22.89308594 22.61914062 21.90429688 C22.4390516 14.91990528 22.4390516 14.91990528 19 9 C16 8.33333333 16 8.33333333 13 9 C10.44050454 10.85342775 10.02081202 11.93756393 9 15 C8.8535286 16.55266653 8.75305926 18.10995662 8.68359375 19.66796875 C8.64169922 20.56064453 8.59980469 21.45332031 8.55664062 22.37304688 C8.49766602 23.76620117 8.49766602 23.76620117 8.4375 25.1875 C8.39431641 26.12787109 8.35113281 27.06824219 8.30664062 28.03710938 C8.20061335 30.35792854 8.09854971 32.67885325 8 35 C5.36 35 2.72 35 0 35 C0 23.45 0 11.9 0 0 Z " fill="#b2b2b2" transform="translate(597,492)"/>
<path d="M0 0 C2.64 0 5.28 0 8 0 C8.66 0.99 9.32 1.98 10 3 C10.598125 2.505 11.19625 2.01 11.8125 1.5 C16.98587633 -0.93453004 22.59903018 -1.00886978 28.09375 0.62109375 C32.97199188 3.02812099 36.14145014 6.92599441 38 12 C38.83734013 17.53085188 38.96290065 22.94903154 36.3125 28 C33.29504242 31.91453957 30.7153415 34.4282195 26 36 C24.21217914 36.14391128 22.41836132 36.22052009 20.625 36.25 C19.22121094 36.28867187 19.22121094 36.28867187 17.7890625 36.328125 C15 36 15 36 10 33 C9.67 38.61 9.34 44.22 9 50 C6.03 50 3.06 50 0 50 C0 33.5 0 17 0 0 Z M11 12 C9.39174832 15.21650336 9.53890923 18.51174812 10 22 C11.53547827 25.00697829 12.61886352 26.53577667 15.87109375 27.62890625 C19.48253269 28.27746334 21.48882843 28.23336093 24.875 26.6875 C28.21357345 24.0617299 28.21357345 24.0617299 29.75 20.1875 C30.02823059 16.64005999 29.77309244 15.06261422 28 12 C25.16644979 9.00453264 23.60872798 8.08696114 19.5 7.5 C15.46238667 8.0768019 13.85349783 9.14650217 11 12 Z " fill="#b2b2b2" transform="translate(552,492)"/>
<path d="M0 0 C2.97 0 5.94 0 9 0 C9 16.5 9 33 9 50 C6.36 50 3.72 50 1 50 C1 48.68 1 47.36 1 46 C0.195625 46.639375 -0.60875 47.27875 -1.4375 47.9375 C-5.99599031 50.94074067 -10.79879073 51.55394332 -16.14453125 50.62890625 C-21.57125761 48.95834613 -24.9135313 45.6991219 -28 41 C-29.95946946 35.12159161 -29.79330377 28.42398374 -27.875 22.5625 C-24.93584347 18.54565274 -21.81397832 15.60465944 -17 14 C-15.40006557 13.85680449 -13.79355688 13.77960474 -12.1875 13.75 C-11.35605469 13.72421875 -10.52460937 13.6984375 -9.66796875 13.671875 C-7 14 -7 14 -1 17 C-0.67 11.39 -0.34 5.78 0 0 Z M-19 26 C-20.74034499 29.48068998 -20.58371457 33.20257598 -20 37 C-17.76418211 40.06626454 -16.10526016 41.5346273 -12.625 43 C-8.79297707 43 -6.32991798 41.84995443 -3 40 C-0.89811058 37.70105845 -0.09824957 36.18139115 0.16015625 33.07421875 C-0.03717254 28.88295523 -0.78833098 27.24190745 -3.625 24 C-9.74634315 20.37253739 -14.00843146 21.00843146 -19 26 Z " fill="#b2b2b2" transform="translate(1092,405)"/>
<path d="M0 0 C2.5 1.6875 2.5 1.6875 4 3 C2.70700306 5.88437779 1.34058637 7.87219421 -1 10 C-1.763125 9.690625 -2.52625 9.38125 -3.3125 9.0625 C-9.73597901 6.52298504 -15.76686724 5.86241625 -22.375 8.1875 C-26.25350945 10.86551843 -28.50791589 13.52374767 -30 18 C-30.53476918 23.97501722 -30.51280722 28.9124861 -27 34 C-22.07813439 38.55272569 -18.1591032 39.32944539 -11.65234375 39.30078125 C-7.47458193 38.82701445 -4.59414103 37.12986135 -1 35 C0.98 37.31 2.96 39.62 5 42 C-1.72182586 48.09165469 -8.20504699 49.53423481 -17.03125 49.2890625 C-23.5765835 48.65175371 -29.33845643 46.7910309 -34 42 C-40.13848918 33.54213849 -40.78148134 26.42358193 -40 16 C-38.33832972 8.42143623 -33.3179445 3.26307906 -27 -1 C-18.22095703 -4.65398005 -8.46428069 -4.15519234 0 0 Z " fill="#b2b2b2" transform="translate(625,407)"/>
<path d="M0 0 C0.8971875 0.7425 0.8971875 0.7425 1.8125 1.5 C2.1425 0.84 2.4725 0.18 2.8125 -0.5 C5.7825 -0.5 8.7525 -0.5 11.8125 -0.5 C11.8125 11.05 11.8125 22.6 11.8125 34.5 C9.1725 34.5 6.5325 34.5 3.8125 34.5 C3.1525 33.51 2.4925 32.52 1.8125 31.5 C1.214375 31.974375 0.61625 32.44875 0 32.9375 C-4.08066646 35.85226176 -8.32570707 36.12397342 -13.1875 35.5 C-18.3558863 33.78031993 -22.50527892 31.34863042 -25.1875 26.5 C-27.13093022 20.0623874 -28.19682233 13.72890299 -25.1875 7.5 C-19.43541221 -1.24040967 -9.85183127 -4.63615589 0 0 Z M-15.1875 8.5 C-17.86059907 12.5096486 -18.1875 14.67156286 -18.1875 19.5 C-16.51177902 23.68930246 -14.2944779 25.68528883 -10.1875 27.5 C-6.07330483 28.20028854 -4.50781909 27.68735645 -0.875 25.5625 C2.21921193 22.68872005 2.84451518 19.85920665 3.05859375 15.72265625 C2.66987122 12.21181308 1.09457443 10.10808506 -1.1875 7.5 C-5.87185269 5.15782365 -10.93859717 5.66739811 -15.1875 8.5 Z " fill="#b2b2b2" transform="translate(440.1875,420.5)"/>
<path d="M0 0 C0.8971875 0.7425 0.8971875 0.7425 1.8125 1.5 C2.1425 0.84 2.4725 0.18 2.8125 -0.5 C5.7825 -0.5 8.7525 -0.5 11.8125 -0.5 C11.8125 11.05 11.8125 22.6 11.8125 34.5 C9.1725 34.5 6.5325 34.5 3.8125 34.5 C3.1525 33.51 2.4925 32.52 1.8125 31.5 C1.214375 31.974375 0.61625 32.44875 0 32.9375 C-4.0918758 35.86026843 -8.31592818 36.10024724 -13.1875 35.5 C-18.7238953 33.90218003 -22.53919044 31.03057093 -25.34375 25.98046875 C-27.44291529 19.80931153 -27.03499045 13.13663696 -25.0625 7 C-18.97674922 -1.11433438 -9.54703625 -4.49272294 0 0 Z M-15.1875 8.625 C-17.44907198 11.87600973 -18.1875 13.54509656 -18.1875 17.5 C-16.99193782 21.41878714 -16.03360054 23.79110496 -12.875 26.4375 C-9.67320015 27.70332785 -7.60538751 27.92723594 -4.1875 27.5 C-1.44710663 26.25436665 0.2768868 25.18864555 2.125 22.8125 C3.15508338 19.34767407 3.4039722 16.04883321 2.8125 12.5 C1.01886089 9.6899654 -0.20630935 7.99059532 -3.1875 6.5 C-7.96872289 5.84246444 -11.17553489 5.78319138 -15.1875 8.625 Z " fill="#b2b2b2" transform="translate(1003.1875,420.5)"/>
<path d="M0 0 C2.97524372 2.87264911 4.51450317 6.44643241 5.47265625 10.421875 C5.47265625 13.061875 5.47265625 15.701875 5.47265625 18.421875 C-7.89234375 18.916875 -7.89234375 18.916875 -21.52734375 19.421875 C-17.37982626 24.48137764 -17.37982626 24.48137764 -14.02734375 24.9453125 C-12.78984375 24.87183594 -12.78984375 24.87183594 -11.52734375 24.796875 C-10.22410156 24.73693359 -10.22410156 24.73693359 -8.89453125 24.67578125 C-6.42339095 24.46161528 -6.42339095 24.46161528 -3.65234375 23.734375 C-1.52734375 23.421875 -1.52734375 23.421875 0.78515625 24.859375 C1.34203125 25.375 1.89890625 25.890625 2.47265625 26.421875 C2.41015625 28.234375 2.41015625 28.234375 1.47265625 30.421875 C-4.69076788 34.34405399 -11.4155535 34.08258326 -18.52734375 33.421875 C-23.75871404 31.74036312 -26.3808399 28.87942212 -29.52734375 24.421875 C-32.17681686 19.12292878 -31.74665811 14.07913502 -30.52734375 8.421875 C-29.05665849 4.20964058 -26.85918416 1.34926838 -23.02734375 -0.953125 C-15.59284666 -4.40485579 -7.10188246 -4.63385238 0 0 Z M-20.52734375 7.421875 C-20.85734375 8.741875 -21.18734375 10.061875 -21.52734375 11.421875 C-15.58734375 11.421875 -9.64734375 11.421875 -3.52734375 11.421875 C-4.15628255 7.53930278 -4.15628255 7.53930278 -6.15234375 5.671875 C-11.2556599 2.98591913 -16.15852579 3.82402491 -20.52734375 7.421875 Z " fill="#b2b2b2" transform="translate(483.52734375,494.578125)"/>
<path d="M0 0 C4.86047148 2.26263327 8.66032735 5.76245776 10.75 10.8125 C11.13570138 14.1873871 11 17.60314433 11 21 C2.09 21 -6.82 21 -16 21 C-14.5933531 25.88572856 -14.5933531 25.88572856 -11.9375 27.375 C-7.21466194 28.37985916 -2.46500155 27.76608823 2.13671875 26.3359375 C2.75160156 26.22507812 3.36648438 26.11421875 4 26 C6.25 27.9375 6.25 27.9375 8 30 C7.02797994 32.48919424 6.4673666 33.7448997 4.08203125 35.046875 C-3.89633816 37.51865898 -10.4518734 37.95680742 -18 34 C-22.27448977 30.58040818 -24.30022701 27.1887807 -26 22 C-26.59759011 16.52209065 -25.77419875 11.75852147 -23 7 C-16.07467863 -0.40624646 -9.97087956 -0.81765755 0 0 Z M-15 10 C-15.33 11.32 -15.66 12.64 -16 14 C-10.06 14 -4.12 14 2 14 C1.42720828 9.96100173 1.42720828 9.96100173 -1.25 8.25 C-6.59463541 5.82062027 -10.1076868 6.88670978 -15 10 Z " fill="#b2b2b2" transform="translate(780,419)"/>
<path d="M0 0 C4.62432359 2.3574983 6.83299523 5.64582817 8.73046875 10.3515625 C8.73046875 13.6515625 8.73046875 16.9515625 8.73046875 20.3515625 C-0.17953125 20.3515625 -9.08953125 20.3515625 -18.26953125 20.3515625 C-15.62830767 25.32670471 -15.62830767 25.32670471 -11.26953125 27.3515625 C-8.80458947 27.41634546 -8.80458947 27.41634546 -6.26953125 27.0390625 C-5.42390625 26.93980469 -4.57828125 26.84054687 -3.70703125 26.73828125 C-1.28904096 26.41252095 -1.28904096 26.41252095 0.90234375 25.6875 C1.505625 25.57664062 2.10890625 25.46578125 2.73046875 25.3515625 C4.98046875 27.2890625 4.98046875 27.2890625 6.73046875 29.3515625 C5.73046875 32.3515625 5.73046875 32.3515625 3.7265625 33.51953125 C-4.07039694 36.62641127 -10.37349804 37.77110578 -18.375 34.47265625 C-22.7062325 31.90963825 -25.69337124 28.08004254 -27.26953125 23.3515625 C-28.215522 10.74441653 -28.215522 10.74441653 -24.26953125 5.3515625 C-17.63896798 -1.27900077 -9.02468173 -2.57848049 0 0 Z M-16.26953125 9.3515625 C-16.92953125 10.6715625 -17.58953125 11.9915625 -18.26953125 13.3515625 C-11.99953125 13.3515625 -5.72953125 13.3515625 0.73046875 13.3515625 C-1.91953938 8.37927548 -1.91953938 8.37927548 -6.26953125 6.3515625 C-10.50304626 5.80880416 -12.8866482 6.79154289 -16.26953125 9.3515625 Z " fill="#b2b2b2" transform="translate(520.26953125,419.6484375)"/>
<path d="M0 0 C2.97 0 5.94 0 9 0 C9.33 5.61 9.66 11.22 10 17 C11.65 16.01 13.3 15.02 15 14 C19.91071079 13.13615072 23.93163275 13.49495366 28.4375 15.625 C32.06382266 18.98598198 33.81507837 21.79728499 34.23754883 26.82958984 C34.29517359 30.1829954 34.26129727 33.5219547 34.1875 36.875 C34.16719727 38.62296875 34.16719727 38.62296875 34.14648438 40.40625 C34.11125821 43.27131118 34.06199715 46.13541377 34 49 C31.36 49 28.72 49 26 49 C25.98018066 48.42032471 25.96036133 47.84064941 25.93994141 47.2434082 C25.84427399 44.59934063 25.73476547 41.9560183 25.625 39.3125 C25.5940625 38.40048828 25.563125 37.48847656 25.53125 36.54882812 C25.30319692 30.03173428 25.30319692 30.03173428 23 24 C20.11138291 22.55569145 18.20352299 22.62311494 15 23 C12.01046604 25.08561882 10.26260274 26.73462606 9.50610352 30.37988281 C9.28370739 33.19944786 9.20459427 35.98434718 9.1875 38.8125 C9.16236328 39.79154297 9.13722656 40.77058594 9.11132812 41.77929688 C9.0526337 44.18576829 9.02341097 46.59292674 9 49 C6.03 49 3.06 49 0 49 C0 32.83 0 16.66 0 0 Z " fill="#b2b2b2" transform="translate(907,478)"/>
<path d="M0 0 C6.06336633 6.06336633 6 10.29487474 6 19 C-2.91 19 -11.82 19 -21 19 C-18.67748574 23.88495525 -18.67748574 23.88495525 -16 25 C-10.71089889 25.40253336 -5.78709845 25.55311917 -1 23 C1.475 25.97 1.475 25.97 4 29 C-3.39330446 34.09316529 -9.08893953 34.91638565 -18 34 C-23.04055171 32.23817707 -26.97705915 29.02399346 -29.37890625 24.15625 C-31.05442613 18.3393508 -30.74192677 12.26699848 -28.875 6.5625 C-21.67228554 -3.28120976 -10.69143788 -5.84651614 0 0 Z M-20 8 C-20.33 9.32 -20.66 10.64 -21 12 C-15.06 12 -9.12 12 -3 12 C-3.40715322 7.19260338 -3.40715322 7.19260338 -5.625 5.6875 C-11.06212995 4.11359396 -15.56271963 4.3457691 -20 8 Z " fill="#b2b2b2" transform="translate(689,494)"/>
<path d="M0 0 C4.87411272 3.87061892 6.85078099 6.42258987 8.125 12.6875 C8.125 14.9975 8.125 17.3075 8.125 19.6875 C-5.24 20.1825 -5.24 20.1825 -18.875 20.6875 C-18.545 22.0075 -18.215 23.3275 -17.875 24.6875 C-14.82083187 25.70555604 -12.69563039 25.82125515 -9.5 25.8125 C-8.56414062 25.81507813 -7.62828125 25.81765625 -6.6640625 25.8203125 C-3.8662141 25.76955161 -3.8662141 25.76955161 -1.16796875 25.06640625 C-0.41128906 24.94136719 0.34539062 24.81632813 1.125 24.6875 C3.4375 26.5 3.4375 26.5 5.125 28.6875 C5.125 29.3475 5.125 30.0075 5.125 30.6875 C-1.80922224 35.03838454 -7.7714811 35.54439952 -15.875 34.6875 C-21.10637029 33.00598812 -23.72849615 30.14504712 -26.875 25.6875 C-29.43482108 19.95837662 -29.64050217 15.02429609 -27.6875 9.0625 C-24.66601798 3.4362921 -21.15320605 0.13440202 -15.125 -1.875 C-9.88354837 -2.89417115 -4.82879806 -2.20445129 0 0 Z M-17.875 8.6875 C-18.205 10.0075 -18.535 11.3275 -18.875 12.6875 C-12.935 12.6875 -6.995 12.6875 -0.875 12.6875 C-1.5039388 8.80492778 -1.5039388 8.80492778 -3.5 6.9375 C-8.60331615 4.25154413 -13.50618204 5.08964991 -17.875 8.6875 Z " fill="#b2b2b2" transform="translate(399.875,493.3125)"/>
<path d="M0 0 C4.59960955 3.28543539 8.20796622 7.33568615 9.625 12.875 C10.44323747 19.4208998 9.40266226 24.43072203 5.625 29.875 C1.6131934 33.9952338 -2.7878498 35.81775824 -8.578125 35.91015625 C-14.12683981 35.52325607 -17.90716887 34.20397222 -22.375 30.875 C-26.11302485 25.85817718 -27.62711141 21.15677608 -27.375 14.875 C-26.55462521 10.03163348 -25.2098376 6.20239118 -21.4375 2.9375 C-14.53598925 -1.71045622 -8.06103669 -2.68701223 0 0 Z M-15.25 9.25 C-17.99822376 12.64486465 -18.56248765 13.99070627 -18.1875 18.25 C-17.78980752 21.34205902 -17.46404485 22.7430817 -15.6875 25.375 C-12.75720033 27.27573492 -10.87583768 27.80498325 -7.375 27.875 C-4.24169978 26.7301403 -2.12155779 25.79123001 0 23.1875 C0.9390585 19.71298354 1.21477379 16.41364272 0.625 12.875 C-1.16863911 10.0649654 -2.39380935 8.36559532 -5.375 6.875 C-9.89144545 6.36370429 -11.67944962 6.3004149 -15.25 9.25 Z " fill="#b2b2b2" transform="translate(906.375,420.125)"/>
<path d="M0 0 C4.36775158 3.14884416 7.96773395 6.77820184 9.6875 11.9375 C10.43096395 18.79930658 9.73315508 24.24459122 5.6875 29.9375 C1.79187026 33.83312974 -2.12665148 35.89072572 -7.70703125 35.97265625 C-14.60343897 35.54873913 -18.5117675 33.58263625 -23.5625 28.8125 C-26.46021267 24.05197204 -27.82601794 19.03327956 -26.90234375 13.46484375 C-25.15175368 7.73477023 -22.70991188 3.63323035 -17.75 0.125 C-11.82307042 -1.92248476 -5.96877817 -1.91451375 0 0 Z M-15.1875 8.9375 C-18.02488974 12.9432267 -18.3125 15.0284709 -18.3125 19.9375 C-17.01258594 23.18728516 -15.70631123 24.6181936 -13 26.8125 C-9.51830295 28.26995458 -7.88536725 28.12845575 -4.3125 26.9375 C-1.35072423 24.87713425 0.38363631 23.39604572 1.13671875 19.78125 C1.33512146 15.67636637 1.0244818 13.47667088 -1.1875 9.9375 C-3.91512983 7.37031899 -4.8543575 6.98936519 -8.625 6.5625 C-12.3860934 6.6437784 -12.3860934 6.6437784 -15.1875 8.9375 Z " fill="#b2b2b2" transform="translate(659.3125,420.0625)"/>
<path d="M0 0 C4.86648673 2.55359734 8.09018282 6.08695471 9.81640625 11.265625 C10.47555379 18.65672195 10.61096897 24.39228567 5.81640625 30.265625 C1.70521252 34.05759663 -2.09201366 35.59546563 -7.68359375 35.828125 C-12.86798863 35.56207422 -17.03953756 34.4616306 -21.18359375 31.265625 C-26.0349793 25.17029444 -26.96053879 19.85491426 -26.18359375 12.265625 C-24.89412828 7.51842092 -22.6313211 4.20174722 -18.68359375 1.265625 C-12.97623955 -1.88142077 -6.14274173 -2.06589525 0 0 Z M-16.18359375 11.265625 C-17.77236512 14.44316775 -17.45867768 17.79956743 -17.18359375 21.265625 C-16.01346149 24.6860116 -15.31048652 25.18102982 -12.18359375 27.265625 C-6.30090659 27.9314487 -6.30090659 27.9314487 -1.24609375 25.203125 C1.23647721 21.66734212 1.81640625 19.57849178 1.81640625 15.265625 C0.30123997 11.25043437 -0.58911905 9.66194147 -4.18359375 7.265625 C-11.21176189 6.59555927 -11.21176189 6.59555927 -16.18359375 11.265625 Z " fill="#b2b2b2" transform="translate(973.18359375,492.734375)"/>
<path d="M0 0 C4.59520623 2.58051693 8.08406917 5.95598649 9.59375 11.11328125 C10.44286614 16.98431286 10.50310055 22.34857912 7.53125 27.61328125 C4.02840044 32.28374734 0.50627728 34.69204797 -5.2421875 35.5234375 C-11.22149549 35.81713147 -15.90151552 35.34805252 -20.78125 31.71875 C-25.03204944 27.5190419 -26.6154384 23.02947969 -26.90625 17.11328125 C-26.6154384 11.19708281 -25.03204944 6.7075206 -20.78125 2.5078125 C-14.69574504 -2.01828181 -7.07280837 -2.60637581 0 0 Z M-15.40625 8.98828125 C-18.21614899 13.37874842 -18.4214366 17.03734826 -17.40625 22.11328125 C-15.40930216 25.23351225 -14.11925264 26.69884513 -10.46875 27.58203125 C-6.48273854 27.88400182 -4.77110921 27.37722196 -1.46875 24.98828125 C0.86379844 21.73685009 1.59375 20.10615443 1.59375 16.11328125 C0.1437957 11.76341834 -0.55509675 9.68071675 -4.40625 7.11328125 C-9.19462042 6.57265878 -11.30091366 6.42244604 -15.40625 8.98828125 Z " fill="#b2b2b2" transform="translate(536.40625,492.88671875)"/>
<path d="M0 0 C3.3 0 6.6 0 10 0 C10.23710693 0.6612085 10.47421387 1.32241699 10.71850586 2.00366211 C11.78859637 4.98266193 12.86298824 7.96009221 13.9375 10.9375 C14.31068359 11.97841797 14.68386719 13.01933594 15.06835938 14.09179688 C15.42607422 15.08115234 15.78378906 16.07050781 16.15234375 17.08984375 C16.48226318 18.00628662 16.81218262 18.92272949 17.15209961 19.86694336 C17.81655068 21.9485164 17.81655068 21.9485164 19 23 C19.23187012 22.40985107 19.46374023 21.81970215 19.70263672 21.21166992 C20.75646216 18.53550102 21.81566624 15.861493 22.875 13.1875 C23.23980469 12.25873047 23.60460938 11.32996094 23.98046875 10.37304688 C24.33496094 9.48037109 24.68945312 8.58769531 25.0546875 7.66796875 C25.37937012 6.84578857 25.70405273 6.0236084 26.03857422 5.17651367 C27 3 27 3 29 0 C32.00798865 -0.40721868 34.97321367 -0.12971941 38 0 C36.02105895 6.28570753 33.68323778 12.31330127 31.0234375 18.33984375 C30.65272125 19.18801163 30.282005 20.0361795 29.90005493 20.91004944 C28.72869303 23.58748557 27.55188072 26.26248585 26.375 28.9375 C25.57777727 30.75831133 24.78089913 32.57927358 23.984375 34.40039062 C22.53376394 37.71305008 21.08248876 41.02540899 19.62646484 44.33569336 C19.19036392 45.32755898 19.19036392 45.32755898 18.74545288 46.33946228 C18.19182922 47.57268974 17.604541 48.79091799 17 50 C13.7 50 10.4 50 7 50 C7.50418457 49.04077637 8.00836914 48.08155273 8.52783203 47.09326172 C11.71136027 40.4292986 13.98245694 34.8678012 11.57879639 27.6038208 C10.15437461 24.03512829 8.55398639 20.579899 6.875 17.125 C6.21627276 15.67547557 5.5625867 14.2236492 4.9140625 12.76953125 C3.73645692 10.13398869 2.52680122 7.51815875 1.28857422 4.91064453 C0 2 0 2 0 0 Z " fill="#b2b2b2" transform="translate(1063,492)"/>
<path d="M0 0 C4.2659128 2.04180442 6.28987845 4.69372875 8.28417969 8.89648438 C9.85005942 13.78480267 9.48605907 18.79681211 9.328125 23.875 C9.31007813 24.98359375 9.29203125 26.0921875 9.2734375 27.234375 C9.2266365 29.94883296 9.16108875 32.66144716 9.078125 35.375 C6.108125 35.375 3.138125 35.375 0.078125 35.375 C0.0687793 34.69920898 0.05943359 34.02341797 0.04980469 33.32714844 C-0.00394801 30.2590289 -0.08758492 27.19242613 -0.171875 24.125 C-0.18605469 23.06152344 -0.20023438 21.99804688 -0.21484375 20.90234375 C-0.24707031 19.87753906 -0.27929688 18.85273438 -0.3125 17.796875 C-0.33344727 16.85424805 -0.35439453 15.91162109 -0.37597656 14.94042969 C-1.07598355 11.65077254 -2.31212625 10.43832889 -4.921875 8.375 C-7.87879209 7.62484805 -7.87879209 7.62484805 -10.921875 8.375 C-13.96793999 10.48381422 -15.67584325 12.14435528 -16.41625977 15.84790039 C-16.63845031 18.80270304 -16.71731363 21.72450869 -16.734375 24.6875 C-16.75951172 25.71423828 -16.78464844 26.74097656 -16.81054688 27.79882812 C-16.86928585 30.324604 -16.90566212 32.84865228 -16.921875 35.375 C-19.891875 35.375 -22.861875 35.375 -25.921875 35.375 C-25.921875 23.825 -25.921875 12.275 -25.921875 0.375 C-23.281875 0.375 -20.641875 0.375 -17.921875 0.375 C-17.591875 1.365 -17.261875 2.355 -16.921875 3.375 C-15.931875 2.715 -14.941875 2.055 -13.921875 1.375 C-9.22273525 -1.27774018 -5.14332061 -1.67262459 0 0 Z " fill="#b2b2b2" transform="translate(1047.921875,419.625)"/>
<path d="M0 0 C3.3125 1.8125 3.3125 1.8125 6 4 C6.86625 4.680625 6.86625 4.680625 7.75 5.375 C12.08245142 11.00718684 11.23239646 18.16685193 11.125 24.875 C11.11597656 25.94492187 11.10695313 27.01484375 11.09765625 28.1171875 C11.07419342 30.74502439 11.04136459 33.37239406 11 36 C8.03 36 5.06 36 2 36 C1.98018066 35.35450195 1.96036133 34.70900391 1.93994141 34.04394531 C1.84453672 31.11222779 1.73492029 28.18120768 1.625 25.25 C1.5940625 24.23421875 1.563125 23.2184375 1.53125 22.171875 C1.49257813 21.1921875 1.45390625 20.2125 1.4140625 19.203125 C1.36693115 17.85202637 1.36693115 17.85202637 1.31884766 16.47363281 C0.98399965 13.87586865 0.3957016 12.20608897 -1 10 C-4.3024214 8.3487893 -7.72093542 8.82715344 -11.3125 9.3125 C-11.869375 9.539375 -12.42625 9.76625 -13 10 C-13.99455909 12.98367726 -14.19559632 15.2004192 -14.31640625 18.32421875 C-14.35830078 19.35224609 -14.40019531 20.38027344 -14.44335938 21.43945312 C-14.48267578 22.51130859 -14.52199219 23.58316406 -14.5625 24.6875 C-14.60568359 25.77095703 -14.64886719 26.85441406 -14.69335938 27.97070312 C-14.79946838 30.64700791 -14.90152361 33.32340526 -15 36 C-17.97 36 -20.94 36 -24 36 C-24 24.45 -24 12.9 -24 1 C-21.36 1 -18.72 1 -16 1 C-15.67 1.99 -15.34 2.98 -15 4 C-14.01 3.34 -13.02 2.68 -12 2 C-7.7113997 -0.42587492 -4.89397387 -0.621457 0 0 Z " fill="#b2b2b2" transform="translate(699,419)"/>
<path d="M0 0 C1.175625 0.0825 2.35125 0.165 3.5625 0.25 C4.2225 1.24 4.8825 2.23 5.5625 3.25 C6.366875 2.755 7.17125 2.26 8 1.75 C12.39681848 -0.10129199 15.85904092 -0.49309587 20.5625 0.25 C25.62188007 2.63650003 28.66886146 6.00542234 30.5625 11.25 C31.03433871 15.41075952 30.9415096 19.50709283 30.8125 23.6875 C30.79445313 24.80060547 30.77640625 25.91371094 30.7578125 27.06054688 C30.71093319 29.79126646 30.64532819 32.52017386 30.5625 35.25 C27.5925 35.25 24.6225 35.25 21.5625 35.25 C21.54791748 34.56897217 21.53333496 33.88794434 21.51831055 33.1862793 C21.44387304 30.10277785 21.34719917 27.02036433 21.25 23.9375 C21.22744141 22.86564453 21.20488281 21.79378906 21.18164062 20.68945312 C21.1284668 19.14741211 21.1284668 19.14741211 21.07421875 17.57421875 C21.04803467 16.62635498 21.02185059 15.67849121 20.99487305 14.7019043 C20.73951277 12.22445581 20.73951277 12.22445581 19.27661133 10.44848633 C16.86698272 8.76370256 14.4714606 8.78914269 11.59765625 8.65625 C8.19304497 9.64953391 7.309569 11.18596832 5.5625 14.25 C4.94512984 17.85077174 4.86639463 21.41481356 4.8125 25.0625 C4.78285156 26.04154297 4.75320313 27.02058594 4.72265625 28.02929688 C4.6522232 30.43575939 4.60506617 32.84288331 4.5625 35.25 C1.5925 35.25 -1.3775 35.25 -4.4375 35.25 C-4.4621519 30.42619198 -4.48033693 25.60242033 -4.49243164 20.77856445 C-4.49747174 19.13630536 -4.50430378 17.49405077 -4.51293945 15.85180664 C-4.52501926 13.49624521 -4.53073139 11.14074291 -4.53515625 8.78515625 C-4.54031754 8.04660904 -4.54547882 7.30806183 -4.55079651 6.5471344 C-4.5509925 4.78101912 -4.49944719 3.01502854 -4.4375 1.25 C-3.4375 0.25 -3.4375 0.25 0 0 Z " fill="#b2b2b2" transform="translate(705.4375,491.75)"/>
<path d="M0 0 C4.83655023 2.41827511 7.36498898 5.31553596 10 10 C11.00176847 13.11262316 11.11660499 15.94394098 11.09765625 19.203125 C11.09443359 20.1828125 11.09121094 21.1625 11.08789062 22.171875 C11.07532227 23.69554687 11.07532227 23.69554687 11.0625 25.25 C11.05798828 26.28125 11.05347656 27.3125 11.04882812 28.375 C11.03706088 30.91672573 11.02062011 33.45833319 11 36 C8.03 36 5.06 36 2 36 C1.97494385 35.35450195 1.9498877 34.70900391 1.92407227 34.04394531 C1.80785567 31.11244106 1.68524558 28.18123783 1.5625 25.25 C1.52318359 24.23421875 1.48386719 23.2184375 1.44335938 22.171875 C1.40146484 21.1921875 1.35957031 20.2125 1.31640625 19.203125 C1.27974854 18.30239258 1.24309082 17.40166016 1.20532227 16.47363281 C1.0128931 14.15533043 0.83532644 12.17337584 0 10 C-3.59264452 8.80245183 -6.22717474 8.66905042 -10 9 C-13.20525845 11.36176938 -14.25496086 13.18129383 -15 17 C-15.14129118 18.51270605 -15.24462817 20.02928128 -15.31640625 21.546875 C-15.35830078 22.39121094 -15.40019531 23.23554688 -15.44335938 24.10546875 C-15.48267578 24.97816406 -15.52199219 25.85085938 -15.5625 26.75 C-15.60568359 27.63816406 -15.64886719 28.52632813 -15.69335938 29.44140625 C-15.79913615 31.62745963 -15.90122546 33.81362089 -16 36 C-18.64 36 -21.28 36 -24 36 C-24 24.45 -24 12.9 -24 1 C-21.36 1 -18.72 1 -16 1 C-15.67 1.99 -15.34 2.98 -15 4 C-14.01 3.34 -13.02 2.68 -12 2 C-7.7113997 -0.42587492 -4.89397387 -0.621457 0 0 Z " fill="#b2b2b2" transform="translate(946,419)"/>
<path d="M0 0 C2.64 0 5.28 0 8 0 C8.01981934 0.57967529 8.03963867 1.15935059 8.06005859 1.7565918 C8.15572601 4.40065937 8.26523453 7.0439817 8.375 9.6875 C8.4059375 10.59951172 8.436875 11.51152344 8.46875 12.45117188 C8.6792494 18.97919248 8.6792494 18.97919248 11 25 C14.49124017 27.32749345 15.89222251 27.50299316 20 27 C22.30275556 25.1329009 23.67823871 23.64352259 25 21 C25.15175549 19.40737934 25.24900325 17.80935144 25.31640625 16.2109375 C25.35830078 15.26992188 25.40019531 14.32890625 25.44335938 13.359375 C25.48267578 12.37453125 25.52199219 11.3896875 25.5625 10.375 C25.60568359 9.38242187 25.64886719 8.38984375 25.69335938 7.3671875 C25.79961069 4.91160162 25.90164964 2.45591297 26 0 C28.64 0 31.28 0 34 0 C34 11.88 34 23.76 34 36 C31.69 36 29.38 36 27 36 C26.34 34.68 25.68 33.36 25 32 C24.401875 32.474375 23.80375 32.94875 23.1875 33.4375 C19.13393553 36.33290319 14.84068188 36.66926094 10 36 C4.89790078 33.30455136 1.82618963 30.4785689 0 25 C-0.08266486 23.08093083 -0.10740663 21.15910526 -0.09765625 19.23828125 C-0.09443359 18.12001953 -0.09121094 17.00175781 -0.08789062 15.84960938 C-0.07951172 14.68236328 -0.07113281 13.51511719 -0.0625 12.3125 C-0.05573242 10.54422852 -0.05573242 10.54422852 -0.04882812 8.74023438 C-0.03703273 5.82677211 -0.0205727 2.91341137 0 0 Z " fill="#b2b2b2" transform="translate(837,492)"/>
<path d="M0 0 C1.6328125 1.09765625 1.6328125 1.09765625 3.7578125 3.09765625 C1.7778125 6.06765625 1.7778125 6.06765625 -0.2421875 9.09765625 C-0.8815625 8.76765625 -1.5209375 8.43765625 -2.1796875 8.09765625 C-6.25455591 6.76708697 -9.99409175 6.93106426 -14.2421875 7.09765625 C-14.5721875 8.41765625 -14.9021875 9.73765625 -15.2421875 11.09765625 C-14.13359375 11.34 -13.025 11.58234375 -11.8828125 11.83203125 C-10.41909507 12.16981219 -8.95556281 12.50839623 -7.4921875 12.84765625 C-6.76257813 13.00492187 -6.03296875 13.1621875 -5.28125 13.32421875 C-0.88134864 14.36419544 1.94351023 15.32150384 4.7578125 19.09765625 C5.88809331 23.16666718 6.02569183 25.36451283 4.5703125 29.34765625 C2.07537008 33.13308614 0.03186276 34.67297283 -4.2421875 36.09765625 C-11.56943945 36.75982272 -18.20374917 36.72712563 -24.2421875 32.09765625 C-24.9021875 31.10765625 -25.5621875 30.11765625 -26.2421875 29.09765625 C-24.9221875 27.44765625 -23.6021875 25.79765625 -22.2421875 24.09765625 C-17.4921875 25.97265625 -17.4921875 25.97265625 -15.2421875 27.09765625 C-13.53516015 27.16761639 -11.82550747 27.18205779 -10.1171875 27.16015625 C-9.20710938 27.15113281 -8.29703125 27.14210938 -7.359375 27.1328125 C-6.66070312 27.12121094 -5.96203125 27.10960937 -5.2421875 27.09765625 C-4.9121875 25.77765625 -4.5821875 24.45765625 -4.2421875 23.09765625 C-5.2115625 22.82953125 -6.1809375 22.56140625 -7.1796875 22.28515625 C-8.53445723 21.89139188 -9.8885645 21.49534476 -11.2421875 21.09765625 C-12.01046875 20.87980469 -12.77875 20.66195313 -13.5703125 20.4375 C-21.55341869 18.01877743 -21.55341869 18.01877743 -24.2421875 14.09765625 C-25.44275033 10.41593025 -25.4084778 8.59652714 -24.1796875 4.91015625 C-19.17012196 -2.36179373 -7.81218167 -3.14392677 0 0 Z " fill="#b2b2b2" transform="translate(483.2421875,419.90234375)"/>
<path d="M0 0 C0.721875 0.495 1.44375 0.99 2.1875 1.5 C2.1875 2.49 2.1875 3.48 2.1875 4.5 C-0.3125 6.6875 -0.3125 6.6875 -2.8125 8.5 C-3.8025 7.84 -4.7925 7.18 -5.8125 6.5 C-8.55768321 6.25812349 -8.55768321 6.25812349 -11.5 6.375 C-12.49386719 6.39304687 -13.48773437 6.41109375 -14.51171875 6.4296875 C-15.27097656 6.45289063 -16.03023437 6.47609375 -16.8125 6.5 C-16.4825 7.82 -16.1525 9.14 -15.8125 10.5 C-14.27529297 10.84611328 -14.27529297 10.84611328 -12.70703125 11.19921875 C-11.34612854 11.52771251 -9.98546353 11.85719211 -8.625 12.1875 C-7.95146484 12.33638672 -7.27792969 12.48527344 -6.58398438 12.63867188 C-1.76128096 13.83846638 1.04009795 15.45334022 4.1875 19.5 C5.0915787 22.60577623 4.90658519 25.35542903 4.1875 28.5 C1.6129997 31.86115318 -0.92130299 33.90877837 -4.8125 35.5 C-12.05842686 36.39021387 -18.85780198 36.06526848 -24.8125 31.5 C-25.4725 30.51 -26.1325 29.52 -26.8125 28.5 C-25.1625 26.85 -23.5125 25.2 -21.8125 23.5 C-21.02875 23.995 -20.245 24.49 -19.4375 25 C-14.76328158 26.93415935 -10.79807619 26.76602877 -5.8125 26.5 C-5.4825 25.18 -5.1525 23.86 -4.8125 22.5 C-5.76125 22.231875 -6.71 21.96375 -7.6875 21.6875 C-8.31914063 21.50445312 -8.95078125 21.32140625 -9.6015625 21.1328125 C-11.19662723 20.67627454 -12.796231 20.23549227 -14.3984375 19.8046875 C-15.27757812 19.55976563 -16.15671875 19.31484375 -17.0625 19.0625 C-17.89265625 18.83691406 -18.7228125 18.61132812 -19.578125 18.37890625 C-22.03313855 17.41321036 -23.21030081 16.58335498 -24.8125 14.5 C-26.00690419 9.6427563 -26.37268033 7.66345146 -24.1875 3.125 C-18.61613894 -3.03282012 -7.31344787 -3.69171651 0 0 Z " fill="#b2b2b2" transform="translate(560.8125,420.5)"/>
<path d="M0 0 C1.19367187 -0.01675781 2.38734375 -0.03351563 3.6171875 -0.05078125 C7.41079715 0.34209815 9.8475402 1.41317696 13.125 3.3125 C11.87523244 6.96566671 11.45401247 8.09315836 8.125 10.3125 C7.57328125 9.98507812 7.0215625 9.65765625 6.453125 9.3203125 C3.73719077 8.14462285 1.81948241 8.11001362 -1.125 8.1875 C-2.46304688 8.21457031 -2.46304688 8.21457031 -3.828125 8.2421875 C-4.50359375 8.26539063 -5.1790625 8.28859375 -5.875 8.3125 C-5.875 9.9625 -5.875 11.6125 -5.875 13.3125 C-4.92238281 13.42207031 -3.96976563 13.53164063 -2.98828125 13.64453125 C-1.10689453 13.88236328 -1.10689453 13.88236328 0.8125 14.125 C2.67455078 14.35123047 2.67455078 14.35123047 4.57421875 14.58203125 C8.72168305 15.43524998 11.85163467 16.61467956 14.4375 20.0625 C15.45315881 23.3864743 15.54296486 25.84936262 15.125 29.3125 C12.27784764 33.62390215 9.99966953 35.7520331 5.125 37.3125 C-3.18984194 38.25681096 -8.93738181 36.93757879 -15.875 32.3125 C-15.26222388 29.35074877 -14.62127478 27.93191217 -12.875 25.3125 C-12.111875 25.621875 -11.34875 25.93125 -10.5625 26.25 C-6.88354137 27.70447202 -4.12404338 28.43205135 -0.1875 28.375 C0.62074219 28.36597656 1.42898438 28.35695313 2.26171875 28.34765625 C2.87660156 28.33605469 3.49148438 28.32445312 4.125 28.3125 C4.785 26.6625 5.445 25.0125 6.125 23.3125 C4.82175781 23.16554688 4.82175781 23.16554688 3.4921875 23.015625 C-8.17845101 21.50131396 -8.17845101 21.50131396 -12.875 17.3125 C-15.3665904 13.5751144 -15.33293285 11.73918417 -14.875 7.3125 C-10.97605083 1.04633169 -7.15353067 0.02307591 0 0 Z " fill="#b2b2b2" transform="translate(842.875,418.6875)"/>
<path d="M0 0 C2.97 0 5.94 0 9 0 C9.92075143 2.10238244 10.83634541 4.2070237 11.75 6.3125 C12.26046875 7.48425781 12.7709375 8.65601563 13.296875 9.86328125 C15.34957412 14.84908026 17.15738157 19.93279931 19 25 C22.3 16.75 25.6 8.5 29 0 C31.97 0 34.94 0 38 0 C37.41116438 4.75524547 35.99811916 8.80499476 34.05859375 13.1484375 C33.77146011 13.80582916 33.48432648 14.46322083 33.18849182 15.14053345 C32.27782992 17.22153764 31.35784482 19.29826275 30.4375 21.375 C29.81513261 22.79269559 29.19338142 24.21066187 28.57226562 25.62890625 C27.05528646 29.0891091 25.52993703 32.54550813 24 36 C21.03 36 18.06 36 15 36 C10.85964612 28.0686346 7.05819209 20.04863399 3.5625 11.8125 C3.20865234 10.98709717 2.85480469 10.16169434 2.49023438 9.3112793 C2.00200195 8.14592651 2.00200195 8.14592651 1.50390625 6.95703125 C1.06800171 5.92026245 1.06800171 5.92026245 0.62329102 4.86254883 C0 3 0 3 0 0 Z " fill="#b2b2b2" transform="translate(411,492)"/>
<path d="M0 0 C3.3 0 6.6 0 10 0 C10.91828568 2.12430087 11.83453222 4.24948323 12.75 6.375 C13.26046875 7.55835938 13.7709375 8.74171875 14.296875 9.9609375 C16.27803784 14.60831587 18.13865645 19.30363191 20 24 C20.2673999 23.30849854 20.5347998 22.61699707 20.81030273 21.90454102 C22.01663873 18.78946212 23.227013 15.67596807 24.4375 12.5625 C24.85837891 11.47388672 25.27925781 10.38527344 25.71289062 9.26367188 C26.11572266 8.22919922 26.51855469 7.19472656 26.93359375 6.12890625 C27.4913147 4.69140015 27.4913147 4.69140015 28.06030273 3.22485352 C29 1 29 1 30 0 C33.00003445 -0.14177857 35.99757235 -0.04228771 39 0 C36.57606156 7.73509365 33.50605264 15.11637146 30.3125 22.5625 C29.80138672 23.76197266 29.29027344 24.96144531 28.76367188 26.19726562 C27.51224198 29.13286285 26.25761707 32.06704935 25 35 C21.7 35 18.4 35 15 35 C9.48784404 23.54336213 4.75624779 11.78492507 0 0 Z " fill="#b2b2b2" transform="translate(712,420)"/>
<path d="M0 0 C2.97 0 5.94 0 9 0 C9 2.97 9 5.94 9 9 C11.1965625 8.9690625 11.1965625 8.9690625 13.4375 8.9375 C14.95832518 8.91607993 16.48071962 8.92820036 18 9 C19 10 19 10 19.0625 13.5625 C19.041875 14.696875 19.02125 15.83125 19 17 C15.7 17 12.4 17 9 17 C9.14017826 19.97953359 9.28686342 22.95849304 9.4375 25.9375 C9.47681641 26.78763672 9.51613281 27.63777344 9.55664062 28.51367188 C9.61948242 29.72700195 9.61948242 29.72700195 9.68359375 30.96484375 C9.72025146 31.7137085 9.75690918 32.46257324 9.79467773 33.23413086 C9.81771063 35.02461326 9.81771063 35.02461326 11 36 C13.33297433 36.04092937 15.66705225 36.04241723 18 36 C18.66 38.64 19.32 41.28 20 44 C14.81474005 45.29631499 10.85113539 45.64077764 5.75 43.875 C2.28313193 41.51122631 1.50133035 39.92184256 0 36 C-0.34479951 32.69632302 -0.28490726 29.44184214 -0.1875 26.125 C-0.17396484 25.24585938 -0.16042969 24.36671875 -0.14648438 23.4609375 C-0.11136623 21.30702448 -0.05756694 19.15342996 0 17 C-1.98 17 -3.96 17 -6 17 C-6 14.36 -6 11.72 -6 9 C-4.02 9 -2.04 9 0 9 C0 6.03 0 3.06 0 0 Z " fill="#b2b2b2" transform="translate(1040,483)"/>
<path d="M0 0 C2.64 0 5.28 0 8 0 C8 2.97 8 5.94 8 9 C11.3 9 14.6 9 18 9 C18 11.64 18 14.28 18 17 C14.7 17 11.4 17 8 17 C8.1404983 19.7920301 8.28715383 22.58349796 8.4375 25.375 C8.47681641 26.1690625 8.51613281 26.963125 8.55664062 27.78125 C8.68893404 32.02601221 8.68893404 32.02601221 10 36 C12.31 36 14.62 36 17 36 C18.25664978 38.90600261 19 40.79604584 19 44 C14.17549824 45.60816725 9.8106662 45.80474053 5.1875 43.75 C2.23149931 41.38519945 0.20951369 39.46524416 -0.34057617 35.61816406 C-0.32486572 34.75932617 -0.30915527 33.90048828 -0.29296875 33.015625 C-0.28330078 32.08105469 -0.27363281 31.14648438 -0.26367188 30.18359375 C-0.23853516 29.21550781 -0.21339844 28.24742187 -0.1875 27.25 C-0.17396484 26.26644531 -0.16042969 25.28289062 -0.14648438 24.26953125 C-0.11118726 21.84579585 -0.06188054 19.42317855 0 17 C-2.31 17 -4.62 17 -7 17 C-7 14.36 -7 11.72 -7 9 C-4.69 9 -2.38 9 0 9 C0 6.03 0 3.06 0 0 Z " fill="#b2b2b2" transform="translate(883,483)"/>
<path d="M0 0 C2.64 0 5.28 0 8 0 C8 2.97 8 5.94 8 9 C11.3 9 14.6 9 18 9 C18 11.64 18 14.28 18 17 C14.7 17 11.4 17 8 17 C8.1404983 19.7920301 8.28715383 22.58349796 8.4375 25.375 C8.47681641 26.1690625 8.51613281 26.963125 8.55664062 27.78125 C8.68893404 32.02601221 8.68893404 32.02601221 10 36 C12.31 36 14.62 36 17 36 C18.25664978 38.90600261 19 40.79604584 19 44 C14.17549824 45.60816725 9.8106662 45.80474053 5.1875 43.75 C2.23149931 41.38519945 0.20951369 39.46524416 -0.34057617 35.61816406 C-0.32486572 34.75932617 -0.30915527 33.90048828 -0.29296875 33.015625 C-0.28330078 32.08105469 -0.27363281 31.14648438 -0.26367188 30.18359375 C-0.23853516 29.21550781 -0.21339844 28.24742187 -0.1875 27.25 C-0.17396484 26.26644531 -0.16042969 25.28289062 -0.14648438 24.26953125 C-0.11118726 21.84579585 -0.06188054 19.42317855 0 17 C-2.31 17 -4.62 17 -7 17 C-7 14.36 -7 11.72 -7 9 C-4.69 9 -2.38 9 0 9 C0 6.03 0 3.06 0 0 Z " fill="#b2b2b2" transform="translate(746,483)"/>
<path d="M0 0 C0.845625 0.00386719 1.69125 0.00773437 2.5625 0.01171875 C5.11537729 0.32673726 6.79013935 1.02853004 9 2.3125 C7.125 8.0625 7.125 8.0625 6 10.3125 C5.40832031 10.20550781 4.81664062 10.09851563 4.20703125 9.98828125 C-0.99437119 9.19442226 -0.99437119 9.19442226 -6 10.5625 C-8.46509525 12.71945835 -8.91363307 14.35835591 -9.20532227 17.58081055 C-9.26030884 18.87692261 -9.26030884 18.87692261 -9.31640625 20.19921875 C-9.35830078 21.13701172 -9.40019531 22.07480469 -9.44335938 23.04101562 C-9.48267578 24.01748047 -9.52199219 24.99394531 -9.5625 26 C-9.60568359 26.98806641 -9.64886719 27.97613281 -9.69335938 28.99414062 C-9.79941654 31.43345546 -9.90147714 33.87287113 -10 36.3125 C-16.15234375 36.41015625 -16.15234375 36.41015625 -18 36.3125 C-19 35.3125 -19 35.3125 -19.11352539 32.07788086 C-19.11336631 30.64435874 -19.10767407 29.21083088 -19.09765625 27.77734375 C-19.0962413 27.02409317 -19.09482635 26.27084259 -19.09336853 25.49476624 C-19.08775376 23.0798044 -19.07519883 20.66493399 -19.0625 18.25 C-19.0574869 16.61653779 -19.05292366 14.98307414 -19.04882812 13.34960938 C-19.03777954 9.33720415 -19.02050506 5.32486759 -19 1.3125 C-16.03 1.3125 -13.06 1.3125 -10 1.3125 C-9.67 1.9725 -9.34 2.6325 -9 3.3125 C-8.443125 2.82394531 -7.88625 2.33539063 -7.3125 1.83203125 C-4.60806269 0.05496012 -3.19946712 -0.06340407 0 0 Z " fill="#b2b2b2" transform="translate(816,418.6875)"/>
<path d="M0 0 C-1.625 5.75 -1.625 5.75 -5 8 C-5.66 7.67 -6.32 7.34 -7 7 C-10.53018797 6.84651357 -13.61527952 6.95854754 -17 8 C-17.86111516 11.02769315 -18.18230893 13.84266637 -18.31640625 16.984375 C-18.35830078 17.91894531 -18.40019531 18.85351562 -18.44335938 19.81640625 C-18.50233398 21.26853516 -18.50233398 21.26853516 -18.5625 22.75 C-18.60568359 23.73355469 -18.64886719 24.71710937 -18.69335938 25.73046875 C-18.79921949 28.15348927 -18.90009312 30.57672672 -19 33 C-21.97 33 -24.94 33 -28 33 C-28.0246519 28.17619198 -28.04283693 23.35242033 -28.05493164 18.52856445 C-28.05997174 16.88630536 -28.06680378 15.24405077 -28.07543945 13.60180664 C-28.08751926 11.24624521 -28.09323139 8.89074291 -28.09765625 6.53515625 C-28.10281754 5.79660904 -28.10797882 5.05806183 -28.11329651 4.2971344 C-28.1134925 2.53101912 -28.06194719 0.76502854 -28 -1 C-27 -2 -27 -2 -23.5625 -2.1875 C-20 -2 -20 -2 -18 0 C-17.030625 -0.53625 -16.06125 -1.0725 -15.0625 -1.625 C-9.94072983 -3.86185473 -4.85641477 -2.42820738 0 0 Z " fill="#b2b2b2" transform="translate(1017,494)"/>
<path d="M0 0 C2.97 0 5.94 0 9 0 C9 16.17 9 32.34 9 49 C6.03 49 3.06 49 0 49 C0 32.83 0 16.66 0 0 Z " fill="#b2b2b2" transform="translate(495,478)"/>
<path d="M0 0 C2.97 0 5.94 0 9 0 C9 11.55 9 23.1 9 35 C6.03 35 3.06 35 0 35 C0 23.45 0 11.9 0 0 Z " fill="#b2b2b2" transform="translate(1020,492)"/>
<path d="M0 0 C2.64 0 5.28 0 8 0 C8 11.88 8 23.76 8 36 C5.36 36 2.72 36 0 36 C0 24.12 0 12.24 0 0 Z " fill="#b2b2b2" transform="translate(864,419)"/>
<path d="M0 0 C2.375 1.375 2.375 1.375 3.4375 3.75 C3.375 6.375 3.375 6.375 1.4375 8.6875 C0.756875 9.244375 0.07625 9.80125 -0.625 10.375 C-2.605 9.715 -4.585 9.055 -6.625 8.375 C-7.25 6.0625 -7.25 6.0625 -7.625 3.375 C-5.25842864 -0.17485704 -4.19776774 -0.99946851 0 0 Z " fill="#b2b2b2" transform="translate(1026.625,477.625)"/>
<path d="M0 0 C3 0.25 3 0.25 5 2.25 C4.625 5.875 4.625 5.875 4 9.25 C-1.44736842 10.58157895 -1.44736842 10.58157895 -3.875 9.125 C-5.3568671 6.65522151 -5.3633156 5.08386167 -5 2.25 C-3 0.25 -3 0.25 0 0 Z " fill="#b2b2b2" transform="translate(868,404.75)"/>
</svg>
