<?xml version="1.0" standalone="no"?>
<!DOCTYPE svg PUBLIC "-//W3C//DTD SVG 20010904//EN"
 "http://www.w3.org/TR/2001/REC-SVG-20010904/DTD/svg10.dtd">
<svg version="1.0" xmlns="http://www.w3.org/2000/svg"
 width="474.000000pt" height="472.000000pt" viewBox="0 0 474.000000 472.000000"
 preserveAspectRatio="xMidYMid meet">
<metadata>
Created by potrace 1.16, written by Peter Selinger 2001-2019
</metadata>
<g transform="translate(0.000000,472.000000) scale(0.100000,-0.100000)"
fill="#b2b2b2" stroke="none">
<path d="M1945 4678 c-27 -11 -79 -31 -115 -45 -99 -37 -281 -105 -422 -158
-78 -29 -128 -53 -128 -61 0 -8 18 -62 39 -122 52 -141 54 -149 44 -166 -4 -8
-44 -38 -87 -66 -155 -101 -304 -233 -449 -397 -20 -24 -42 -43 -48 -43 -5 0
-63 24 -127 54 -115 53 -191 86 -198 86 -2 0 -10 -15 -18 -32 -8 -18 -80 -179
-160 -358 l-145 -325 52 -24 c29 -13 95 -43 147 -66 74 -33 95 -46 94 -61 -1
-10 -14 -75 -29 -144 -26 -114 -28 -146 -31 -365 l-3 -240 -160 -55 c-87 -30
-162 -58 -166 -61 -5 -5 229 -725 240 -737 1 -1 75 22 164 52 121 41 164 51
172 43 5 -7 35 -52 66 -102 83 -132 151 -214 301 -364 l134 -134 -40 -86 c-22
-47 -55 -120 -75 -162 l-35 -75 97 -47 c145 -69 286 -135 382 -177 48 -21 119
-55 158 -75 l72 -36 15 37 c14 34 123 256 128 261 1 1 35 -7 76 -17 164 -43
248 -53 489 -54 l234 -2 27 -69 c14 -39 39 -108 55 -155 38 -111 39 -112 78
-95 38 17 332 123 545 197 117 40 152 57 148 68 -2 8 -28 80 -56 160 -48 132
-51 145 -35 155 30 18 139 88 150 97 5 4 55 43 110 86 55 43 150 131 211 195
l111 117 162 -71 c89 -39 168 -69 174 -66 7 2 40 69 74 148 34 79 100 233 147
341 47 109 87 202 88 209 2 6 -62 39 -142 75 -85 37 -144 69 -143 76 0 7 13
63 27 123 34 149 50 321 44 492 l-5 142 26 10 c14 6 49 17 76 25 234 71 227
68 221 90 -5 19 -94 316 -181 601 -20 65 -38 121 -40 124 -4 4 -145 -37 -293
-84 l-43 -14 -22 37 c-26 45 -147 225 -156 232 -3 3 -24 28 -46 55 -41 52
-189 203 -262 267 l-41 37 80 151 c44 83 79 152 77 154 -9 6 -143 78 -279 149
-80 42 -203 107 -275 146 -71 38 -133 66 -137 63 -3 -4 -41 -72 -83 -152 -43
-80 -79 -147 -81 -149 -2 -3 -50 5 -107 17 -186 38 -268 46 -479 45 l-207 -1
-35 92 c-20 50 -46 120 -59 155 -13 36 -28 66 -33 67 -5 2 -31 -6 -59 -18z
m49 -150 c14 -40 39 -104 55 -143 l28 -70 259 -1 c273 0 385 -13 556 -63 50
-14 69 -16 76 -8 5 7 31 55 58 107 76 151 91 172 117 164 12 -4 94 -45 182
-92 88 -46 203 -107 255 -135 52 -27 97 -51 98 -53 5 -3 -85 -180 -109 -214
-9 -14 -20 -39 -23 -56 -6 -28 -2 -34 56 -80 155 -121 338 -335 453 -529 33
-55 61 -102 62 -104 4 -6 28 1 197 53 65 21 120 35 122 33 2 -2 27 -80 55
-173 28 -93 69 -225 90 -294 24 -78 35 -128 29 -134 -5 -5 -59 -24 -120 -43
-61 -18 -125 -39 -142 -46 l-31 -13 -1 -264 c-2 -249 -3 -272 -29 -380 -14
-63 -31 -131 -37 -150 -15 -53 -12 -75 13 -88 12 -6 70 -32 130 -58 63 -27
107 -52 107 -61 0 -7 -13 -39 -28 -71 -16 -31 -39 -84 -52 -117 -13 -33 -40
-94 -60 -135 -20 -41 -47 -100 -59 -131 -13 -30 -31 -66 -41 -79 l-18 -24 -78
29 c-44 16 -112 44 -153 62 -41 19 -77 31 -80 26 -143 -173 -252 -284 -366
-368 -22 -17 -42 -32 -45 -35 -11 -11 -148 -99 -197 -126 -29 -16 -53 -33 -53
-37 0 -4 11 -33 24 -65 13 -31 36 -95 51 -140 24 -69 26 -85 15 -92 -8 -5 -66
-27 -130 -50 -185 -66 -239 -86 -344 -125 -54 -20 -102 -32 -106 -28 -7 8 -21
43 -87 228 -24 66 -33 79 -49 77 -76 -11 -394 -13 -483 -3 -114 14 -258 43
-335 68 -60 19 -54 26 -133 -144 -29 -64 -55 -118 -56 -120 -4 -3 -114 47
-347 159 -80 39 -162 77 -183 85 -35 14 -38 19 -33 43 3 15 33 85 68 155 l63
127 -60 51 c-188 158 -359 363 -470 562 -16 28 -32 55 -37 61 -6 8 -51 -4
-150 -38 -78 -27 -149 -47 -157 -46 -17 4 -214 579 -202 591 8 8 198 73 271
93 l35 10 -3 214 c-4 234 5 334 45 505 14 61 27 120 30 132 4 16 0 25 -13 29
-31 10 -248 107 -256 113 -7 6 234 557 251 574 6 6 66 -17 151 -57 78 -36 148
-66 155 -66 7 0 25 17 41 38 129 172 343 360 550 482 l90 54 -53 134 c-29 74
-51 138 -48 142 3 5 22 14 43 20 20 7 102 37 182 67 80 31 174 66 210 80 36
13 79 30 95 38 54 25 60 20 89 -57z"/>
<path d="M2226 4072 c-3 -3 -6 -110 -6 -239 l0 -233 170 0 c94 0 173 0 178 0
4 0 8 18 10 40 l3 40 -130 0 -131 0 0 65 0 65 120 0 120 0 0 40 0 40 -119 0
-119 0 -4 39 c-2 22 -2 45 0 50 2 7 49 11 128 11 l124 0 0 45 0 45 -169 -1
c-94 -1 -172 -4 -175 -7z"/>
<path d="M2886 3982 c-39 -78 -166 -369 -166 -381 0 -10 50 -41 68 -41 5 0 38
64 72 143 62 140 88 187 77 137 -11 -47 -57 -323 -55 -325 13 -12 83 -34 89
-28 17 18 181 229 189 243 5 8 11 12 14 9 4 -3 -10 -41 -30 -85 -20 -43 -49
-110 -65 -147 l-28 -68 34 -15 c19 -8 38 -14 43 -14 9 0 192 403 192 423 0 7
-26 24 -57 38 -32 13 -60 25 -63 27 -3 1 -51 -54 -105 -123 -55 -68 -101 -121
-103 -117 -1 5 9 76 22 158 13 82 23 150 21 152 -2 2 -31 17 -64 32 l-61 29
-24 -47z"/>
<path d="M1802 3972 c-52 -26 -53 -27 -46 -62 24 -122 51 -275 49 -278 -1 -1
-48 52 -105 118 -56 66 -105 120 -107 120 -3 0 -32 -12 -65 -27 -49 -23 -58
-31 -54 -48 3 -11 48 -109 100 -217 l96 -198 27 12 c56 23 55 24 -22 186 -41
84 -70 150 -65 147 5 -3 57 -64 116 -135 59 -72 109 -130 111 -130 6 0 83 40
83 43 0 1 -16 76 -34 167 -19 91 -32 167 -31 169 3 3 98 -190 131 -267 l14
-32 36 15 c20 8 38 15 40 15 11 0 -4 37 -92 225 -68 144 -102 205 -113 204 -9
0 -40 -12 -69 -27z"/>
<path d="M3522 3538 c-42 -40 -102 -96 -132 -124 -30 -29 -72 -67 -92 -85 -21
-18 -38 -38 -38 -44 0 -6 46 -59 103 -117 108 -112 134 -126 201 -114 18 4 47
22 66 41 28 29 33 42 33 80 0 42 2 45 26 45 40 0 91 36 108 77 25 61 6 99
-103 214 l-95 99 -77 -72z m140 -110 c50 -55 59 -86 32 -112 -27 -27 -55 -18
-111 38 l-55 54 39 36 c21 19 40 36 43 36 3 0 26 -24 52 -52z m-133 -135 c54
-61 63 -93 34 -125 -29 -32 -63 -22 -120 34 -29 29 -53 57 -53 62 0 12 70 86
81 86 4 0 30 -26 58 -57z"/>
<path d="M1135 3519 c-44 -12 -99 -62 -131 -116 -34 -58 -38 -147 -10 -201 43
-82 149 -152 242 -160 113 -9 224 97 232 222 3 49 0 71 -16 102 -59 116 -205
186 -317 153z m158 -125 c57 -40 87 -88 87 -137 0 -32 -7 -46 -39 -78 -32 -33
-45 -39 -80 -39 -54 0 -108 28 -154 79 -36 40 -43 59 -38 110 3 32 37 80 65
92 39 17 114 4 159 -27z"/>
<path d="M2275 3453 c-323 -38 -588 -184 -787 -432 -162 -203 -259 -504 -244
-754 33 -530 393 -946 921 -1064 102 -22 336 -22 445 1 240 51 438 161 611
340 158 164 255 360 295 597 21 126 15 303 -14 434 -90 402 -417 740 -817 844
-128 34 -296 48 -410 34z m380 -108 c184 -53 200 -65 164 -125 -11 -17 -61
-77 -112 -133 -78 -86 -205 -233 -214 -246 -1 -2 -21 -4 -44 -5 -24 -1 -45 -8
-47 -14 -2 -7 -18 -12 -35 -12 -47 0 -160 99 -287 251 -58 69 -117 139 -132
155 -48 49 -39 60 77 100 156 52 236 64 395 60 119 -4 161 -9 235 -31z m346
-157 c142 -95 301 -292 369 -456 59 -141 81 -250 81 -408 0 -84 -6 -169 -15
-210 -17 -83 -74 -236 -87 -232 -4 2 -33 21 -64 43 l-55 40 0 247 0 246 35 22
c33 20 35 25 36 78 3 150 -3 268 -15 280 -15 16 -65 6 -73 -14 -6 -17 -53 -19
-53 -3 0 10 -23 10 -125 -5 -16 -2 -40 3 -53 11 -24 15 -62 9 -62 -9 0 -6 -14
-8 -37 -4 -21 4 -58 9 -83 12 l-45 6 0 -149 c0 -165 3 -174 65 -223 36 -29 41
-37 38 -69 l-3 -36 -120 2 c-66 1 -128 2 -137 3 -14 0 -18 9 -18 44 0 34 7 53
35 89 l35 46 0 139 0 139 35 46 c20 26 44 51 54 57 15 7 20 24 23 80 2 39 8
74 13 78 6 4 30 33 54 65 38 50 80 85 102 87 4 0 35 -19 70 -42z m-1079 -30
c29 -35 56 -65 61 -66 17 -8 37 -63 37 -102 0 -35 7 -50 45 -93 l45 -52 0
-162 c0 -128 3 -164 14 -170 28 -16 57 -81 54 -120 l-3 -38 -142 -3 -143 -3 0
59 c0 58 0 58 45 90 43 30 45 34 47 84 1 29 3 85 4 123 1 39 0 85 -2 103 -4
27 -9 32 -33 32 -16 0 -34 -7 -41 -15 -16 -19 -40 -19 -68 1 -29 20 -68 11
-77 -16 -7 -24 -37 -26 -55 -5 -7 8 -25 15 -40 15 -16 0 -30 -7 -34 -15 -8
-22 -59 -19 -79 5 -9 11 -28 20 -41 20 -30 0 -42 30 -25 62 60 114 291 328
355 328 15 0 40 -21 76 -62z m-474 -513 l3 -100 39 -28 40 -28 2 -147 c2 -81
2 -180 0 -221 -2 -53 1 -80 13 -97 45 -69 -11 -154 -102 -154 -27 0 -41 26
-79 152 -70 234 -57 450 41 716 3 8 13 12 22 10 16 -3 18 -17 21 -103z m1544
-708 c96 -144 188 -299 188 -316 0 -20 -79 -94 -180 -168 -158 -117 -399 -193
-610 -193 -147 0 -341 44 -465 106 -81 41 -241 152 -280 195 -40 45 -42 57
-15 92 11 14 20 29 20 34 0 9 55 105 145 250 11 18 29 36 40 42 12 6 236 10
571 10 l552 1 34 -53z"/>
<path d="M3833 2986 c-93 -30 -183 -113 -203 -188 -23 -83 19 -184 103 -252
32 -26 48 -31 106 -34 58 -3 75 0 119 22 143 72 197 193 141 316 -51 114 -161
170 -266 136z m127 -99 c35 -18 70 -74 70 -114 0 -48 -23 -88 -73 -121 -83
-58 -158 -60 -208 -6 -20 21 -24 36 -24 84 0 53 3 62 34 94 63 65 146 91 201
63z"/>
<path d="M785 2928 c-117 -64 -148 -229 -63 -332 43 -53 141 -96 217 -96 104
0 158 32 197 115 42 88 28 180 -33 238 l-30 28 -27 -31 c-32 -39 -32 -50 -2
-79 67 -63 17 -173 -78 -173 -101 0 -199 57 -208 122 -8 55 33 116 82 123 25
4 37 28 39 75 1 19 -4 22 -36 22 -21 0 -47 -6 -58 -12z"/>
<path d="M3809 2237 c-47 -32 -61 -62 -56 -126 3 -47 9 -59 40 -87 48 -45 97
-53 153 -26 57 28 79 63 78 127 0 86 -50 135 -137 135 -29 0 -55 -8 -78 -23z"/>
<path d="M885 2190 c-47 -10 -75 -32 -96 -72 -24 -46 -24 -72 0 -125 36 -79
139 -105 211 -53 38 27 53 70 48 130 -9 87 -80 140 -163 120z"/>
<path d="M3630 1828 c-11 -18 -20 -37 -20 -42 0 -5 16 -40 35 -77 19 -38 35
-73 35 -78 0 -7 -33 -11 -89 -11 l-89 0 -21 -34 c-12 -18 -21 -37 -21 -42 0
-5 61 -8 136 -6 l135 3 72 -46 72 -46 23 26 c12 14 22 32 22 38 0 7 -32 32
-72 57 l-71 44 -58 123 c-32 68 -61 123 -64 123 -3 0 -14 -15 -25 -32z"/>
<path d="M1150 1649 c-52 -38 -125 -91 -162 -117 -37 -26 -67 -51 -67 -57 0
-18 39 -57 51 -52 7 2 60 39 116 82 57 42 105 75 107 73 2 -2 -39 -54 -91
-116 -95 -112 -96 -113 -79 -138 9 -14 23 -28 31 -31 9 -3 74 18 145 47 71 29
131 51 134 49 2 -2 -48 -40 -110 -84 -63 -44 -114 -84 -115 -88 0 -12 31 -57
41 -57 5 0 59 37 121 82 62 45 133 95 157 112 25 18 46 36 48 42 2 6 -13 31
-32 56 l-36 46 -126 -49 c-69 -27 -127 -48 -129 -46 -2 1 35 48 81 104 47 56
85 105 85 109 0 10 -64 104 -70 103 -3 0 -48 -32 -100 -70z"/>
<path d="M3323 1420 c-62 -60 -113 -113 -113 -118 0 -5 10 -18 23 -29 l22 -21
40 39 c22 21 43 39 46 39 3 0 56 -52 118 -115 62 -63 116 -115 120 -115 12 0
51 40 51 53 0 7 -49 62 -110 122 -60 60 -110 114 -110 120 0 6 18 28 40 50
l40 39 -22 23 c-12 13 -24 23 -27 23 -3 -1 -57 -50 -118 -110z"/>
<path d="M1480 1324 c-30 -19 -89 -55 -130 -80 -135 -82 -179 -109 -185 -115
-3 -4 11 -17 31 -29 l37 -23 42 23 c49 27 52 26 129 -42 l40 -34 -14 -48 c-14
-50 -11 -55 43 -87 21 -12 14 -32 82 216 l56 200 -33 27 c-18 15 -35 27 -38
27 -3 0 -30 -16 -60 -35z"/>
<path d="M3151 1250 c-27 -23 -25 -32 27 -103 21 -28 71 -98 111 -154 l72
-102 35 22 c18 12 33 25 31 29 -7 24 -231 328 -241 328 -6 -1 -22 -10 -35 -20z"/>
<path d="M1658 1178 c-106 -248 -128 -303 -124 -314 2 -6 19 -16 36 -23 l32
-11 25 59 c21 48 31 60 61 72 21 8 40 15 43 17 4 2 10 -19 13 -45 25 -173 25
-173 72 -196 24 -11 46 -19 48 -16 3 3 -6 66 -19 140 -14 73 -25 139 -25 145
0 6 43 29 95 50 52 22 95 42 95 45 0 4 -21 15 -46 26 l-46 20 -105 -49 c-58
-27 -107 -47 -110 -45 -2 3 9 37 26 77 17 40 31 75 31 79 0 6 -57 31 -71 31
-2 0 -17 -28 -31 -62z"/>
<path d="M2952 1154 c-70 -35 -95 -72 -100 -150 -9 -133 89 -254 203 -254 47
0 128 42 156 81 23 33 38 122 22 132 -6 4 -26 4 -46 0 -35 -5 -37 -7 -37 -45
0 -79 -85 -116 -147 -64 -38 32 -73 104 -73 150 0 73 81 120 138 80 21 -14 24
-14 52 8 35 28 34 36 -10 66 -44 29 -94 28 -158 -4z"/>
<path d="M2134 1038 c-11 -13 -38 -48 -59 -78 -22 -30 -70 -98 -107 -150 -37
-52 -68 -97 -68 -101 0 -4 17 -13 37 -20 39 -13 43 -10 83 50 l16 23 73 -20
c40 -12 76 -23 78 -26 3 -3 8 -25 10 -50 5 -44 8 -46 45 -57 22 -6 42 -8 45
-6 2 3 -8 102 -23 220 l-28 215 -36 11 c-47 14 -43 15 -66 -11z"/>
<path d="M2652 1053 c-13 -3 -26 -11 -28 -18 -6 -15 85 -395 95 -395 3 0 22 5
42 10 l35 10 -46 189 c-47 188 -55 212 -68 210 -4 -1 -17 -4 -30 -6z"/>
<path d="M2490 1033 c-19 -1 -77 -6 -127 -9 l-93 -6 0 -34 0 -34 64 0 64 0 8
-152 c4 -84 7 -159 5 -165 -1 -9 13 -13 45 -13 l46 0 -6 98 c-4 53 -9 129 -12
168 l-6 72 61 7 61 7 0 34 c0 37 -2 38 -110 27z"/>
</g>
</svg>
