<?xml version="1.0" standalone="no"?>
<!DOCTYPE svg PUBLIC "-//W3C//DTD SVG 20010904//EN"
 "http://www.w3.org/TR/2001/REC-SVG-20010904/DTD/svg10.dtd">
<svg version="1.0" xmlns="http://www.w3.org/2000/svg"
 width="1500.000000pt" height="1500.000000pt" viewBox="0 0 1500.000000 1500.000000"
 preserveAspectRatio="xMidYMid meet">
<metadata>
Created by potrace 1.16, written by Peter Selinger 2001-2019
</metadata>
<g transform="translate(0.000000,1500.000000) scale(0.100000,-0.100000)"
fill="#b2b2b2" stroke="none">
<path d="M7090 14543 c-1004 -69 -1930 -319 -2775 -749 -1534 -779 -2730
-2085 -3364 -3673 -197 -493 -353 -1072 -431 -1601 -56 -382 -65 -517 -65
-1020 0 -425 3 -497 23 -680 50 -456 114 -796 233 -1230 399 -1457 1315 -2800
2534 -3715 780 -585 1605 -981 2520 -1209 418 -104 716 -155 1155 -198 212
-20 998 -17 1215 5 1369 141 2549 598 3620 1402 806 605 1478 1392 1973 2310
386 716 666 1604 771 2440 41 331 46 421 46 875 0 454 -5 544 -46 875 -104
835 -380 1708 -766 2430 -694 1295 -1746 2328 -3048 2989 -826 420 -1779 681
-2725 746 -130 9 -756 11 -870 3z m721 -193 c1580 -80 2996 -647 4198 -1683
137 -117 541 -521 658 -658 740 -858 1231 -1806 1498 -2893 113 -462 162 -814
186 -1347 25 -563 -29 -1191 -151 -1745 -295 -1340 -985 -2557 -1985 -3505
-635 -601 -1416 -1097 -2223 -1411 -435 -169 -899 -297 -1347 -372 -371 -62
-592 -83 -995 -92 -1115 -28 -2216 219 -3225 723 -223 112 -597 330 -675 394
-19 16 -39 29 -43 29 -15 0 -283 190 -418 296 -395 310 -831 737 -1135 1114
-740 918 -1248 2060 -1424 3203 -64 417 -84 674 -84 1087 0 518 44 960 144
1432 477 2251 2057 4117 4202 4961 890 351 1876 514 2819 467z"/>
<path d="M7730 14022 c-70 -4 -88 -10 -102 -37 -7 -13 -69 -111 -138 -217 -69
-106 -130 -202 -136 -213 -23 -45 -47 -75 -59 -75 -7 0 -28 26 -45 58 -18 31
-50 82 -71 112 -22 30 -84 119 -139 197 -55 78 -109 147 -119 153 -11 5 -54
10 -95 10 -71 0 -76 -2 -76 -21 0 -19 140 -227 265 -394 88 -117 175 -245 185
-270 6 -15 10 -122 10 -240 0 -118 4 -225 10 -239 9 -24 14 -26 74 -26 44 0
67 5 76 15 9 11 11 76 8 253 l-3 238 29 44 c16 24 33 49 38 54 5 6 48 70 96
141 164 243 224 330 242 350 27 30 49 80 42 91 -9 14 -38 20 -92 16z"/>
<path d="M6370 13914 c-25 -7 -79 -20 -120 -28 -81 -15 -134 -27 -360 -83 -80
-20 -179 -42 -220 -49 -108 -20 -117 -22 -134 -40 -31 -30 -8 -116 33 -127 19
-4 101 11 258 49 114 27 112 30 174 -243 36 -156 57 -248 83 -358 15 -60 37
-160 50 -220 29 -142 36 -155 84 -155 20 0 54 5 75 11 31 8 37 14 37 37 0 27
-36 190 -70 312 -10 36 -30 119 -44 185 -15 66 -35 154 -46 195 -41 163 -62
269 -57 283 5 13 93 40 172 53 68 10 172 43 185 58 15 19 3 101 -17 121 -17
18 -25 18 -83 -1z"/>
<path d="M8998 13795 c-118 -30 -229 -105 -303 -207 -134 -181 -184 -397 -135
-587 25 -100 55 -153 136 -240 75 -81 125 -112 246 -152 73 -24 104 -29 188
-29 261 0 455 150 552 427 40 114 51 295 23 388 -55 192 -194 327 -400 390
-74 22 -238 28 -307 10z m347 -180 c92 -52 123 -83 160 -158 61 -125 66 -201
23 -357 -33 -120 -71 -190 -138 -254 -85 -81 -152 -110 -266 -114 -84 -4 -97
-1 -167 28 -101 42 -166 101 -209 188 -30 63 -32 74 -32 172 1 119 20 192 82
319 44 87 117 160 195 190 45 18 69 21 177 18 115 -4 129 -6 175 -32z"/>
<path d="M5044 13526 c-29 -29 -33 -38 -25 -58 11 -29 72 -174 160 -383 98
-230 134 -316 180 -435 23 -58 54 -130 69 -160 27 -55 27 -55 72 -54 72 2 100
18 100 56 0 18 -10 53 -21 78 -12 25 -47 108 -79 185 -31 77 -76 185 -99 240
-24 55 -81 195 -128 310 -47 116 -91 220 -99 233 -11 17 -24 22 -55 22 -33 0
-47 -6 -75 -34z"/>
<path d="M10243 13404 c-7 -3 -67 -113 -133 -246 -67 -132 -135 -265 -152
-296 -128 -235 -248 -470 -248 -486 0 -20 72 -66 115 -73 33 -5 33 -5 74 78
58 120 184 356 197 369 7 7 78 -24 237 -105 125 -63 235 -115 246 -115 42 0
87 69 72 112 -3 10 -105 66 -238 132 -202 100 -233 118 -233 138 0 13 29 75
65 138 36 63 65 118 65 123 0 4 11 12 25 17 20 8 55 -6 225 -90 110 -55 202
-100 205 -100 2 0 26 -13 52 -30 26 -16 59 -30 73 -30 53 0 95 81 65 126 -8
13 -22 24 -31 24 -8 0 -156 72 -330 160 -173 88 -320 160 -327 159 -6 0 -17
-3 -24 -5z"/>
<path d="M4338 13189 c-36 -8 -113 -47 -187 -94 -100 -63 -160 -141 -186 -243
-36 -138 28 -271 160 -334 86 -40 169 -38 340 8 200 54 263 66 340 61 82 -4
106 -17 136 -70 71 -126 -50 -277 -285 -357 -103 -35 -158 -23 -266 59 -30 22
-62 41 -70 41 -22 0 -100 -68 -100 -86 0 -24 91 -114 140 -139 63 -32 146 -55
197 -55 54 0 220 53 293 93 79 45 131 90 187 166 66 88 78 121 77 212 -2 92
-24 149 -88 217 -65 70 -123 96 -222 100 -81 4 -139 -8 -294 -58 -114 -37
-246 -63 -284 -56 -80 15 -119 86 -102 182 16 82 171 197 283 211 86 10 135
-3 183 -47 24 -23 53 -40 66 -40 25 0 94 43 107 66 21 37 -86 137 -174 163
-42 13 -197 13 -251 0z"/>
<path d="M7195 12494 c-27 -2 -93 -11 -145 -19 -52 -8 -133 -17 -180 -20 -47
-4 -119 -15 -160 -25 -41 -10 -100 -21 -130 -25 -30 -3 -86 -15 -125 -25 -38
-10 -88 -21 -110 -25 -110 -18 -487 -138 -608 -194 -37 -17 -72 -31 -77 -31
-6 0 -50 -18 -98 -41 -48 -22 -108 -49 -134 -60 -209 -83 -655 -357 -933 -573
-243 -188 -584 -517 -759 -731 -107 -130 -288 -373 -346 -465 -29 -47 -73
-114 -96 -150 -57 -87 -98 -163 -203 -370 -120 -239 -195 -418 -262 -625 -17
-55 -47 -145 -64 -200 -124 -381 -204 -942 -205 -1431 0 -164 24 -566 40 -654
5 -30 19 -111 29 -180 41 -259 83 -435 168 -695 121 -372 200 -556 395 -924
112 -211 373 -588 551 -795 183 -212 530 -554 669 -658 31 -24 108 -82 170
-129 153 -116 175 -130 393 -262 213 -129 305 -179 450 -244 55 -25 132 -60
170 -78 189 -89 738 -261 892 -279 29 -4 71 -13 95 -22 24 -8 99 -22 168 -29
69 -8 141 -19 160 -25 121 -37 1109 -37 1230 0 19 5 89 17 155 24 66 8 134 20
150 26 17 6 75 20 130 31 92 17 166 36 350 87 198 56 447 150 682 260 197 92
256 124 443 237 219 132 322 204 545 378 232 182 506 451 749 738 177 208 449
626 590 904 102 202 238 524 281 665 9 30 24 75 32 99 17 46 43 141 73 261 10
41 32 129 48 195 17 66 33 140 37 165 3 25 15 101 26 170 22 142 59 613 59
754 0 52 -4 138 -9 192 -5 55 -15 173 -21 264 -6 91 -20 212 -30 270 -10 58
-22 128 -25 155 -4 28 -20 104 -37 170 -16 66 -36 145 -43 175 -43 187 -153
522 -215 657 -11 24 -20 46 -20 50 0 28 -203 440 -272 553 -145 237 -224 359
-266 413 -26 34 -56 76 -67 92 -98 156 -543 640 -710 771 -27 21 -78 64 -112
95 -34 31 -111 91 -170 134 -60 43 -133 97 -163 120 -70 53 -260 171 -422 263
-413 235 -1037 461 -1458 527 -47 7 -112 20 -145 28 -33 9 -116 21 -185 27
-69 6 -145 15 -170 21 -45 10 -659 20 -755 13z m677 -268 c62 -8 157 -17 210
-20 53 -4 121 -11 150 -17 29 -6 82 -17 118 -24 268 -53 488 -111 680 -177 47
-16 105 -36 130 -45 25 -8 59 -21 75 -28 17 -7 54 -23 82 -34 115 -45 446
-212 576 -290 404 -243 794 -555 1059 -849 342 -379 561 -697 779 -1133 239
-480 379 -937 460 -1499 40 -282 44 -954 6 -1200 -8 -52 -18 -122 -21 -155
-13 -119 -49 -284 -118 -545 -31 -117 -128 -407 -165 -495 -18 -44 -33 -82
-33 -86 0 -4 -44 -98 -98 -210 -145 -300 -346 -629 -510 -834 -39 -50 -100
-126 -134 -169 -97 -122 -500 -522 -621 -617 -60 -46 -129 -101 -155 -122 -75
-60 -408 -279 -517 -339 -139 -77 -410 -208 -546 -263 -122 -50 -378 -138
-444 -153 -22 -5 -94 -25 -160 -45 -66 -19 -140 -38 -165 -42 -25 -4 -81 -15
-125 -25 -44 -10 -111 -21 -150 -25 -38 -3 -106 -14 -150 -23 -69 -15 -146
-17 -570 -17 -425 0 -501 2 -570 17 -44 10 -124 22 -177 28 -53 5 -108 14
-123 20 -14 6 -59 15 -98 21 -40 6 -130 28 -201 50 -70 21 -134 39 -141 39
-11 0 -68 18 -249 80 -189 64 -525 217 -737 335 -102 57 -394 247 -474 308
-491 378 -828 732 -1138 1200 -323 486 -554 1023 -676 1572 -39 175 -61 301
-72 410 -6 61 -15 128 -21 150 -6 24 -13 210 -15 457 -4 343 -2 436 11 525 9
59 20 151 26 203 12 109 43 281 70 390 11 41 24 98 29 125 9 44 29 111 85 295
106 343 377 901 567 1167 24 34 71 101 104 149 68 99 83 117 220 280 382 457
899 871 1428 1144 255 131 457 216 722 300 195 63 270 83 383 105 41 8 90 19
110 24 106 28 299 61 392 67 58 3 148 12 200 19 133 18 561 19 702 1z"/>
<path d="M6527 11960 c-81 -10 -92 -24 -92 -113 l0 -72 -36 3 c-28 3 -44 -3
-80 -32 -24 -19 -78 -62 -119 -95 -141 -111 -141 -112 -147 -163 -5 -47 9 -88
152 -436 15 -35 25 -66 22 -68 -5 -5 -167 349 -167 365 0 22 -53 51 -95 51
-35 0 -52 -7 -89 -37 -25 -21 -90 -75 -145 -121 -56 -45 -105 -91 -111 -102
-13 -25 -13 -106 1 -132 11 -20 10 -20 -12 -4 -48 33 -70 24 -278 -116 -114
-77 -131 -97 -131 -153 0 -47 9 -62 117 -193 l82 -100 -66 -8 c-67 -7 -67 -7
-94 25 -74 89 -150 106 -215 49 -21 -18 -58 -59 -83 -91 l-46 -58 -135 -45
c-543 -181 -1036 -588 -1357 -1120 -164 -270 -271 -558 -331 -884 -24 -135
-26 -165 -27 -442 l0 -297 -50 -3 c-79 -5 -81 5 75 -323 26 -55 70 -152 98
-215 27 -63 88 -196 134 -295 47 -99 100 -214 118 -255 17 -41 40 -93 50 -115
11 -22 53 -114 95 -205 42 -91 103 -223 135 -295 77 -174 93 -209 161 -353 33
-68 59 -125 59 -128 0 -3 52 -118 116 -257 106 -229 146 -315 243 -532 59
-132 64 -140 93 -143 15 -2 60 11 100 29 40 17 109 45 153 61 44 16 152 56
240 88 88 32 228 84 310 115 83 31 258 97 390 145 132 49 294 110 360 135 169
65 370 140 510 190 66 24 199 73 295 110 196 75 280 107 455 170 66 24 150 54
186 68 l67 25 -5 -411 c-5 -367 -4 -416 11 -451 21 -49 20 -80 -1 -113 -17
-25 -18 -75 -18 -683 0 -604 1 -658 18 -692 20 -45 104 -113 202 -166 66 -35
75 -37 160 -37 81 0 96 3 150 32 77 40 199 161 222 221 14 36 15 74 10 270 -3
125 -13 367 -21 537 -9 171 -17 351 -20 400 -2 50 -8 115 -13 145 -8 41 -7 63
3 87 16 38 18 314 4 488 -5 61 -12 227 -16 370 l-7 260 44 17 c85 32 236 88
564 207 77 28 163 60 190 72 28 11 160 61 295 110 135 50 290 108 345 130 55
22 204 77 330 124 127 46 295 108 375 138 781 294 1327 497 1485 554 116 41
127 48 94 62 -24 10 -662 33 -1399 51 -217 6 -573 16 -790 25 -217 8 -458 15
-535 17 -77 1 -161 5 -187 8 l-46 5 25 29 24 29 192 -7 c106 -3 293 -13 417
-21 124 -8 360 -19 525 -25 165 -7 333 -15 373 -20 139 -15 190 17 223 140 26
101 25 126 -10 161 -29 28 -32 29 -128 29 -126 0 -594 12 -591 16 6 5 402 44
563 55 279 19 277 17 286 188 7 137 -4 182 -52 201 -30 13 -59 11 -224 -10
-49 -6 -182 -22 -295 -36 -113 -13 -260 -31 -328 -40 -197 -26 -168 -12 118
55 180 42 576 138 638 155 67 18 100 40 113 74 6 15 12 85 12 155 l2 128 -33
30 c-38 34 -85 38 -153 13 -24 -9 -73 -24 -109 -34 -36 -10 -121 -34 -189 -54
-206 -59 -162 -38 149 74 389 139 407 147 435 184 39 53 145 319 145 364 0 40
-22 85 -52 106 -50 35 -81 24 -439 -155 -187 -94 -343 -168 -346 -165 -3 2 14
14 37 26 23 12 73 41 110 65 84 54 201 125 205 125 4 0 170 99 360 215 50 30
126 76 170 102 47 29 89 62 103 83 21 32 23 44 20 132 -4 137 -10 142 -167
146 -97 3 -125 0 -151 -13 l-33 -17 21 27 c60 75 19 215 -71 244 -48 16 -368
40 -415 31 -41 -7 -77 -37 -352 -295 -147 -138 -168 -153 -70 -50 249 261 240
250 240 292 0 47 -40 111 -75 118 -14 3 -36 7 -49 10 -13 3 -73 5 -132 6 -91
1 -111 -2 -133 -19 -24 -17 -103 -106 -433 -484 -104 -120 -147 -164 -98 -100
34 45 201 269 264 356 33 44 87 119 120 165 92 126 96 133 96 178 0 57 -30 90
-144 158 -71 42 -102 55 -133 55 l-39 0 -24 103 c-44 192 -64 217 -170 216
-134 -1 -218 -13 -248 -36 l-30 -22 -5 40 c-6 46 -64 140 -101 165 -18 11 -64
18 -152 24 -199 13 -216 1 -254 -185 -12 -54 -38 -171 -59 -260 -21 -88 -46
-195 -56 -238 -19 -90 -31 -98 -16 -10 6 32 22 144 36 248 14 105 35 245 46
311 18 108 19 126 6 155 -22 52 -46 68 -182 115 -127 44 -197 54 -236 34 -17
-10 -19 -7 -19 33 0 63 -29 99 -150 183 -182 127 -217 138 -271 85 l-29 -30 5
-113 c2 -62 7 -205 9 -318 l4 -205 -13 135 c-16 167 -31 332 -46 515 -6 77
-17 155 -25 173 -7 18 -55 79 -106 135 -51 57 -105 117 -120 135 -50 57 -116
54 -152 -7 l-19 -34 32 -321 c18 -176 41 -400 51 -496 10 -96 21 -206 24 -245
6 -67 5 -65 -13 30 -10 55 -24 120 -31 145 -7 25 -21 95 -31 155 -10 61 -27
160 -38 220 -11 61 -34 189 -51 285 -40 226 -46 247 -80 282 l-28 28 -149 -1
c-81 -1 -174 -5 -206 -9z m287 -147 c6 -21 26 -128 56 -303 12 -69 30 -168 41
-220 10 -52 25 -140 34 -195 9 -55 22 -125 30 -155 8 -30 28 -136 46 -235 35
-202 57 -326 94 -530 14 -77 30 -178 35 -225 11 -98 29 -204 66 -377 14 -67
24 -130 22 -140 -5 -19 -7 -12 -48 157 -12 52 -34 128 -47 169 -13 40 -42 137
-63 215 -21 77 -57 204 -79 281 -22 77 -65 235 -95 350 -31 116 -65 239 -77
275 -12 36 -38 130 -59 210 -98 380 -153 591 -171 653 -11 37 -17 72 -14 77 3
6 55 10 115 10 95 0 109 -2 114 -17z m510 -283 c3 -41 13 -163 21 -271 8 -108
17 -203 20 -210 2 -8 11 -115 20 -239 8 -124 20 -252 25 -285 6 -33 15 -134
20 -225 6 -91 17 -223 25 -295 19 -178 21 -311 5 -362 -7 -24 -16 -43 -20 -43
-4 0 -12 53 -19 118 -6 64 -16 140 -21 167 -5 28 -12 82 -15 120 -3 39 -10 97
-15 130 -5 33 -14 110 -20 170 -6 61 -17 175 -26 255 -8 80 -21 215 -29 300
-8 85 -22 216 -30 290 -20 187 -55 534 -55 551 0 8 24 -11 54 -41 52 -54 53
-56 60 -130z m-885 -100 c11 -30 57 -179 101 -330 45 -151 99 -331 121 -400
55 -178 116 -389 146 -505 36 -143 68 -257 125 -440 57 -182 67 -230 48 -223
-7 2 -43 80 -80 173 -37 94 -79 197 -93 230 -36 86 -117 292 -117 299 0 3 -17
45 -39 93 -21 49 -57 135 -81 193 -23 58 -50 125 -60 150 -11 25 -31 77 -45
115 -26 69 -96 243 -201 502 -78 192 -79 171 13 241 43 32 85 67 93 77 14 17
16 12 31 -51 9 -38 26 -94 38 -124z m1329 -160 l53 -35 -6 -215 c-4 -118 -10
-354 -16 -525 -5 -170 -9 -372 -9 -449 l0 -138 -35 31 c-20 17 -42 31 -49 31
-11 0 -15 56 -20 288 -4 158 -11 415 -16 572 -6 157 -10 336 -10 398 l0 114
28 -19 c15 -10 51 -34 80 -53z m-1712 -267 c53 -115 123 -264 156 -333 85
-175 153 -328 168 -375 7 -22 27 -68 46 -102 19 -34 34 -68 34 -76 0 -9 3 -17
8 -19 16 -7 375 -788 362 -788 -4 0 -72 107 -151 238 -78 130 -149 246 -156
257 -54 76 -208 351 -200 356 5 4 -2 15 -17 24 -15 10 -36 36 -48 59 -20 40
-50 88 -133 216 -67 102 -167 267 -220 360 -27 47 -73 123 -103 169 l-55 84
29 21 c16 11 61 48 99 82 52 45 72 58 78 48 4 -8 51 -107 103 -221z m2127 22
c75 -26 78 -28 73 -54 -4 -14 -24 -154 -46 -311 -21 -157 -53 -377 -69 -490
-17 -113 -35 -243 -41 -290 -10 -85 -15 -114 -47 -312 l-17 -107 -31 67 -31
67 7 140 c4 77 12 192 18 255 13 127 48 609 62 850 11 186 16 223 32 216 7 -2
47 -16 90 -31z m599 -167 c22 -24 28 -39 25 -57 -5 -25 -179 -548 -213 -641
-17 -47 -120 -344 -195 -561 -37 -111 -46 -127 -70 -136 -39 -15 -69 -68 -69
-123 0 -53 -32 -176 -60 -229 l-18 -36 5 45 c3 25 13 79 24 120 10 41 30 127
44 190 14 63 37 160 50 215 13 55 36 152 50 215 14 63 42 180 62 260 73 296
128 524 149 625 8 39 19 87 25 108 l10 37 75 0 c73 0 77 -1 106 -32z m-3157
-130 c105 -158 193 -295 230 -357 17 -27 79 -123 139 -213 60 -90 126 -188
146 -218 20 -30 52 -78 72 -106 34 -48 329 -488 411 -614 20 -30 57 -86 82
-124 25 -37 44 -70 42 -73 -3 -2 -54 58 -115 134 -61 76 -168 208 -237 293
-70 85 -170 209 -222 275 -53 66 -122 149 -153 185 -31 36 -78 94 -105 130
-27 36 -74 94 -105 130 -31 36 -98 119 -149 185 -51 66 -104 130 -117 142 -13
12 -62 69 -108 126 l-84 105 87 60 c47 33 91 60 96 61 6 0 46 -54 90 -121z
m3634 -114 l24 -101 -68 -114 c-37 -63 -89 -148 -116 -189 -26 -41 -89 -145
-139 -230 -51 -85 -105 -173 -120 -195 -15 -22 -38 -60 -52 -85 -29 -51 -192
-323 -215 -358 -15 -24 -15 -24 -29 -4 -13 19 -11 29 15 99 82 220 323 823
450 1128 21 50 41 102 45 117 6 25 11 27 64 31 124 8 113 15 141 -99z m324
-287 c6 -2 -9 -31 -33 -64 -25 -33 -76 -104 -115 -158 -38 -53 -102 -138 -141
-188 -39 -51 -92 -123 -119 -162 -26 -38 -76 -106 -110 -150 -34 -44 -76 -102
-95 -130 -18 -27 -77 -108 -130 -180 -54 -71 -110 -149 -125 -173 l-29 -44
-13 26 c-12 24 -11 30 19 74 18 27 60 93 93 146 33 53 79 126 103 162 23 35
42 67 42 70 0 3 17 31 39 62 21 32 80 125 132 207 51 83 131 209 178 282 47
72 107 167 134 211 l47 80 56 -33 c31 -19 61 -36 67 -38z m-4453 39 c8 -14
159 -172 336 -353 176 -180 463 -476 637 -657 287 -298 316 -331 310 -355 -3
-14 -7 -28 -9 -30 -3 -3 -50 37 -243 209 -53 47 -148 130 -211 185 -63 54
-158 137 -210 185 -52 47 -126 112 -165 145 -118 102 -344 301 -478 422 l-127
115 37 43 c21 23 51 58 66 78 15 21 31 37 35 37 4 0 14 -11 22 -24z m505 -210
c28 -32 83 -100 122 -150 40 -50 109 -134 152 -186 44 -52 119 -144 166 -205
l86 -110 -118 120 c-65 66 -230 235 -366 375 l-247 255 57 5 c53 5 60 3 78
-20 11 -14 43 -51 70 -84z m-726 -63 c36 -31 98 -86 137 -122 38 -36 169 -151
289 -256 120 -104 264 -231 319 -280 56 -50 151 -133 211 -184 136 -117 167
-146 95 -93 -30 23 -131 97 -225 164 -93 68 -200 145 -237 173 -37 27 -102 75
-144 105 -43 30 -141 102 -218 159 -176 131 -224 161 -253 161 -32 0 -80 -26
-93 -49 -13 -25 -13 -374 0 -422 13 -47 43 -73 179 -154 l114 -69 -34 -11
c-55 -19 -59 -36 -59 -282 0 -220 0 -222 24 -250 14 -16 42 -37 63 -45 21 -9
110 -48 198 -86 249 -108 438 -189 463 -196 34 -11 151 -67 127 -62 -33 8
-289 82 -435 126 -74 23 -182 54 -240 70 -58 16 -127 36 -155 44 -27 9 -74 16
-103 16 -43 0 -58 -5 -77 -25 -25 -24 -25 -25 -25 -229 l0 -204 26 -31 c32
-38 91 -56 249 -77 135 -17 270 -41 240 -43 -11 0 -92 6 -180 14 -246 22 -260
22 -301 -19 l-34 -34 0 -168 c0 -188 8 -233 48 -265 23 -18 35 -20 87 -15 33
4 125 8 205 11 l145 4 -185 -20 c-102 -10 -199 -26 -217 -34 -56 -25 -64 -56
-70 -265 l-6 -188 26 -26 c14 -14 37 -26 50 -26 23 0 354 73 547 120 47 11
171 40 275 65 105 24 199 47 210 51 11 4 17 4 14 0 -6 -7 -166 -64 -554 -197
-446 -154 -519 -182 -548 -211 -26 -26 -28 -33 -24 -86 6 -76 87 -289 122
-319 35 -31 78 -29 150 6 33 16 137 62 230 101 196 83 444 190 660 284 83 36
152 66 155 66 10 0 -146 -87 -315 -174 -93 -49 -236 -127 -317 -173 -82 -45
-153 -83 -158 -83 -24 0 -60 -50 -60 -82 0 -68 49 -98 160 -98 30 0 129 -9
220 -20 219 -26 285 -26 330 1 19 12 104 74 189 138 162 122 309 231 351 259
14 9 56 41 94 72 38 30 94 73 125 94 98 69 454 334 524 391 63 52 70 55 122
55 53 0 55 -1 55 -27 -1 -16 -5 -210 -10 -433 -8 -406 -7 -433 26 -452 14 -9
8 -45 -12 -68 -19 -22 -53 -102 -54 -125 -1 -23 -212 -185 -241 -185 -18 0
-71 45 -224 192 -51 50 -88 78 -103 78 -33 0 -139 -56 -146 -78 -4 -10 3 -76
14 -148 12 -71 23 -152 27 -181 6 -52 5 -52 -28 -67 -54 -25 -261 -103 -291
-110 -35 -8 -40 -3 -141 163 -45 74 -90 139 -98 144 -19 12 -219 -28 -247 -49
-14 -10 -18 -40 -22 -186 -3 -95 -9 -179 -13 -185 -13 -20 -350 -18 -367 2 -7
8 -18 72 -25 143 -25 244 -28 264 -40 276 -17 16 -223 42 -243 30 -8 -6 -53
-84 -99 -174 -46 -91 -90 -171 -97 -178 -10 -11 -33 -6 -123 26 -187 67 -182
61 -147 209 58 248 59 259 44 279 -22 26 -169 94 -188 87 -9 -3 -41 -27 -71
-52 -97 -83 -217 -177 -232 -183 -18 -7 -52 11 -137 72 -124 88 -162 121 -162
138 0 10 52 96 115 192 63 96 115 184 115 196 0 31 -175 194 -208 194 -13 0
-41 -9 -61 -20 -92 -50 -277 -131 -294 -128 -23 4 -196 328 -197 368 0 19 27
51 119 137 65 62 121 120 123 130 8 30 -53 218 -78 243 -7 7 -53 1 -145 -19
-211 -47 -217 -48 -227 -20 -50 132 -75 386 -61 615 36 578 269 1101 682 1530
198 206 392 353 621 471 100 51 287 131 310 132 5 1 39 -25 75 -56z m5029 -82
c-327 -351 -771 -824 -953 -1014 -202 -212 -220 -228 -223 -202 -2 17 5 40 20
60 24 34 155 184 333 380 56 60 141 157 190 214 96 111 170 196 410 470 l149
171 74 0 74 0 -74 -79z m730 -17 c41 -5 62 -11 62 -20 0 -7 -24 -30 -54 -51
-29 -21 -120 -90 -201 -153 -82 -63 -197 -152 -256 -197 -60 -45 -149 -115
-199 -155 -49 -40 -127 -101 -172 -135 -46 -34 -132 -101 -193 -148 -468 -364
-486 -377 -505 -360 -9 8 -26 18 -38 22 -22 8 -19 12 45 73 37 36 138 128 223
205 85 77 202 185 261 240 58 55 190 179 293 275 103 96 246 230 319 297 l132
123 110 -4 c61 -3 138 -8 173 -12z m-5458 -466 c85 -61 198 -143 250 -182 53
-39 124 -91 159 -116 60 -43 139 -101 521 -382 261 -192 268 -197 275 -225 3
-14 4 -27 2 -29 -2 -2 -73 38 -158 90 -85 51 -208 126 -274 165 -66 39 -230
138 -365 220 -135 82 -341 207 -459 278 -118 70 -220 133 -227 141 -10 9 -13
44 -11 131 l2 117 65 -48 c36 -27 135 -99 220 -160z m2541 151 c92 -137 216
-448 226 -573 3 -34 10 -69 14 -78 5 -9 13 -47 18 -85 8 -54 15 -73 36 -90 58
-51 141 -18 225 89 62 78 92 144 136 307 6 18 38 -23 68 -88 12 -27 28 -56 34
-63 20 -25 71 -163 88 -243 14 -59 17 -114 15 -210 -2 -71 -4 -160 -4 -197 -3
-94 8 -103 121 -103 78 0 93 4 147 32 63 33 129 94 163 152 17 29 21 30 26 14
12 -36 25 -168 26 -245 0 -92 -33 -268 -60 -321 -11 -21 -20 -43 -20 -51 0 -7
-16 -31 -35 -53 -42 -49 -55 -81 -55 -136 -1 -59 -20 -105 -75 -187 l-49 -70
-75 0 c-77 0 -239 -29 -411 -74 -209 -55 -232 -58 -455 -66 -121 -4 -282 -14
-357 -21 -136 -13 -207 -9 -383 20 -129 22 -308 97 -425 178 -100 68 -206 214
-243 334 -35 115 -39 140 -41 251 -2 87 0 96 14 83 25 -22 225 -115 249 -115
13 0 36 13 52 29 39 40 38 76 -6 137 -90 126 -153 324 -161 511 l-5 112 53
-55 c56 -60 177 -134 218 -134 37 0 88 35 96 67 4 15 -1 75 -11 134 -17 103
-17 111 0 186 18 77 59 182 89 224 14 21 15 20 40 -29 58 -115 204 -176 290
-122 116 73 223 255 287 489 19 71 28 86 53 102 17 11 34 19 38 19 4 0 26 -28
49 -61z m3289 28 c0 -30 -6 -36 -67 -72 -38 -21 -113 -66 -168 -100 -55 -34
-194 -118 -310 -187 -115 -69 -246 -147 -290 -173 -44 -27 -132 -80 -195 -118
-63 -38 -164 -100 -225 -136 -192 -117 -216 -131 -222 -131 -3 0 12 13 33 28
79 57 275 192 280 192 2 0 44 28 92 63 98 70 84 60 264 182 73 49 151 104 173
121 22 17 102 74 178 125 149 101 157 107 268 187 68 48 77 52 131 52 l58 0 0
-33z m-205 -589 c-8 -18 -26 -64 -41 -103 -27 -72 -49 -105 -68 -105 -6 0 -72
-23 -146 -51 -74 -28 -164 -61 -200 -74 -168 -60 -237 -86 -356 -135 -71 -28
-154 -60 -184 -70 -149 -50 -399 -144 -479 -181 -24 -11 -45 -18 -47 -17 -3 4
40 27 171 91 241 118 347 171 830 414 286 144 523 262 527 262 4 1 1 -14 -7
-31z m-5295 -293 c30 -18 138 -75 240 -128 102 -52 228 -118 280 -147 52 -29
123 -68 157 -87 55 -30 62 -37 53 -53 -6 -10 -10 -41 -10 -69 0 -28 -2 -51 -4
-51 -5 0 -75 28 -111 45 -69 32 -356 156 -425 184 -126 50 -217 89 -354 150
-72 32 -153 67 -181 78 l-50 19 -3 137 -3 137 178 -91 c98 -51 203 -107 233
-124z m5082 -352 c-2 -32 -7 -61 -11 -64 -5 -6 -362 -94 -811 -200 -91 -22
-201 -50 -245 -63 -44 -13 -129 -36 -190 -50 -60 -15 -119 -29 -131 -32 -18
-5 -20 -2 -16 25 4 28 10 32 81 55 42 14 103 32 136 40 87 21 165 43 290 81
61 18 151 45 200 59 50 14 162 46 250 71 88 25 201 57 250 71 50 14 113 34
140 44 28 10 53 18 56 19 3 0 4 -25 1 -56z m-5492 -117 c69 -19 177 -50 240
-69 101 -30 385 -112 665 -193 50 -14 120 -35 158 -47 l67 -21 0 -39 c0 -36
-2 -39 -22 -34 -13 4 -57 11 -98 17 -147 22 -397 61 -515 81 -66 10 -167 26
-225 34 -58 9 -112 17 -120 20 -8 2 -71 11 -140 20 -190 24 -170 6 -170 152 0
114 1 124 18 119 9 -3 73 -21 142 -40z m5510 -404 l0 -49 -177 -12 c-98 -7
-243 -19 -323 -27 -80 -8 -192 -19 -250 -24 -58 -5 -154 -14 -215 -20 -60 -6
-195 -17 -300 -25 -104 -8 -212 -18 -239 -22 l-49 -6 19 26 c21 29 32 31 209
52 66 7 181 21 255 29 359 43 478 57 515 61 22 2 112 13 200 24 204 26 304 38
333 40 20 1 22 -3 22 -47z m-5180 -163 c212 -16 446 -34 520 -39 382 -26 340
-20 361 -54 10 -16 17 -31 16 -32 -5 -4 -374 -25 -517 -28 -170 -5 -605 -22
-767 -31 l-103 -6 0 117 0 116 53 -6 c28 -3 225 -20 437 -37z m4445 -234 c259
-8 504 -15 547 -15 71 0 76 -1 71 -20 -3 -11 -9 -23 -14 -26 -5 -2 -95 0 -201
6 -106 6 -303 15 -438 20 -229 9 -440 20 -725 39 -118 8 -116 8 85 9 113 1
417 -5 675 -13z m-3445 -136 c-19 -4 -73 -17 -120 -27 -47 -11 -213 -52 -370
-90 -306 -76 -965 -232 -981 -232 -10 0 -12 56 -3 151 l7 67 46 6 c25 3 163
17 306 31 381 38 436 43 601 60 82 9 199 20 259 25 61 6 119 12 130 14 11 2
52 3 90 3 58 1 64 -1 35 -8z m370 -154 l25 -14 -40 -16 c-22 -9 -92 -39 -157
-66 -64 -27 -122 -49 -130 -49 -7 0 -22 -6 -33 -13 -22 -15 -199 -98 -285
-132 -30 -13 -143 -61 -250 -108 -107 -47 -238 -104 -290 -126 -52 -23 -124
-55 -160 -70 -36 -16 -141 -61 -235 -101 -93 -39 -183 -78 -200 -85 -23 -11
-31 -11 -37 -2 -15 24 -61 158 -55 163 3 3 117 44 254 90 136 47 304 106 373
131 123 45 547 193 685 238 39 13 102 35 140 50 39 14 125 44 192 65 67 21
130 43 140 49 24 14 33 13 63 -4z m1134 -145 c4 -41 5 -229 1 -417 l-7 -344
-184 1 -184 1 5 102 c3 56 7 239 10 406 3 167 7 306 9 308 4 5 231 18 301 18
l40 0 9 -75z m-1024 -90 c-34 -29 -123 -96 -255 -190 -35 -25 -94 -69 -131
-98 -270 -209 -622 -462 -644 -462 -14 0 -94 7 -177 17 l-153 16 33 20 c17 11
147 81 287 155 140 74 260 138 265 142 11 8 83 47 325 172 85 45 160 85 167
90 15 12 306 168 313 168 3 -1 -11 -14 -30 -30z m1034 -1177 c3 -126 11 -327
17 -448 6 -121 13 -306 16 -411 l6 -191 -33 -6 c-42 -9 -221 -9 -329 0 l-84 6
5 381 c3 210 2 491 -2 626 -4 135 -5 250 -3 257 4 10 53 13 203 13 l198 0 6
-227z m-175 -1343 l208 0 7 -192 c4 -106 14 -310 22 -453 7 -143 14 -319 14
-392 l0 -132 -41 -48 c-86 -99 -175 -139 -253 -113 -20 6 -69 33 -109 60 -73
47 -74 48 -81 100 -4 28 -6 306 -6 616 2 496 4 565 17 560 8 -3 108 -6 222 -6z"/>
<path d="M7708 8284 c-15 -8 -35 -28 -43 -44 l-15 -30 -42 28 c-36 23 -51 27
-110 26 -73 -2 -111 -19 -129 -57 -9 -19 -16 -22 -63 -19 -69 5 -109 -16 -136
-68 -24 -47 -25 -62 -5 -100 13 -25 13 -29 0 -34 -23 -9 -55 -68 -55 -103 0
-34 38 -88 69 -98 16 -5 18 -13 14 -44 -6 -46 17 -93 54 -110 13 -6 43 -11 66
-11 l42 0 -3 -50 c-4 -44 -1 -53 26 -80 27 -26 38 -30 86 -30 50 0 60 4 95 35
42 39 91 48 91 18 0 -29 37 -81 69 -98 40 -20 127 -19 171 3 27 13 39 28 51
65 l16 48 13 -31 c27 -65 103 -90 171 -55 37 19 69 70 69 109 0 25 3 27 23 21
66 -21 86 -18 123 19 33 33 36 40 31 79 -2 23 -8 49 -12 58 -5 13 2 20 29 29
19 6 49 27 66 46 25 29 30 43 30 85 0 94 -50 143 -139 138 -25 -2 -56 0 -68 4
-20 7 -21 13 -16 56 4 34 1 57 -11 80 -37 71 -139 94 -210 46 -24 -16 -51 -25
-75 -25 -34 0 -42 5 -60 35 -29 50 -75 75 -136 75 -27 -1 -62 -7 -77 -16z
m103 -157 c25 -50 67 -73 152 -81 77 -7 117 1 149 31 17 15 18 13 18 -37 0
-50 3 -56 43 -95 27 -26 61 -46 90 -54 l46 -13 -30 -25 c-33 -28 -59 -72 -59
-101 0 -16 -7 -20 -38 -20 -54 -1 -89 -17 -106 -51 l-15 -29 -43 15 c-89 30
-186 -10 -202 -85 -12 -50 -21 -54 -30 -11 -3 17 -22 47 -41 66 l-34 34 -83
-3 c-46 -2 -90 -7 -100 -12 -13 -6 -18 -1 -23 23 -8 38 -58 81 -94 81 -27 0
-28 1 -23 53 3 45 0 58 -19 82 -18 22 -23 40 -21 68 3 37 3 37 48 37 57 0 104
40 104 89 0 39 13 46 36 20 26 -29 88 -59 121 -59 40 0 91 34 110 75 9 19 19
35 22 35 3 0 13 -15 22 -33z"/>
<path d="M3284 12421 c-103 -52 -570 -487 -559 -521 7 -21 299 -310 751 -743
44 -42 88 -77 97 -77 9 0 35 16 57 36 44 40 51 73 22 102 -171 161 -322 317
-322 331 0 22 143 162 190 186 29 15 53 17 165 13 80 -3 163 -13 215 -26 269
-64 270 -65 296 -47 37 24 114 100 114 113 0 25 -34 41 -117 52 -48 6 -119 21
-158 32 -79 23 -271 42 -327 34 -20 -3 -39 -2 -42 3 -3 5 9 37 27 72 28 57 32
73 32 149 -1 97 -10 120 -78 196 -60 66 -160 117 -242 122 -51 3 -69 -1 -121
-27z m184 -169 c21 -10 52 -40 70 -66 44 -66 43 -110 -4 -187 -44 -73 -298
-329 -326 -329 -31 0 -258 218 -258 247 0 27 24 54 192 211 160 151 226 176
326 124z"/>
<path d="M11819 12362 c-9 -4 -99 -84 -200 -178 -101 -94 -220 -203 -265 -242
-44 -38 -126 -112 -181 -164 -55 -51 -123 -112 -151 -136 -32 -26 -52 -51 -52
-64 0 -28 72 -98 100 -98 15 0 53 29 109 84 47 46 120 111 161 146 71 58 119
103 321 297 48 46 92 83 98 83 17 0 13 -25 -10 -54 -12 -15 -47 -77 -79 -139
-59 -115 -96 -185 -110 -202 -4 -5 -33 -59 -65 -120 -32 -60 -85 -156 -117
-213 -69 -123 -72 -150 -24 -198 43 -43 74 -44 161 -4 36 17 68 30 72 30 3 0
53 21 112 46 58 26 160 70 226 99 66 29 145 62 175 73 30 11 84 37 120 56 96
53 137 45 63 -11 -20 -15 -104 -91 -187 -168 -83 -77 -209 -192 -281 -255
-149 -132 -154 -137 -155 -169 0 -28 60 -91 88 -91 24 0 67 35 252 209 74 69
189 173 255 231 65 58 160 143 210 190 50 47 108 99 129 115 48 38 46 49 -33
133 -42 43 -67 62 -84 62 -25 0 -78 -21 -225 -91 -45 -22 -115 -52 -155 -68
-39 -16 -111 -47 -158 -69 -47 -22 -97 -43 -110 -47 -24 -8 -97 -40 -175 -76
-22 -10 -44 -19 -49 -19 -5 0 -16 -6 -24 -14 -22 -19 -61 -30 -61 -17 0 6 23
53 52 103 28 51 95 172 148 268 53 96 114 204 135 240 117 201 145 256 145
286 0 21 -14 43 -51 81 -76 80 -94 90 -130 75z"/>
<path d="M2406 11509 c-15 -11 -47 -53 -73 -92 -26 -40 -70 -103 -99 -142 -84
-110 -87 -115 -149 -205 -32 -47 -78 -109 -102 -139 -72 -89 -71 -92 142 -235
317 -214 658 -448 711 -488 66 -49 87 -49 122 3 15 22 54 77 87 122 34 45 96
134 140 197 43 63 98 138 120 165 63 75 115 157 115 181 0 21 -29 53 -67 73
-35 18 -64 -3 -116 -82 -62 -94 -128 -189 -181 -257 -23 -30 -61 -82 -83 -115
-51 -75 -77 -105 -92 -105 -11 0 -74 41 -233 154 -45 31 -68 54 -68 67 0 11
21 49 48 85 155 214 200 275 239 327 63 83 69 99 49 130 -21 31 -68 51 -98 43
-26 -7 -30 -11 -257 -337 -116 -167 -134 -180 -188 -136 -15 13 -66 50 -113
82 -81 56 -110 81 -110 96 0 3 37 57 83 118 45 62 116 159 157 216 41 58 92
127 113 155 20 27 37 56 37 65 0 13 -82 75 -101 75 -3 0 -18 -9 -33 -21z"/>
<path d="M12965 10814 c-27 -7 -99 -18 -160 -24 -60 -6 -144 -17 -185 -25 -41
-8 -124 -19 -185 -25 -60 -6 -128 -15 -150 -20 -23 -5 -108 -16 -190 -25 -174
-18 -255 -38 -255 -62 0 -29 41 -103 66 -119 21 -14 29 -14 76 -1 29 8 109 21
176 27 103 10 126 10 137 -1 13 -13 155 -246 155 -254 0 -2 16 -31 35 -65 19
-34 35 -72 35 -83 0 -14 -43 -70 -110 -145 -60 -67 -111 -131 -115 -142 -11
-34 54 -150 84 -150 15 0 30 16 151 165 58 70 148 181 200 244 52 64 111 137
129 161 19 25 65 79 101 120 37 41 85 100 108 131 22 31 59 77 81 103 48 56
48 72 -5 154 -34 51 -35 52 -82 51 -26 0 -69 -7 -97 -15z m23 -152 c2 -7 -16
-32 -40 -55 -23 -24 -101 -109 -171 -190 -70 -81 -133 -147 -139 -147 -14 0
-48 30 -48 42 0 5 -16 37 -37 71 -20 34 -46 80 -58 102 -12 23 -28 51 -36 63
-12 20 -12 24 1 32 8 5 25 10 37 10 12 0 67 9 123 20 56 11 127 20 158 20 34
0 83 10 122 24 70 26 81 27 88 8z"/>
<path d="M1693 10448 c-5 -7 -18 -33 -27 -57 -24 -63 -12 -84 102 -177 53 -43
139 -117 192 -164 89 -78 270 -233 365 -312 90 -74 140 -127 130 -136 -6 -6
-33 -7 -70 -1 -146 20 -976 38 -1003 21 -22 -14 -53 -82 -55 -120 l-2 -37 635
4 c349 2 642 7 651 12 18 9 49 89 49 123 -1 26 -36 65 -126 141 -38 32 -108
93 -155 136 -48 43 -152 136 -232 206 -79 71 -206 183 -281 251 -75 67 -143
122 -150 122 -7 0 -18 -6 -23 -12z"/>
<path d="M13485 9950 c-25 -7 -212 -70 -430 -144 -27 -10 -77 -26 -110 -36
-100 -31 -158 -51 -205 -70 -25 -10 -103 -37 -175 -60 -71 -23 -135 -46 -142
-52 -7 -6 -13 -21 -13 -33 0 -24 35 -111 49 -119 4 -3 93 23 196 58 l189 64
45 -18 c139 -55 181 -80 181 -104 0 -15 -56 -99 -154 -230 -245 -326 -246
-328 -246 -375 0 -47 31 -115 56 -125 21 -8 58 16 81 52 10 15 57 83 106 152
48 69 105 149 125 178 115 165 186 253 209 258 20 5 89 -25 310 -136 194 -97
288 -139 295 -132 7 7 4 30 -11 73 -33 98 -55 123 -146 165 -44 20 -168 79
-275 131 -220 107 -261 126 -307 143 -53 20 -43 46 25 65 31 9 84 27 117 40
33 13 98 35 145 50 195 63 202 67 182 142 -20 74 -30 81 -97 63z"/>
<path d="M1238 9128 c-8 -7 -21 -35 -27 -62 -20 -83 -15 -86 239 -136 30 -6
136 -30 235 -54 99 -24 227 -54 285 -66 58 -13 147 -33 198 -46 51 -13 119
-26 152 -30 l60 -7 15 36 c19 45 19 101 1 116 -15 13 -136 45 -206 56 -25 4
-79 15 -120 25 -84 20 -231 53 -330 74 -36 8 -119 26 -185 41 -87 19 -285 62
-301 65 0 0 -7 -6 -16 -12z"/>
<path d="M12716 8631 c-9 -14 6 -129 18 -146 6 -8 45 -21 86 -30 41 -8 93 -19
115 -25 22 -6 66 -15 98 -21 68 -12 87 -38 87 -117 0 -28 9 -94 20 -147 24
-115 27 -227 6 -244 -7 -6 -67 -39 -132 -72 -66 -33 -134 -72 -151 -85 -29
-22 -33 -30 -32 -72 1 -60 11 -93 30 -105 15 -9 178 72 379 189 36 21 124 69
195 107 72 39 180 97 240 130 61 33 157 84 214 115 l103 55 -4 73 c-7 107 -17
118 -129 139 -50 9 -103 21 -118 26 -14 6 -51 15 -81 20 -30 5 -89 18 -130 29
-89 23 -242 59 -400 96 -63 14 -140 34 -170 45 -50 16 -201 49 -228 49 -6 0
-13 -4 -16 -9z m611 -285 c62 -22 231 -64 343 -84 86 -15 105 -22 105 -36 0
-11 -18 -24 -56 -40 -31 -13 -88 -39 -125 -60 -186 -99 -274 -140 -283 -131
-24 25 -56 323 -38 353 10 15 9 15 54 -2z"/>
<path d="M1091 8547 c-15 -19 -18 -114 -4 -128 7 -7 54 -16 105 -20 51 -4 118
-12 148 -17 30 -6 120 -13 200 -17 130 -5 189 -11 379 -33 58 -7 80 -29 40
-39 -27 -7 -216 -103 -389 -198 -151 -83 -278 -151 -423 -226 -64 -33 -122
-69 -128 -80 -5 -11 -9 -50 -7 -87 l3 -67 40 -7 c57 -10 244 -27 425 -39 85
-5 236 -19 335 -30 205 -22 385 -25 403 -7 16 16 16 113 0 126 -7 5 -65 13
-128 17 -63 3 -155 12 -205 20 -49 8 -191 19 -315 26 -124 6 -229 15 -235 20
-14 14 10 32 125 92 58 30 175 92 260 137 85 46 242 130 349 186 107 57 201
110 208 117 20 20 29 149 12 163 -8 6 -95 16 -194 23 -99 6 -198 15 -220 21
-22 5 -133 14 -247 20 -114 6 -247 17 -295 25 -114 19 -227 19 -242 2z"/>
<path d="M13900 7575 c-8 -10 -14 -72 -18 -185 -3 -111 -9 -176 -17 -187 -11
-15 -23 -16 -131 -5 -66 7 -200 17 -299 22 -99 5 -276 14 -394 21 -204 11
-215 11 -228 -7 -17 -24 -17 -128 0 -143 9 -7 108 -15 263 -21 137 -5 310 -14
384 -20 74 -6 194 -14 265 -18 l130 -7 0 -65 c0 -36 -4 -115 -8 -176 -8 -99
-7 -112 10 -133 23 -29 109 -34 128 -8 16 22 34 245 46 567 5 146 12 281 15
302 8 52 -20 78 -85 78 -31 0 -53 -5 -61 -15z"/>
<path d="M1640 7224 c-19 -3 -75 -11 -125 -19 -49 -8 -164 -19 -255 -25 -245
-15 -259 -22 -245 -116 11 -73 31 -80 167 -60 62 8 154 18 203 21 50 3 164 15
255 27 205 26 290 21 369 -19 46 -24 60 -38 89 -91 30 -55 34 -73 39 -160 8
-143 -24 -220 -109 -263 -60 -31 -218 -59 -410 -74 -97 -7 -223 -20 -280 -29
-57 -8 -132 -19 -168 -23 l-65 -8 -3 -65 c-4 -88 2 -92 138 -84 58 3 166 14
240 24 74 10 185 21 245 25 61 3 146 15 190 25 44 10 96 21 115 25 74 15 187
110 230 195 42 83 51 223 24 356 -30 145 -101 243 -220 304 l-69 35 -160 1
c-88 1 -176 0 -195 -2z"/>
<path d="M12722 6503 c-5 -10 -13 -43 -16 -74 -9 -74 3 -85 91 -93 38 -4 104
-13 148 -22 44 -9 125 -22 180 -30 55 -7 127 -20 160 -28 33 -8 93 -17 133
-21 40 -3 94 -12 120 -20 26 -7 88 -18 137 -24 50 -6 106 -15 125 -21 43 -12
87 -13 94 -1 4 5 9 36 12 68 9 87 3 91 -146 108 -68 8 -138 19 -155 25 -16 5
-70 14 -120 20 -49 6 -112 18 -139 26 -28 8 -91 19 -140 25 -50 6 -112 17
-138 24 -26 8 -80 17 -120 20 -40 4 -98 13 -129 21 -73 18 -86 18 -97 -3z"/>
<path d="M2195 4866 c-101 -44 -125 -178 -46 -257 112 -113 296 -12 267 146
-18 94 -131 151 -221 111z"/>
<path d="M12685 4856 c-101 -44 -125 -178 -46 -257 112 -113 296 -12 267 146
-18 94 -131 151 -221 111z"/>
<path d="M2655 4244 c-55 -19 -109 -66 -143 -122 -23 -41 -27 -58 -27 -127 0
-69 4 -86 27 -127 108 -183 358 -183 466 0 23 41 27 58 27 127 0 69 -4 86 -27
127 -68 115 -202 165 -323 122z"/>
<path d="M12195 4214 c-55 -19 -109 -66 -143 -122 -23 -41 -27 -58 -27 -127 0
-69 4 -86 27 -127 108 -183 358 -183 466 0 23 41 27 58 27 127 0 69 -4 86 -27
127 -68 115 -202 165 -323 122z"/>
<path d="M3235 3486 c-101 -44 -125 -178 -46 -257 112 -113 296 -12 267 146
-18 94 -131 151 -221 111z"/>
<path d="M11645 3466 c-101 -44 -125 -178 -46 -257 112 -113 296 -12 267 146
-18 94 -131 151 -221 111z"/>
<path d="M10152 2790 c-88 -19 -228 -111 -272 -179 -55 -86 -63 -117 -57 -213
3 -48 12 -100 19 -115 12 -24 20 -28 53 -27 22 0 54 7 70 15 33 16 34 24 19
156 -6 56 -4 67 19 106 32 54 84 95 145 113 61 19 81 18 148 -7 45 -17 61 -30
84 -66 60 -94 50 -223 -35 -473 -65 -194 -105 -353 -104 -418 0 -26 8 -72 18
-102 17 -53 18 -55 52 -54 23 1 76 27 164 79 215 128 387 230 437 259 56 32
68 61 42 105 -36 61 -53 59 -188 -15 -66 -37 -145 -82 -173 -101 -29 -18 -80
-47 -114 -64 -71 -35 -87 -30 -70 23 6 18 17 56 25 83 8 28 39 123 70 213 81
237 95 389 46 499 -24 54 -102 132 -161 161 -52 25 -170 36 -237 22z"/>
<path d="M4843 2673 c-38 -32 -84 -72 -103 -89 -19 -18 -63 -54 -97 -81 -34
-26 -106 -84 -159 -128 -53 -44 -113 -93 -134 -110 -20 -16 -81 -66 -134 -110
-54 -44 -128 -104 -164 -132 -83 -66 -94 -80 -81 -104 12 -24 89 -69 117 -69
12 0 52 27 89 60 160 140 199 170 220 170 13 0 46 -15 75 -33 29 -19 113 -65
187 -103 73 -38 140 -79 148 -90 11 -18 11 -35 -1 -115 -23 -145 -30 -243 -18
-265 15 -29 129 -81 144 -66 12 12 31 137 48 317 6 66 15 138 20 160 5 22 14
92 20 155 5 63 19 183 30 265 47 369 49 354 -30 398 -73 41 -98 37 -177 -30z
m81 -141 c5 -8 -17 -166 -33 -242 -6 -25 -15 -79 -21 -120 -11 -78 -27 -139
-40 -153 -4 -5 -63 23 -131 62 -67 39 -128 71 -134 71 -19 0 -46 36 -39 51 5
14 157 144 238 205 23 17 64 54 91 82 51 52 60 58 69 44z"/>
<path d="M9575 2501 c-49 -21 -124 -50 -165 -66 -130 -50 -283 -112 -352 -144
-61 -28 -68 -34 -68 -60 0 -42 41 -96 71 -95 13 1 67 19 119 41 52 22 129 52
170 68 41 15 104 41 139 57 39 17 68 25 74 19 5 -5 0 -41 -13 -92 -64 -250
-66 -572 -3 -852 24 -107 29 -118 51 -124 33 -8 132 40 132 64 0 10 -12 54
-25 98 -38 121 -49 242 -42 480 5 192 8 220 36 325 16 63 37 135 46 160 19 51
13 120 -11 145 -23 22 -59 17 -159 -24z"/>
<path d="M5792 2338 c-7 -7 -12 -18 -12 -26 0 -7 -9 -48 -21 -90 -54 -198 -69
-254 -94 -352 -14 -58 -35 -139 -45 -180 -11 -41 -27 -104 -36 -140 -14 -57
-46 -177 -74 -280 -19 -69 -6 -79 150 -111 52 -11 118 -26 145 -33 165 -46
243 -58 336 -54 83 3 103 8 171 41 163 79 289 276 328 514 32 192 -13 367
-121 475 -46 46 -192 128 -228 128 -9 0 -54 11 -101 24 -47 13 -107 28 -135
34 -27 6 -92 22 -144 36 -108 30 -103 30 -119 14z m205 -189 c15 -6 53 -15 83
-20 67 -11 185 -45 226 -66 48 -25 98 -73 130 -128 28 -49 29 -53 29 -185 -1
-126 -3 -141 -33 -223 -66 -187 -142 -266 -279 -296 -44 -9 -71 -7 -160 9 -92
18 -140 29 -275 67 -22 6 -23 28 -2 84 9 24 24 78 34 119 24 102 86 349 110
440 11 41 25 97 31 125 16 79 44 98 106 74z"/>
<path d="M8595 2217 c-166 -56 -273 -180 -292 -337 -6 -48 17 -154 47 -226 25
-57 124 -161 184 -191 40 -21 70 -27 138 -31 81 -4 91 -2 157 28 67 31 113 71
162 141 10 13 21 21 25 16 4 -4 8 -74 8 -155 l1 -147 -32 -50 c-49 -76 -90
-99 -186 -104 l-78 -3 -65 67 c-70 73 -81 76 -149 36 -41 -24 -37 -61 13 -120
73 -86 166 -126 276 -119 255 18 419 236 385 513 -19 155 -67 322 -126 443
-64 128 -89 155 -198 208 -62 29 -90 37 -153 40 -48 2 -92 -1 -117 -9z m159
-128 c124 -31 205 -185 182 -344 -9 -60 -80 -137 -141 -154 -100 -27 -194 -4
-253 64 -39 44 -47 62 -62 144 -22 123 46 254 148 285 58 18 72 19 126 5z"/>
<path d="M7922 2101 c-15 -15 -40 -49 -56 -75 -15 -26 -64 -77 -109 -114 -143
-120 -157 -135 -157 -176 0 -46 15 -76 38 -76 24 0 105 51 174 111 53 46 77
59 79 42 0 -5 3 -39 5 -78 2 -38 11 -118 19 -176 8 -58 19 -180 25 -270 18
-275 27 -342 47 -357 18 -14 110 -11 133 3 14 9 13 78 -5 225 -8 69 -22 199
-30 290 -9 91 -20 201 -25 245 -5 44 -13 148 -18 232 -7 114 -13 158 -26 178
-22 34 -60 33 -94 -4z"/>
<path d="M5156 1523 c-11 -12 -43 -88 -51 -121 -7 -36 12 -53 83 -72 60 -15
80 -6 103 48 29 67 23 82 -46 119 -62 34 -77 38 -89 26z"/>
<path d="M6747 1116 c-12 -13 -17 -35 -17 -81 l0 -64 38 -10 c47 -14 129 -14
137 -1 3 5 8 38 12 72 7 79 -2 88 -90 95 -51 4 -66 2 -80 -11z"/>
</g>
</svg>
