<?xml version="1.0" encoding="UTF-8"?>
<svg version="1.1" xmlns="http://www.w3.org/2000/svg" width="1018" height="102">
<path d="M0 0 C2.93920898 0.09350586 2.93920898 0.09350586 6 1 C7.66821289 2.93579102 7.66821289 2.93579102 8.97265625 5.50390625 C9.47361816 6.46127686 9.97458008 7.41864746 10.49072266 8.4050293 C11.00940918 9.44699463 11.5280957 10.48895996 12.0625 11.5625 C13.19603139 13.74769845 14.33016425 15.93258499 15.46484375 18.1171875 C16.33278564 19.81439941 16.33278564 19.81439941 17.21826172 21.54589844 C20.10318181 27.13864294 23.11707927 32.6602483 26.125 38.1875 C26.66906494 39.19562744 27.21312988 40.20375488 27.77368164 41.24243164 C28.28406982 42.18723389 28.79445801 43.13203613 29.3203125 44.10546875 C29.76648926 44.93199951 30.21266602 45.75853027 30.67236328 46.61010742 C32.06028575 49.10852101 33.51651058 51.55732513 35 54 C35.44134277 53.10099976 35.44134277 53.10099976 35.89160156 52.18383789 C39.02744418 45.84779311 42.33888674 39.62892322 45.75 33.4375 C49.96471434 25.76025582 54.12495944 18.06002834 58.14550781 10.27905273 C61.64784029 3.57186694 61.64784029 3.57186694 64 1 C66.6875 0.75 66.6875 0.75 69 1 C70.84436951 5.03984165 71.49344526 8.74298895 72 13.14453125 C72.08121094 13.83197922 72.16242188 14.51942719 72.24609375 15.22770691 C72.50390856 17.42193717 72.75222381 19.6171158 73 21.8125 C73.1660149 23.24421635 73.33267646 24.67585787 73.5 26.10742188 C73.75045188 28.25248114 74.00035296 30.39759143 74.24780273 32.54299927 C75.84712634 50.55452508 75.84712634 50.55452508 80 68 C80 68.66 80 69.32 80 70 C76.04 70 72.08 70 68 70 C66.94417136 66.83251409 66.78992013 64.32981592 66.625 61 C66.18699492 54.19679203 65.23656642 47.55785463 64.10400391 40.83789062 C63.2194901 35.56892372 62.55000914 30.31499216 62 25 C61.34 25 60.68 25 60 25 C52.34416205 39.4200019 52.34416205 39.4200019 45 54 C44.34 54 43.68 54 43 54 C42.81824219 55.07507813 42.81824219 55.07507813 42.6328125 56.171875 C41.98414661 59.07085095 41.09800378 61.54481283 39.875 64.25 C39.50117187 65.12140625 39.12734375 65.9928125 38.7421875 66.890625 C36.23428114 69.92710356 33.79128053 69.58839085 30 70 C29.51644043 69.08299316 29.03288086 68.16598633 28.53466797 67.22119141 C26.71474634 63.77177386 24.89110021 60.32433648 23.06640625 56.87744141 C22.28188332 55.39424294 21.49832929 53.91053151 20.71582031 52.42626953 C16.71496824 44.83897589 12.71773701 37.28818606 8.19580078 29.99365234 C7.02282995 28.03806235 5.99189289 26.05245085 5 24 C2.55716634 26.44283366 2.67727797 27.38290512 2.4375 30.75 C2.15167494 34.55322325 1.66076189 38.24282106 1 42 C-0.60929249 51.34144001 -1.50299922 60.54390619 -2 70 C-4.97 70 -7.94 70 -11 70 C-12.03753006 66.88740982 -11.99640541 66.05689065 -11.328125 62.9921875 C-11.15982178 62.18313965 -10.99151855 61.3740918 -10.81811523 60.54052734 C-10.63063721 59.66090332 -10.44315918 58.7812793 -10.25 57.875 C-8.60105289 49.73621234 -7.36895693 41.62604489 -6.4375 33.375 C-5.55054906 25.58486483 -4.6181647 17.81430872 -3.4375 10.0625 C-3.32269287 9.26956543 -3.20788574 8.47663086 -3.08959961 7.65966797 C-2.23804535 2.23804535 -2.23804535 2.23804535 0 0 Z " fill="#F9FAFC" transform="translate(663,10)"/>
<path d="M0 0 C7.51951858 5.13459664 11.93104108 12.80937605 13.71875 21.6796875 C14.93229441 32.05482541 13.18915656 41.02274312 6.62890625 49.32421875 C-0.06022407 56.40211903 -6.63472595 59.58998114 -16.40625 59.8671875 C-27.05539169 59.67292455 -36.32545551 57.53496225 -44.1328125 49.859375 C-48.14394557 44.97883377 -49.94623732 39.79522351 -51.28125 33.6796875 C-51.4359375 33.01066406 -51.590625 32.34164062 -51.75 31.65234375 C-53.28056636 23.14726476 -51.1490278 13.78519002 -46.28125 6.6796875 C-34.85246388 -8.04534426 -15.53837345 -8.9930997 0 0 Z M-33.71875 3.8671875 C-40.00210128 10.0491944 -41.42588944 16.25292193 -41.53125 24.8046875 C-41.51566901 34.01194211 -40.02081032 41.73100158 -34.07421875 48.984375 C-29.76913552 53.05497657 -24.64618522 54.85215185 -18.78125 55.1796875 C-13.75340352 54.89012566 -9.40887067 53.6069682 -5.28125 50.6796875 C1.55170681 42.7437167 3.16610981 33.94851243 2.71875 23.6796875 C1.41163226 16.84667081 -1.10065077 9.5603573 -6.28125 4.6796875 C-14.64601283 -0.86281795 -25.51461831 -2.98977127 -33.71875 3.8671875 Z " fill="#F8FAFB" transform="translate(564.28125,21.3203125)"/>
<path d="M0 0 C0.05026756 5.24290647 0.08611954 10.48566597 0.10986328 15.72875977 C0.11978449 17.50417531 0.13332571 19.27957515 0.15087891 21.05493164 C0.44020758 51.11958484 0.44020758 51.11958484 -3 58 C-3.66 58 -4.32 58 -5 58 C-5.061875 58.556875 -5.12375 59.11375 -5.1875 59.6875 C-6.56554525 63.6096288 -9.18843541 66.0942177 -12.8984375 67.94921875 C-22.70689572 71.80119947 -34.09465322 72.29341392 -44 68.375 C-49.68665728 65.4416591 -53.11392829 61.40505177 -55.3125 55.4375 C-55.539375 54.303125 -55.76625 53.16875 -56 52 C-56.17265381 51.14970215 -56.34530762 50.2994043 -56.52319336 49.42333984 C-57.15674281 44.87462997 -57.23409446 40.37674827 -57.31640625 35.7890625 C-57.33718735 34.82092621 -57.35796844 33.85278992 -57.37937927 32.85531616 C-57.44448984 29.77861268 -57.50357998 26.70182764 -57.5625 23.625 C-57.60572186 21.53254383 -57.6493373 19.44009574 -57.69335938 17.34765625 C-57.80013156 12.23185331 -57.90150636 7.11596875 -58 2 C-54.71984109 0.22677756 -52.97027096 -0.17209867 -49.25 0.375 C-48.45078125 0.48585938 -47.6515625 0.59671875 -46.828125 0.7109375 C-45.92320313 0.85402344 -45.92320313 0.85402344 -45 1 C-43.875 6.75 -43.875 6.75 -45 9 C-45.13609613 12.04142001 -45.21283359 15.05870272 -45.23828125 18.1015625 C-45.246353 19.0119931 -45.25442474 19.92242371 -45.26274109 20.86044312 C-45.27658904 22.79219658 -45.28730801 24.7239746 -45.29516602 26.65576172 C-45.31231088 29.59260456 -45.35618196 32.52830164 -45.40039062 35.46484375 C-45.4105237 37.34374174 -45.41903787 39.22264929 -45.42578125 41.1015625 C-45.44328934 41.97269684 -45.46079742 42.84383118 -45.47883606 43.74136353 C-45.45849049 49.54002694 -44.4876229 54.24712638 -41 59 C-36.01594812 62.94889708 -30.92922891 63.58969879 -24.68359375 63.3125 C-20.05034704 62.77296618 -15.87223997 62.10626997 -12.65625 58.48828125 C-8.68347613 52.17440849 -8.8472623 44.85836029 -8.8671875 37.6171875 C-8.86623077 36.83989288 -8.86527405 36.06259827 -8.86428833 35.26174927 C-8.86361189 33.62973957 -8.86542854 31.99772709 -8.86962891 30.36572266 C-8.87499943 27.875264 -8.86965822 25.38498448 -8.86328125 22.89453125 C-8.86394184 21.30208294 -8.86522261 19.70963474 -8.8671875 18.1171875 C-8.86516327 17.37749725 -8.86313904 16.63780701 -8.86105347 15.8757019 C-8.8780678 12.10933772 -9.21303626 8.67498 -10 5 C-9.5625 2.1875 -9.5625 2.1875 -9 0 C-5.64998162 -1.11667279 -3.40745188 -0.76286236 0 0 Z " fill="#F9FAFB" transform="translate(69,11)"/>
<path d="M0 0 C1.52519276 0.08937803 3.04681929 0.24537146 4.5625 0.4375 C5.38878906 0.53933594 6.21507812 0.64117188 7.06640625 0.74609375 C7.70449219 0.82988281 8.34257812 0.91367187 9 1 C8.83701416 1.88824463 8.67402832 2.77648926 8.50610352 3.69165039 C7.69475819 9.41113855 7.87731894 15.16961015 7.90234375 20.93359375 C7.90446617 22.78320457 7.90446617 22.78320457 7.90663147 24.67018127 C7.91221059 28.59264595 7.92475932 32.51505269 7.9375 36.4375 C7.94308302 39.10351479 7.94708013 41.76952904 7.95117188 44.43554688 C7.96217319 50.95705088 7.97889055 57.4785213 8 64 C2.84206028 63.07115944 0.77816899 61.6024402 -3 58 C-3 57.34 -3 56.68 -3 56 C-3.5775 55.773125 -4.155 55.54625 -4.75 55.3125 C-7.59739809 53.65151778 -9.12067193 51.68475439 -11 49 C-11 48.34 -11 47.68 -11 47 C-11.54011719 46.79761719 -12.08023438 46.59523437 -12.63671875 46.38671875 C-15.96509922 44.43370211 -18.277102 41.66822194 -20.8125 38.8125 C-21.87503236 37.63427039 -22.93882797 36.4571787 -24.00390625 35.28125 C-24.5158252 34.71535156 -25.02774414 34.14945313 -25.55517578 33.56640625 C-27.38820578 31.57912669 -29.30506333 29.68982129 -31.25 27.8125 C-34 25 -34 25 -34 23 C-35.32 22.67 -36.64 22.34 -38 22 C-38.02481234 26.87467075 -38.0429131 31.74930432 -38.05493164 36.62402344 C-38.05994473 38.28060548 -38.06675689 39.93718313 -38.07543945 41.59375 C-38.08763793 43.98178189 -38.09325867 46.36975502 -38.09765625 48.7578125 C-38.10281754 49.49242706 -38.10797882 50.22704163 -38.11329651 50.98391724 C-38.11374023 55.09778822 -37.80210299 58.96450609 -37 63 C-40.11771927 64.60339848 -41.39011689 65.18974141 -44.8125 64.125 C-45.534375 63.75375 -46.25625 63.3825 -47 63 C-47.125 57.25 -47.125 57.25 -46 55 C-45.90544788 53.54564485 -45.87205911 52.08706342 -45.87060547 50.62963867 C-45.86745331 49.7249736 -45.86430115 48.82030853 -45.86105347 47.88822937 C-45.8630777 46.90804337 -45.86510193 45.92785736 -45.8671875 44.91796875 C-45.86623077 43.91163895 -45.86527405 42.90530914 -45.86428833 41.8684845 C-45.86360686 39.73580869 -45.86545883 37.60313082 -45.86962891 35.47045898 C-45.87496093 32.21137802 -45.86969142 28.95243593 -45.86328125 25.69335938 C-45.86394237 23.62239553 -45.86522422 21.55143177 -45.8671875 19.48046875 C-45.86516327 18.50635544 -45.86313904 17.53224213 -45.86105347 16.52861023 C-45.86420563 15.61448868 -45.86735779 14.70036713 -45.87060547 13.75854492 C-45.87140106 12.95849533 -45.87219666 12.15844574 -45.87301636 11.33415222 C-45.94097696 8.93600954 -45.94097696 8.93600954 -46.57058716 6.39009094 C-47 4 -47 4 -46 1 C-41.17965738 1.41317222 -39.09007389 3.38019915 -36 7 C-36 7.66 -36 8.32 -36 9 C-35.41734375 9.24621094 -34.8346875 9.49242187 -34.234375 9.74609375 C-31.62916146 11.20811044 -30.19536627 12.79420293 -28.25 15.0625 C-25.18541572 18.57003259 -22.07084844 22.00056384 -18.85546875 25.37109375 C-18.12875977 26.13349365 -17.40205078 26.89589355 -16.65332031 27.68139648 C-15.18349579 29.21940039 -13.71021599 30.75411006 -12.23339844 32.28540039 C-11.55696289 32.99559326 -10.88052734 33.70578613 -10.18359375 34.4375 C-9.26404907 35.39462891 -9.26404907 35.39462891 -8.32592773 36.37109375 C-7 38 -7 38 -7 40 C-6.360625 40.268125 -5.72125 40.53625 -5.0625 40.8125 C-3 42 -3 42 -2 45 C-1.34 45 -0.68 45 0 45 C0.33 32.79 0.66 20.58 1 8 C0.34 7.67 -0.32 7.34 -1 7 C-1.04254356 5.00045254 -1.04080783 2.99958364 -1 1 C-0.67 0.67 -0.34 0.34 0 0 Z " fill="#F8FAFC" transform="translate(123,16)"/>
<path d="M0 0 C1.0209375 -0.02449219 2.041875 -0.04898437 3.09375 -0.07421875 C10.75109891 -0.1037458 15.85380124 1.30759601 21.93359375 5.9453125 C25.55692107 10.03053707 26.81921593 13.48361153 27.04296875 18.953125 C26.52933659 26.35898401 21.88350682 31.36649318 16.875 36.375 C26.40120782 50.2350233 26.40120782 50.2350233 36.875 63.375 C34.77195523 63.4830023 32.66733091 63.56058987 30.5625 63.625 C29.39074219 63.67140625 28.21898437 63.7178125 27.01171875 63.765625 C23.875 63.375 23.875 63.375 21.95703125 61.546875 C20.875 59.375 20.875 59.375 20.875 56.375 C20.215 56.375 19.555 56.375 18.875 56.375 C17.60986328 54.83032227 17.60986328 54.83032227 16.1953125 52.69140625 C15.67839844 51.92892578 15.16148437 51.16644531 14.62890625 50.38085938 C13.54717281 48.75825921 12.46901428 47.13326981 11.39453125 45.50585938 C10.87503906 44.74208984 10.35554688 43.97832031 9.8203125 43.19140625 C9.35125488 42.48443604 8.88219727 41.77746582 8.39892578 41.04907227 C6.56604311 39.03560278 5.54728822 38.71322036 2.875 38.375 C1.555 38.375 0.235 38.375 -1.125 38.375 C-1.125 46.625 -1.125 54.875 -1.125 63.375 C-4.755 63.375 -8.385 63.375 -12.125 63.375 C-12.11976318 61.70477783 -12.11452637 60.03455566 -12.10913086 58.3137207 C-12.09103103 52.11711157 -12.0795497 45.92050478 -12.07006836 39.72387695 C-12.06560448 37.04189899 -12.05864641 34.35994471 -12.04956055 31.67797852 C-12.03743147 27.82307254 -12.03175713 23.96820282 -12.02734375 20.11328125 C-12.02218246 18.91415604 -12.01702118 17.71503082 -12.01170349 16.47956848 C-12.01162796 15.35878403 -12.01155243 14.23799957 -12.01147461 13.08325195 C-12.009254 12.09952103 -12.00703339 11.1157901 -12.00474548 10.10224915 C-12.04301872 7.35140156 -12.04301872 7.35140156 -12.75709534 4.64323425 C-12.87850388 3.89471695 -12.99991241 3.14619965 -13.125 2.375 C-9.66105459 -1.08894541 -4.69387556 0.00579491 0 0 Z M-0.34838867 5.51708984 C-2.79136558 8.07185888 -2.60048193 9.60713768 -2.55078125 13.1015625 C-2.54240234 14.2153125 -2.53402344 15.3290625 -2.52539062 16.4765625 C-2.49638672 17.63929687 -2.46738281 18.80203125 -2.4375 20 C-2.42783203 21.17046875 -2.41816406 22.3409375 -2.40820312 23.546875 C-2.8344032 28.824954 -2.8344032 28.824954 -1.125 33.375 C3.71904332 33.85940433 7.28444487 33.42934032 11.359375 30.83203125 C14.83720879 27.48864979 15.81226558 22.88437692 15.9296875 18.1875 C15.56065442 13.95164199 14.58498576 10.64567247 11.875 7.375 C7.71976084 4.81112903 4.33321584 3.11228629 -0.34838867 5.51708984 Z " fill="#F9FBFC" transform="translate(275.125,15.625)"/>
<path d="M0 0 C1 1 1 1 1.09765625 3.00952148 C1.08605469 3.87134033 1.07445312 4.73315918 1.0625 5.62109375 C1.05476562 6.55630859 1.04703125 7.49152344 1.0390625 8.45507812 C1.01307199 10.4394538 0.98703052 12.4238288 0.9609375 14.40820312 C0.95320312 15.34470703 0.94546875 16.28121094 0.9375 17.24609375 C0.92589844 18.10904053 0.91429687 18.9719873 0.90234375 19.86108398 C0.85740615 22.05310724 0.85740615 22.05310724 2 24 C3.32 23.34 4.64 22.68 6 22 C6 21.34 6 20.68 6 20 C7.5390625 18.66796875 7.5390625 18.66796875 9.625 17.1875 C12.30403857 15.25422217 14.88105804 13.29176641 17.375 11.125 C20 9 20 9 22 9 C22 8.34 22 7.68 22 7 C23.65002828 5.64613064 25.3174387 4.31321858 27 3 C27.33 2.34 27.66 1.68 28 1 C32.29 1 36.58 1 41 1 C37.59641039 3.72287169 34.23049334 6.29497506 30.6875 8.8125 C25.86934816 12.29479816 21.41902379 16.03292182 17 20 C12.28205128 24 12.28205128 24 10 24 C10.58507861 27.25826731 11.54369872 28.92604769 13.84375 31.28515625 C14.42632568 31.89302979 15.00890137 32.50090332 15.60913086 33.12719727 C16.23311768 33.76584717 16.85710449 34.40449707 17.5 35.0625 C21.84608855 39.59718927 26.03526095 44.13905108 29.9375 49.0625 C32.43977918 52.2102269 34.89941283 54.9381007 38 57.5 C41 60 41 60 42 63 C37.09524493 63.92557475 31.71692118 64.83730185 27.3515625 61.88525391 C23.99160019 58.82931804 21.18544025 55.30430936 18.39013672 51.73632812 C16.32484147 49.156704 14.07103058 46.78695367 11.8125 44.375 C9.42078123 41.78073928 8.12166387 40.36499161 7 37 C6.34 37 5.68 37 5 37 C3.29319053 35.37446717 1.62339805 33.70884005 0 32 C-0.02886984 35.97915159 -0.04675406 39.95827653 -0.0625 43.9375 C-0.07087891 45.07380859 -0.07925781 46.21011719 -0.08789062 47.38085938 C-0.09111328 48.46044922 -0.09433594 49.54003906 -0.09765625 50.65234375 C-0.10289307 51.65257568 -0.10812988 52.65280762 -0.11352539 53.68334961 C-0.26181095 55.96207228 -0.26181095 55.96207228 1 57 C1.04080783 58.99958364 1.04254356 61.00045254 1 63 C-2.63 63 -6.26 63 -10 63 C-11 59 -11 59 -10.55493164 56.48388672 C-9.74456632 51.39637544 -9.99298769 46.39718232 -10.12109375 41.2578125 C-10.14470474 40.13430389 -10.16831573 39.01079529 -10.19264221 37.85324097 C-10.2690029 34.27702323 -10.3531459 30.70103724 -10.4375 27.125 C-10.4907483 24.69532371 -10.5434885 22.26563623 -10.59570312 19.8359375 C-10.72458061 13.8904827 -10.85984218 7.945199 -11 2 C-7.10683745 0.32488074 -4.26692528 -0.29092672 0 0 Z " fill="#F6F9FB" transform="translate(822,16)"/>
<path d="M0 0 C2.65390727 1.79328397 3.29888819 3.41407374 4.55615234 6.35009766 C5.0133667 7.39866943 5.47058105 8.44724121 5.94165039 9.52758789 C6.66735229 11.24570679 6.66735229 11.24570679 7.40771484 12.99853516 C8.19022621 14.80759073 8.9727574 16.61663786 9.75608826 18.42533875 C10.59511618 20.36774156 11.42818295 22.31262927 12.26074219 24.2578125 C14.10944284 28.56609892 16.00023725 32.85532196 17.89599609 37.14306641 C18.85688167 39.32034328 19.81743343 41.49776713 20.77789307 43.67523193 C21.40433261 45.09507771 22.03124243 46.5147161 22.65863037 47.93414307 C23.54046974 49.9320668 24.41801239 51.93182359 25.29443359 53.93212891 C25.79934326 55.0799585 26.30425293 56.22778809 26.82446289 57.41040039 C28.03271484 60.37353516 28.03271484 60.37353516 29.03271484 64.37353516 C25.40271484 64.70353516 21.77271484 65.03353516 18.03271484 65.37353516 C17.62021484 64.07416016 17.20771484 62.77478516 16.78271484 61.43603516 C15.38931293 57.22249445 13.69182632 53.23389549 11.80224609 49.22119141 C11.03271484 47.37353516 11.03271484 47.37353516 11.03271484 45.37353516 C2.45271484 45.37353516 -6.12728516 45.37353516 -14.96728516 45.37353516 C-16.08103516 47.58041016 -17.19478516 49.78728516 -18.34228516 52.06103516 C-18.68952637 52.74641357 -19.03676758 53.43179199 -19.39453125 54.13793945 C-21.0820844 57.49795223 -22.63595021 60.85692819 -23.96728516 64.37353516 C-26.60728516 64.37353516 -29.24728516 64.37353516 -31.96728516 64.37353516 C-31.65757986 60.45060143 -30.62229087 57.48265391 -28.82275391 54.04541016 C-25.78194825 48.08349418 -23.03627207 41.99849608 -20.31054688 35.88818359 C-19.47107487 34.00702746 -18.62764184 32.12768569 -17.78369141 30.24853516 C-14.76346894 23.50606868 -11.83273613 16.73603115 -9.04614258 9.89331055 C-4.23310752 -1.34799627 -4.23310752 -1.34799627 0 0 Z M-2.96728516 16.37353516 C-4.2882901 19.26556195 -5.59754602 22.1627631 -6.90478516 25.06103516 C-7.27796875 25.87765625 -7.65115234 26.69427734 -8.03564453 27.53564453 C-9.7958473 31.45249214 -11.41527157 35.07133406 -11.96728516 39.37353516 C-8.39643502 40.56381853 -5.12121686 40.55751914 -1.40478516 40.56103516 C-0.71964844 40.57328125 -0.03451172 40.58552734 0.67138672 40.59814453 C2.46005597 40.60341049 4.24820333 40.49553536 6.03271484 40.37353516 C6.69271484 39.71353516 7.35271484 39.05353516 8.03271484 38.37353516 C6.38271484 34.08353516 4.73271484 29.79353516 3.03271484 25.37353516 C2.37271484 25.37353516 1.71271484 25.37353516 1.03271484 25.37353516 C0.90896484 24.63103516 0.78521484 23.88853516 0.65771484 23.12353516 C0.07784783 20.57212031 -0.70437255 18.64677785 -1.96728516 16.37353516 C-2.29728516 16.37353516 -2.62728516 16.37353516 -2.96728516 16.37353516 Z " fill="#F7F9FB" transform="translate(898.96728515625,14.62646484375)"/>
<path d="M0 0 C3.07412656 2.23205812 4.03543771 5.27627203 5.39453125 8.69921875 C6.00869229 10.17389642 6.62461596 11.64784109 7.2421875 13.12109375 C7.55043457 13.86423828 7.85868164 14.60738281 8.17626953 15.37304688 C9.47525808 18.44020043 10.90050382 21.44198128 12.33203125 24.44921875 C16.14738231 32.50868728 19.70064884 40.68331444 23.26269531 48.85717773 C25.42454307 53.80555299 27.5905358 58.7197425 30.08203125 63.51171875 C28.34246467 65.25128533 25.88836905 64.88362261 23.51953125 65.07421875 C22.50761719 65.15800781 21.49570312 65.24179688 20.453125 65.328125 C19.67066406 65.38871094 18.88820313 65.44929688 18.08203125 65.51171875 C17.28955461 63.30367316 16.49802995 61.09529378 15.70703125 58.88671875 C15.26617188 57.65695313 14.8253125 56.4271875 14.37109375 55.16015625 C13.23913454 51.95636867 12.15653516 48.73523047 11.08203125 45.51171875 C2.50203125 45.51171875 -6.07796875 45.51171875 -14.91796875 45.51171875 C-15.86671875 47.71859375 -16.81546875 49.92546875 -17.79296875 52.19921875 C-18.08800293 52.88459717 -18.38303711 53.56997559 -18.68701172 54.27612305 C-20.14393672 57.67053205 -21.56424799 61.07484516 -22.91796875 64.51171875 C-25.88796875 64.51171875 -28.85796875 64.51171875 -31.91796875 64.51171875 C-31.34000249 60.97555961 -30.41867412 58.22662813 -28.73046875 55.07421875 C-26.6546253 51.05338732 -24.80220409 46.99355935 -23.04296875 42.82421875 C-20.72603229 37.34728752 -18.29105587 31.94698897 -15.74584961 26.57104492 C-13.96042681 22.7862619 -12.23155817 18.98143675 -10.54296875 15.15234375 C-10.13860596 14.23855957 -9.73424316 13.32477539 -9.31762695 12.38330078 C-8.5191737 10.57411667 -7.72590489 8.76263423 -6.93823242 6.94873047 C-6.5744751 6.12646973 -6.21071777 5.30420898 -5.8359375 4.45703125 C-5.51391357 3.71984863 -5.19188965 2.98266602 -4.86010742 2.22314453 C-3.54538725 -0.16508776 -2.66623062 -0.67877562 0 0 Z M-2.91796875 17.51171875 C-3.92493443 19.61256084 -4.92332765 21.71751364 -5.91796875 23.82421875 C-6.47484375 24.99597656 -7.03171875 26.16773438 -7.60546875 27.375 C-9.11096959 30.40626042 -9.11096959 30.40626042 -8.91796875 33.51171875 C-9.57796875 33.84171875 -10.23796875 34.17171875 -10.91796875 34.51171875 C-11.57351994 37.0390511 -11.57351994 37.0390511 -11.91796875 39.51171875 C-8.41701564 40.67870312 -5.60574555 40.64440162 -1.91796875 40.63671875 C-0.68046875 40.63929687 0.55703125 40.641875 1.83203125 40.64453125 C5.09433898 40.66163177 5.09433898 40.66163177 8.08203125 39.51171875 C6.71875924 34.2169906 4.83113466 29.49131503 2.45703125 24.57421875 C1.96976563 23.54844727 1.96976563 23.54844727 1.47265625 22.50195312 C0.68057531 20.8362535 -0.11801615 19.17365235 -0.91796875 17.51171875 C-1.57796875 17.51171875 -2.23796875 17.51171875 -2.91796875 17.51171875 Z " fill="#F7F9FB" transform="translate(777.91796875,14.48828125)"/>
<path d="M0 0 C3.96 0 7.92 0 12 0 C12.58007812 1.52109375 13.16015625 3.0421875 13.7578125 4.609375 C19.22662932 18.89541846 19.22662932 18.89541846 25.79296875 32.6953125 C26.85806344 34.72898845 27.80189146 36.75862267 28.6875 38.875 C29.99721733 41.99337459 31.47447928 44.98257886 33 48 C39.06979706 35.01942021 44.95757276 22.00640877 50.26928711 8.69482422 C50.78954468 7.39375732 50.78954468 7.39375732 51.3203125 6.06640625 C51.62211426 5.30271729 51.92391602 4.53902832 52.23486328 3.75219727 C53 2 53 2 54 1 C55.51928038 0.92820036 57.04167482 0.91607993 58.5625 0.9375 C59.38878906 0.94652344 60.21507812 0.95554687 61.06640625 0.96484375 C61.70449219 0.97644531 62.34257812 0.98804687 63 1 C61.61565562 5.62385076 59.65894706 9.68263646 57.3125 13.875 C53.72306602 20.44077857 50.66256542 27.13751646 47.71875 34.01171875 C43.32399674 44.27366828 38.51304071 54.28654732 33 64 C30.67797852 63.81298828 30.67797852 63.81298828 28 63 C26.46069336 60.87060547 26.46069336 60.87060547 25.15234375 57.9921875 C24.64815918 56.90260742 24.14397461 55.81302734 23.62451172 54.69042969 C23.08146149 53.4609683 22.54002145 52.23079474 22 51 C21.41078196 49.68371194 20.82108694 48.36763731 20.23095703 47.05175781 C17.98998156 42.0233256 15.79851467 36.97355106 13.60717773 31.92333984 C12.65921302 29.74178231 11.70783988 27.56176637 10.75390625 25.3828125 C10.29149033 24.32565033 10.29149033 24.32565033 9.81973267 23.24713135 C7.18943922 17.29722974 4.2833879 11.5151058 1.26538086 5.75341797 C0 3 0 3 0 0 Z " fill="#F7F9FB" transform="translate(156,17)"/>
<path d="M0 0 C0.9480098 -0.00315216 1.89601959 -0.00630432 2.87275696 -0.009552 C4.42110481 -0.00651566 4.42110481 -0.00651566 6.00073242 -0.00341797 C7.58249519 -0.00485306 7.58249519 -0.00485306 9.19621277 -0.00631714 C11.43321797 -0.00699929 13.67022514 -0.0051426 15.90722656 -0.00097656 C19.33101875 0.00435531 22.7546788 -0.00091217 26.1784668 -0.00732422 C28.34838896 -0.00666313 30.51831104 -0.00538133 32.68823242 -0.00341797 C33.71439163 -0.0054422 34.74055084 -0.00746643 35.79780579 -0.009552 C36.75527206 -0.00639984 37.71273834 -0.00324768 38.69921875 0 C39.96044304 0.00119339 39.96044304 0.00119339 41.24714661 0.00241089 C43.53501022 0.12891398 45.39810684 0.31785365 47.54370117 1.12939453 C49.29370117 4.19189453 49.29370117 4.19189453 50.54370117 7.12939453 C49.88370117 7.45939453 49.22370117 7.78939453 48.54370117 8.12939453 C48.54370117 8.45939453 48.54370117 8.78939453 48.54370117 9.12939453 C43.79723523 9.23977746 39.70606138 8.62840073 35.10620117 7.56689453 C32.21448777 7.07318737 29.47252598 7.10119402 26.54370117 7.12939453 C26.5183073 14.1402916 26.50081581 21.15117676 26.48876953 28.16210938 C26.48374658 30.54622847 26.47692704 32.93034449 26.46826172 35.31445312 C26.45610693 38.74496215 26.4504524 42.17543037 26.44604492 45.60595703 C26.44088364 46.66867828 26.43572235 47.73139954 26.43040466 48.82632446 C26.43003619 53.70761181 26.50451902 58.33261601 27.54370117 63.12939453 C23.58370117 63.12939453 19.62370117 63.12939453 15.54370117 63.12939453 C15.54370117 44.64939453 15.54370117 26.16939453 15.54370117 7.12939453 C8.28863408 6.91019588 8.28863408 6.91019588 4.16870117 7.69189453 C1.54370117 8.12939453 1.54370117 8.12939453 -0.45629883 7.12939453 C-0.45629883 7.78939453 -0.45629883 8.44939453 -0.45629883 9.12939453 C-2.43629883 9.12939453 -4.41629883 9.12939453 -6.45629883 9.12939453 C-5.44249548 0.00516443 -5.44249548 0.00516443 0 0 Z " fill="#FAFCFD" transform="translate(375.456298828125,15.87060546875)"/>
<path d="M0 0 C0.72614502 0.00008057 1.45229004 0.00016113 2.20043945 0.00024414 C4.4150722 -0.00194063 6.62920561 -0.02008844 8.84375 -0.0390625 C10.245441 -0.04199669 11.64713437 -0.04398131 13.04882812 -0.04492188 C14.33072021 -0.04903076 15.6126123 -0.05313965 16.93334961 -0.05737305 C19.99023438 0.18554688 19.99023438 0.18554688 21.99023438 2.18554688 C21.11523438 4.68554688 21.11523438 4.68554688 18.99023438 7.18554688 C13.09349974 8.19518814 6.85967248 7.02403803 0.99023438 6.18554688 C0.33023438 6.18554688 -0.32976562 6.18554688 -1.00976562 6.18554688 C-1.00976562 13.44554688 -1.00976562 20.70554688 -1.00976562 28.18554688 C4.1217696 27.48983754 4.1217696 27.48983754 9.2512207 26.77905273 C12.56981196 26.34648263 14.77708386 26.1144967 17.99023438 27.18554688 C17.33023438 29.49554688 16.67023438 31.80554688 15.99023438 34.18554688 C9.99023438 33.51888021 3.99023437 32.85221354 -2.00976562 32.18554688 C-1.67976562 40.43554688 -1.34976563 48.68554688 -1.00976562 57.18554688 C4.93347594 57.18554688 9.81905196 57.07621599 15.55273438 56.18554688 C17.37998047 55.90710938 17.37998047 55.90710938 19.24414062 55.62304688 C20.15035156 55.47867188 21.0565625 55.33429688 21.99023438 55.18554688 C22.03265161 57.51849463 22.03116375 59.85257254 21.99023438 62.18554688 C20.99023438 63.18554688 20.99023438 63.18554688 17.93920898 63.29907227 C16.59032167 63.29891322 15.24142823 63.29322299 13.89257812 63.28320312 C12.82929039 63.2810807 12.82929039 63.2810807 11.74452209 63.27891541 C9.47221725 63.2733013 7.20000962 63.2607465 4.92773438 63.24804688 C3.39062642 63.24303369 1.85351692 63.23847047 0.31640625 63.234375 C-3.45902204 63.2233273 -7.23437733 63.20605329 -11.00976562 63.18554688 C-12.13476562 55.56054688 -12.13476562 55.56054688 -11.00976562 52.18554688 C-10.91934264 50.82507318 -10.88188048 49.46064247 -10.88037109 48.09716797 C-10.87721893 47.27977142 -10.87406677 46.46237488 -10.87081909 45.62020874 C-10.87284332 44.7420047 -10.87486755 43.86380066 -10.87695312 42.95898438 C-10.8759964 42.05556305 -10.87503967 41.15214172 -10.87405396 40.22134399 C-10.87337371 38.31325206 -10.87521718 36.4051578 -10.87939453 34.49707031 C-10.88475739 31.56505182 -10.87943792 28.63318567 -10.87304688 25.70117188 C-10.87370744 23.84960903 -10.87498815 21.99804629 -10.87695312 20.14648438 C-10.87492889 19.26423187 -10.87290466 18.38197937 -10.87081909 17.47299194 C-10.48840957 13.51312678 -10.48840957 13.51312678 -12.00976562 10.18554688 C-12.10767132 8.68816563 -12.13951427 7.18611795 -12.13476562 5.68554688 C-12.13734375 4.87085938 -12.13992187 4.05617188 -12.14257812 3.21679688 C-11.79450064 -2.10674107 -4.10537858 0.01440813 0 0 Z " fill="#F9FBFC" transform="translate(235.009765625,15.814453125)"/>
<path d="M0 0 C0.93099014 -0.01606293 1.86198029 -0.03212585 2.82118225 -0.04867554 C7.04630626 -0.09322929 11.27127845 -0.13413236 15.49658203 -0.15722656 C17.72845852 -0.17384224 19.9602806 -0.20120508 22.19189453 -0.23925781 C25.4100299 -0.29382258 28.62692441 -0.31586293 31.84545898 -0.33056641 C32.84549454 -0.35323578 33.84553009 -0.37590515 34.87586975 -0.39926147 C37.44158743 -0.39138037 39.77085056 -0.34699006 42.27905273 0.19287109 C44.45068359 2.58105469 44.45068359 2.58105469 45.27905273 5.19287109 C44.96655273 7.50537109 44.96655273 7.50537109 44.27905273 9.19287109 C38.91886358 8.72197597 33.56300004 8.23990092 28.21655273 7.63037109 C24.60804666 7.15606059 24.60804666 7.15606059 22.27905273 7.19287109 C22.08378813 25.87318487 22.68395314 44.52478682 23.27905273 63.19287109 C19.31905273 63.19287109 15.35905273 63.19287109 11.27905273 63.19287109 C11.27905273 44.71287109 11.27905273 26.23287109 11.27905273 7.19287109 C4.84405273 7.68787109 4.84405273 7.68787109 -1.72094727 8.19287109 C-2.71094727 7.86287109 -3.70094727 7.53287109 -4.72094727 7.19287109 C-5.05094727 7.85287109 -5.38094727 8.51287109 -5.72094727 9.19287109 C-7.37094727 8.86287109 -9.02094727 8.53287109 -10.72094727 8.19287109 C-10.06094727 5.88287109 -9.40094727 3.57287109 -8.72094727 1.19287109 C-5.75680978 0.34454972 -3.07916106 0.04846801 0 0 Z " fill="#F8FAFD" transform="translate(932.720947265625,15.80712890625)"/>
<path d="M0 0 C0.84820312 0.17144531 1.69640625 0.34289062 2.5703125 0.51953125 C4.875 1.1875 4.875 1.1875 7.875 3.1875 C8.25 6.6875 8.25 6.6875 7.875 10.1875 C6.885 10.8475 5.895 11.5075 4.875 12.1875 C3.375 10.8125 3.375 10.8125 1.875 9.1875 C1.875 8.5275 1.875 7.8675 1.875 7.1875 C0.27384424 6.9381643 -1.33120159 6.71371352 -2.9375 6.5 C-3.83082031 6.37238281 -4.72414063 6.24476562 -5.64453125 6.11328125 C-8.15605888 5.9571811 -8.15605888 5.9571811 -9.9140625 7.47265625 C-12.04293205 10.48741022 -11.6469821 12.59162332 -11.125 16.1875 C-8.0359029 23.12441981 -2.25120755 28.30262963 3.20385742 33.40673828 C8.02889932 38.00371849 11.4666729 42.32921033 12.4375 49.125 C12.17480224 53.9473803 9.94326015 57.55909426 6.875 61.1875 C0.89856819 65.59867586 -4.93616665 65.72283865 -12.125 65.1875 C-15.29491231 64.56088943 -18.36596524 63.90708445 -21.125 62.1875 C-22.81459246 58.23138107 -21.41764426 55.14147068 -20.125 51.1875 C-19.135 51.5175 -18.145 51.8475 -17.125 52.1875 C-16.83625 52.991875 -16.5475 53.79625 -16.25 54.625 C-15.35920129 57.36686645 -15.35920129 57.36686645 -12.8125 58.4375 C-11.925625 58.685 -11.03875 58.9325 -10.125 59.1875 C-9.320625 59.455625 -8.51625 59.72375 -7.6875 60 C-4.06620995 60.26497244 -2.1192453 59.16097986 0.875 57.1875 C2.43133752 53.25167686 1.45904604 50.39960349 0.07373047 46.55517578 C-2.09858553 42.26451986 -5.53494228 39.31780291 -9.0625 36.125 C-14.97762632 30.71034342 -20.03306804 25.77612815 -21.62109375 17.6484375 C-21.48509188 12.80677089 -21.06071513 9.22410831 -18.125 5.1875 C-12.41994152 0.63086238 -7.30668243 -1.55294932 0 0 Z " fill="#F8FAFC" transform="translate(335.125,15.8125)"/>
<path d="M0 0 C4.62 0 9.24 0 14 0 C14.495 1.27875 14.99 2.5575 15.5 3.875 C17.69290267 8.8964293 20.81279602 12.72273995 24.390625 16.8359375 C26 19 26 19 26 22 C26.99 22.33 27.98 22.66 29 23 C29.6875 25.0625 29.6875 25.0625 30 27 C30.66 27 31.32 27 32 27 C32.2475 26.13375 32.495 25.2675 32.75 24.375 C34.07800024 20.78939936 35.68630848 18.03672013 38 15 C38.66 15 39.32 15 40 15 C40.11472656 14.42765625 40.22945313 13.8553125 40.34765625 13.265625 C41.06182356 10.78528344 42.07307872 8.93631303 43.4375 6.75 C43.86933594 6.04359375 44.30117188 5.3371875 44.74609375 4.609375 C45.36677734 3.81273437 45.36677734 3.81273437 46 3 C46.66 3 47.32 3 48 3 C48 2.01 48 1.02 48 0 C51.3 0 54.6 0 58 0 C56.24264092 3.09629934 54.5010319 5.4989681 52 8 C51.2265625 9.3303125 51.2265625 9.3303125 50.4375 10.6875 C49.963125 11.450625 49.48875 12.21375 49 13 C48.34 13 47.68 13 47 13 C46.9278125 13.52335937 46.855625 14.04671875 46.78125 14.5859375 C45.66779443 18.02651522 43.59336646 20.7215072 41.5 23.625 C37.66356384 29.01739014 35.87217494 31.75773241 35.9375 38.50390625 C35.94910156 40.45006836 35.94910156 40.45006836 35.9609375 42.43554688 C35.9733854 43.81120322 35.98641338 45.18685443 36 46.5625 C36.02648797 49.2513439 36.04645451 51.93994917 36.0625 54.62890625 C36.07410156 55.82588135 36.08570313 57.02285645 36.09765625 58.25610352 C36 61 36 61 35 62 C33.31391034 62.07205511 31.62499341 62.08386068 29.9375 62.0625 C29.01839844 62.05347656 28.09929687 62.04445312 27.15234375 62.03515625 C26.44207031 62.02355469 25.73179687 62.01195312 25 62 C24.13393754 58.43386044 24.01350982 55.62656319 24.5 52 C25.75854005 38.37493599 23.79824988 31.14020682 15.34423828 20.67675781 C13.27230595 18.09229881 11.32767054 15.42575248 9.375 12.75 C8.72273438 11.87859375 8.07046875 11.0071875 7.3984375 10.109375 C6 8 6 8 6 6 C5.01 5.67 4.02 5.34 3 5 C3 4.34 3 3.68 3 3 C2.01 2.67 1.02 2.34 0 2 C0 1.34 0 0.68 0 0 Z " fill="#F8FAFC" transform="translate(424,18)"/>
<path d="M0 0 C2.82568359 -0.35644531 2.82568359 -0.35644531 6.3984375 -0.328125 C8.32429687 -0.32039062 8.32429687 -0.32039062 10.2890625 -0.3125 C11.29501465 -0.29703125 11.29501465 -0.29703125 12.32128906 -0.28125 C14.36021363 -0.25022499 16.39836325 -0.24029126 18.4375 -0.234375 C29.27109409 -0.14753256 29.27109409 -0.14753256 33 1 C32.39816251 3.02045442 31.72693904 5.02111039 31 7 C28.12961466 8.43519267 26.15385568 7.52564261 23 7 C18.0925838 6.7360553 13.91227724 7.18128713 9 8 C9 13.61 9 19.22 9 25 C15.6 25 22.2 25 29 25 C28.34 27.31 27.68 29.62 27 32 C21.39 32 15.78 32 10 32 C10 42.23 10 52.46 10 63 C6.37 63 2.74 63 -1 63 C-0.99476318 62.24831543 -0.98952637 61.49663086 -0.98413086 60.72216797 C-0.96254038 57.10644631 -0.94859608 53.49076959 -0.9375 49.875 C-0.935224 49.21204926 -0.932948 48.54909851 -0.93060303 47.86605835 C-0.91018661 40.04832916 -0.98497718 32.24582617 -1.29296875 24.43359375 C-1.31961105 23.74747009 -1.34625336 23.06134644 -1.373703 22.35443115 C-1.50587258 19.03914661 -1.65435813 15.7254109 -1.82006836 12.41162109 C-1.87171143 11.22004395 -1.92335449 10.0284668 -1.9765625 8.80078125 C-2.02893066 7.75059814 -2.08129883 6.70041504 -2.13525391 5.6184082 C-2 3 -2 3 0 0 Z " fill="#F8FBFC" transform="translate(585,16)"/>
<path d="M0 0 C1.85772162 0.08984301 3.71247985 0.24611861 5.5625 0.4375 C6.522771 0.53683838 7.48304199 0.63617676 8.47241211 0.73852539 C9.30651611 0.82481201 10.14062012 0.91109863 11 1 C10.9292627 1.83845459 10.85852539 2.67690918 10.78564453 3.54077148 C10.0025747 13.80806934 9.84559957 24.0243679 9.86962891 34.3190918 C9.87505332 37.08973506 9.86961525 39.8602206 9.86328125 42.63085938 C9.86394109 44.41145869 9.8652203 46.1920579 9.8671875 47.97265625 C9.86516327 48.79145767 9.86313904 49.61025909 9.86105347 50.45387268 C9.87858653 54.74782047 10.14627731 58.77080869 11 63 C8.59454362 64.20272819 7.05003047 64.10071472 4.375 64.0625 C3.55773437 64.05347656 2.74046875 64.04445313 1.8984375 64.03515625 C1.27195312 64.02355469 0.64546875 64.01195313 0 64 C-0.85050866 60.3125102 -1.1264345 56.90499596 -1.12939453 53.12402344 C-1.13254669 51.96642517 -1.13569885 50.8088269 -1.13894653 49.6161499 C-1.1369223 48.37641418 -1.13489807 47.13667847 -1.1328125 45.859375 C-1.13376923 44.58145081 -1.13472595 43.30352661 -1.13571167 41.98687744 C-1.13639147 39.2903706 -1.13505439 36.59395475 -1.13037109 33.89746094 C-1.12465123 30.43489844 -1.12797124 26.97241308 -1.13394356 23.50985336 C-1.13841352 20.20969108 -1.13529061 16.90953828 -1.1328125 13.609375 C-1.13483673 12.36154236 -1.13686096 11.11370972 -1.13894653 9.82806396 C-1.13579437 8.68307434 -1.13264221 7.53808472 -1.12939453 6.35839844 C-1.12859894 5.3453363 -1.12780334 4.33227417 -1.12698364 3.28851318 C-1 1 -1 1 0 0 Z " fill="#F6F8FA" transform="translate(354,16)"/>
<path d="M0 0 C0 20.46 0 40.92 0 62 C-3.63 62 -7.26 62 -11 62 C-11 41.54 -11 21.08 -11 0 C-7 -1 -7 -1 0 0 Z " fill="#F7F9FC" transform="translate(993,17)"/>
<path d="M0 0 C0 20.46 0 40.92 0 62 C-5.445 62.495 -5.445 62.495 -11 63 C-11.33 62.67 -11.66 62.34 -12 62 C-11.90614545 60.43765548 -11.74838377 58.87921704 -11.5703125 57.32421875 C-10.75580616 48.48643214 -10.85042141 39.64676767 -10.86962891 30.77807617 C-10.87505698 27.78103741 -10.86962108 24.78414398 -10.86328125 21.78710938 C-10.86394088 19.88541634 -10.86521964 17.98372339 -10.8671875 16.08203125 C-10.86516327 15.18426468 -10.86313904 14.28649811 -10.86105347 13.36152649 C-10.47242278 9.36241417 -10.47242278 9.36241417 -12 6 C-12.04080783 4.00041636 -12.04254356 1.99954746 -12 0 C-10 -1 -10 -1 0 0 Z " fill="#FBFCFD" transform="translate(152,17)"/>
<path d="M0 0 C1.18613892 0.07069702 1.18613892 0.07069702 2.39624023 0.14282227 C3.67724609 0.21533203 3.67724609 0.21533203 4.98413086 0.28930664 C5.88196289 0.34538086 6.77979492 0.40145508 7.70483398 0.45922852 C8.6065332 0.51143555 9.50823242 0.56364258 10.43725586 0.61743164 C12.67259948 0.74753101 14.90754288 0.88250788 17.14233398 1.02172852 C16.81233398 2.34172852 16.48233398 3.66172852 16.14233398 5.02172852 C17.46233398 5.02172852 18.78233398 5.02172852 20.14233398 5.02172852 C20.14233398 21.85172852 20.14233398 38.68172852 20.14233398 56.02172852 C18.14233398 54.02172852 18.14233398 54.02172852 17.90182495 51.99691772 C17.90848679 50.75115463 17.90848679 50.75115463 17.9152832 49.48022461 C17.91543427 48.53940033 17.91558533 47.59857605 17.91574097 46.62924194 C17.92606354 45.61149689 17.93638611 44.59375183 17.94702148 43.54516602 C17.94985138 42.5047818 17.95268127 41.46439758 17.95559692 40.39248657 C17.96681695 37.06045157 17.99192484 33.72868265 18.01733398 30.39672852 C18.02736143 28.14152406 18.03648769 25.8863154 18.04467773 23.63110352 C18.0667622 18.09455397 18.1002576 12.55816025 18.14233398 7.02172852 C12.4292174 6.96110166 12.4292174 6.96110166 6.76733398 7.58422852 C4.14233398 8.02172852 4.14233398 8.02172852 2.14233398 7.02172852 C2.14233398 7.68172852 2.14233398 8.34172852 2.14233398 9.02172852 C0.16233398 9.02172852 -1.81766602 9.02172852 -3.85766602 9.02172852 C-2.85896734 0.03344041 -2.85896734 0.03344041 0 0 Z " fill="#EBEEFA" transform="translate(372.857666015625,15.978271484375)"/>
<path d="M0 0 C2.0625 0.4375 2.0625 0.4375 4 1 C3.51104248 1.38067627 3.02208496 1.76135254 2.51831055 2.15356445 C0.436617 4.68513678 0.65549492 6.29618027 0.70703125 9.54296875 C0.71669922 10.61611328 0.72636719 11.68925781 0.73632812 12.79492188 C0.76146484 13.91447266 0.78660156 15.03402344 0.8125 16.1875 C0.83280273 17.88422852 0.83280273 17.88422852 0.85351562 19.61523438 C0.88890042 22.41063317 0.93827052 25.20507892 1 28 C3.31 28.33 5.62 28.66 8 29 C8 29.66 8 30.32 8 31 C8.66 31.33 9.32 31.66 10 32 C9.67 32.99 9.34 33.98 9 35 C8.4225 34.835 7.845 34.67 7.25 34.5 C4.73335631 33.85537969 4.73335631 33.85537969 1 34 C0.67 34.99 0.34 35.98 0 37 C-0.042721 35.33388095 -0.04063832 33.66617115 0 32 C0.33 31.67 0.66 31.34 1 31 C0.34 30.67 -0.32 30.34 -1 30 C-1.02465746 25.8882744 -1.04283959 21.77657722 -1.05493164 17.66479492 C-1.0599708 16.26504772 -1.06680216 14.8653058 -1.07543945 13.46557617 C-1.0875232 11.45754223 -1.09269807 9.44947043 -1.09765625 7.44140625 C-1.10289307 6.23170166 -1.10812988 5.02199707 -1.11352539 3.77563477 C-1 1 -1 1 0 0 Z " fill="#F0F2FA" transform="translate(273,20)"/>
<path d="M0 0 C0.66 0 1.32 0 2 0 C3.625 2 3.625 2 5 4 C4.67 4.66 4.34 5.32 4 6 C3.34 5.67 2.68 5.34 2 5 C2.00523682 5.5983667 2.01047363 6.1967334 2.01586914 6.81323242 C2.10015963 17.92357275 2.16884409 28.93772562 1 40 C0.67 40 0.34 40 0 40 C-1.17004946 26.5894331 -0.7850893 13.42840946 0 0 Z " fill="#E7EAF8" transform="translate(83,33)"/>
<path d="M0 0 C3.3 0 6.6 0 10 0 C8.25694551 3.07109601 6.60397576 5.61302222 4 8 C3.01 8.99 2.02 9.98 1 11 C1.66 8.03 2.32 5.06 3 2 C2.01 2 1.02 2 0 2 C0 1.34 0 0.68 0 0 Z " fill="#EBF6FC" transform="translate(472,18)"/>
<path d="M0 0 C0.66 0.33 1.32 0.66 2 1 C1.54625 1.886875 1.0925 2.77375 0.625 3.6875 C-0.72004299 6.42931841 -1.91038715 9.15024331 -3 12 C-4.09991843 8.70024471 -4.35996895 6.45570193 -4 3 C-2 1.125 -2 1.125 0 0 Z " fill="#ECF0FC" transform="translate(526,28)"/>
<path d="M0 0 C1.32 0 2.64 0 4 0 C4.99 1.98 5.98 3.96 7 6 C6.01 6.495 6.01 6.495 5 7 C5 7.33 5 7.66 5 8 C3.02 8 1.04 8 -1 8 C-1.33 7.34 -1.66 6.68 -2 6 C-0.68 5.67 0.64 5.34 2 5 C1.11785113 2.11785113 1.11785113 2.11785113 0 0 Z " fill="#E3EEF8" transform="translate(419,17)"/>
<path d="M0 0 C0.91007813 0.10183594 1.82015625 0.20367188 2.7578125 0.30859375 C3.45648438 0.39238281 4.15515625 0.47617187 4.875 0.5625 C4.545 1.5525 4.215 2.5425 3.875 3.5625 C3.875 2.9025 3.875 2.2425 3.875 1.5625 C-0.58 2.0575 -0.58 2.0575 -5.125 2.5625 C-5.125 4.2125 -5.125 5.8625 -5.125 7.5625 C-5.785 7.2325 -6.445 6.9025 -7.125 6.5625 C-7.125 4.5825 -7.125 2.6025 -7.125 0.5625 C-4.50184968 -0.74907516 -2.89466564 -0.33399988 0 0 Z " fill="#E4EBFA" transform="translate(147.125,16.4375)"/>
<path d="M0 0 C0 3.99282941 -1.47808076 5.15331592 -4 8.1875 C-4.7425 9.08855469 -5.485 9.98960938 -6.25 10.91796875 C-6.8275 11.60503906 -7.405 12.29210938 -8 13 C-8.33 12.01 -8.66 11.02 -9 10 C-6.03 6.7 -3.06 3.4 0 0 Z " fill="#EDF4FC" transform="translate(525,21)"/>
<path d="M0 0 C0.66 0.33 1.32 0.66 2 1 C2 5.29 2 9.58 2 14 C1.34 14 0.68 14 0 14 C-0.19393875 11.85473901 -0.37998676 9.70876323 -0.5625 7.5625 C-0.71912109 5.77005859 -0.71912109 5.77005859 -0.87890625 3.94140625 C-0.91886719 2.97074219 -0.95882812 2.00007813 -1 1 C-0.67 0.67 -0.34 0.34 0 0 Z " fill="#EFF4F6" transform="translate(232,21)"/>
<path d="M0 0 C3.3 0 6.6 0 10 0 C8 2 8 2 4.875 2.125 C3.92625 2.08375 2.9775 2.0425 2 2 C1.67 4.31 1.34 6.62 1 9 C0.67 9 0.34 9 0 9 C0 6.03 0 3.06 0 0 Z " fill="#E5E8F5" transform="translate(400,21)"/>
<path d="M0 0 C0.99 0.33 1.98 0.66 3 1 C2.67 1.53625 2.34 2.0725 2 2.625 C0.77300796 5.5391061 0.85766714 7.86867708 1 11 C0.01 10.67 -0.98 10.34 -2 10 C-1.34 6.7 -0.68 3.4 0 0 Z " fill="#EDF2FC" transform="translate(315,67)"/>
<path d="M0 0 C1.32 0 2.64 0 4 0 C3.67 1.32 3.34 2.64 3 4 C1.35 4 -0.3 4 -2 4 C-1.34 2.68 -0.68 1.36 0 0 Z " fill="#EBF3FB" transform="translate(663,10)"/>
<path d="M0 0 C0.33 0.99 0.66 1.98 1 3 C0.34 3.66 -0.32 4.32 -1 5 C-1.66 4.34 -2.32 3.68 -3 3 C-4.98821313 2.60235737 -6.98944339 2.26224651 -9 2 C-5.86501708 0.14223235 -3.62528568 -0.20140476 0 0 Z " fill="#EFF4FE" transform="translate(252,42)"/>
<path d="M0 0 C-0.33 3.3 -0.66 6.6 -1 10 C-1.66 9.67 -2.32 9.34 -3 9 C-3.8125 6.125 -3.8125 6.125 -4 3 C-1.8 0 -1.8 0 0 0 Z " fill="#EFF4FA" transform="translate(364,22)"/>
<path d="" fill="#BBE5FF" transform="translate(0,0)"/>
<path d="" fill="#FFFFFF" transform="translate(0,0)"/>
</svg>
